{"glyphs":{"0":{"ha":928,"x_min":58,"x_max":907,"o":"m 561 896 q 739 865 669 896 q 849 771 808 835 q 892 673 876 728 q 907 549 907 618 q 896 429 907 490 q 864 311 885 368 q 815 203 843 254 q 751 115 786 153 q 608 17 689 46 q 413 -11 528 -11 q 233 14 301 -11 q 124 94 164 39 q 74 197 90 135 q 58 340 58 258 q 72 484 58 414 q 113 615 86 554 q 179 726 140 676 q 268 811 218 776 q 398 874 326 853 q 561 896 469 896 m 410 86 q 463 115 438 86 q 511 192 489 144 q 551 302 533 240 q 581 430 568 364 q 600 559 593 496 q 607 675 607 622 q 594 773 607 746 q 558 800 582 800 q 503 772 529 800 q 454 697 476 743 q 413 589 432 650 q 381 464 394 528 q 361 338 368 400 q 354 224 354 275 q 369 116 354 146 q 410 86 385 86 z "},"1":{"ha":551,"x_min":79,"x_max":581,"o":"m 100 739 q 256 790 186 751 q 368 882 326 829 l 581 882 l 392 0 l 92 0 l 229 646 l 79 646 l 100 739 z "},"2":{"ha":824,"x_min":-4,"x_max":814,"o":"m 26 136 q 213 213 122 167 q 374 326 303 260 q 487 479 444 392 q 529 681 529 567 q 518 767 529 736 q 479 797 507 797 q 433 774 454 797 q 394 714 411 750 q 362 633 376 678 q 338 547 347 589 l 86 547 l 132 756 q 296 859 210 822 q 490 896 382 896 q 616 881 557 896 q 719 833 675 865 q 788 751 763 800 q 814 633 814 701 q 797 532 814 582 q 735 428 779 482 q 617 317 692 375 q 429 193 543 260 l 739 193 l 711 0 l -4 0 l 26 136 z "},"3":{"ha":839,"x_min":7,"x_max":811,"o":"m 325 -11 q 151 15 226 -11 q 7 106 76 40 l 51 314 l 286 314 q 284 304 286 315 q 280 275 282 293 q 276 235 278 257 q 274 192 274 213 q 288 110 274 135 q 329 86 303 86 q 384 106 358 86 q 428 154 410 125 q 456 219 446 183 q 467 288 467 254 q 434 383 467 351 q 354 414 401 414 q 364 461 358 440 q 372 494 368 479 q 375 510 375 508 q 452 524 421 510 q 503 565 483 539 q 532 626 524 590 q 540 701 540 661 q 538 735 540 718 q 531 767 536 753 q 515 791 525 782 q 486 800 504 800 q 413 756 449 800 q 350 604 378 711 l 111 604 l 153 800 q 249 847 194 826 q 359 881 294 865 q 507 896 424 896 q 615 887 561 896 q 713 854 669 878 q 784 790 757 831 q 811 688 811 750 q 795 605 811 640 q 749 542 779 569 q 676 492 718 514 q 579 450 633 469 q 657 433 621 446 q 720 399 693 421 q 763 344 747 376 q 779 268 779 313 q 747 157 779 208 q 656 68 715 106 q 513 10 597 31 q 325 -11 429 -11 z "},"4":{"ha":843,"x_min":-1,"x_max":814,"o":"m 615 0 l 315 0 l 361 222 l -1 222 l 33 385 l 447 882 l 806 882 l 688 339 l 814 339 l 789 222 l 663 222 l 615 0 m 386 339 l 469 725 l 161 339 l 386 339 z "},"5":{"ha":782,"x_min":1,"x_max":757,"o":"m 717 690 l 315 690 l 292 571 q 362 597 324 586 q 453 607 400 607 q 592 583 536 607 q 681 521 647 560 q 730 434 715 482 q 744 339 744 386 q 713 200 744 264 q 624 89 682 136 q 483 15 567 42 q 296 -11 400 -11 q 218 -6 256 -11 q 145 12 181 -1 q 74 47 110 25 q 1 106 39 69 l 42 299 l 261 299 q 257 263 258 278 q 256 214 256 247 q 274 115 256 144 q 325 86 292 86 q 385 113 360 86 q 425 178 410 139 q 447 264 440 218 q 454 350 454 310 q 450 403 454 378 q 436 449 446 429 q 410 480 426 468 q 368 492 393 492 q 315 476 343 492 q 261 417 288 461 l 90 417 l 190 882 l 757 882 l 717 690 z "},"6":{"ha":856,"x_min":57,"x_max":836,"o":"m 576 896 q 637 893 603 896 q 706 884 671 890 q 776 867 742 878 q 836 840 810 857 l 792 646 l 576 646 q 579 675 578 661 q 581 704 581 689 q 572 770 581 740 q 540 800 564 800 q 501 782 524 800 q 456 725 479 764 q 411 625 432 686 q 376 479 390 564 l 390 479 q 490 547 431 524 q 611 571 549 571 q 764 506 718 571 q 810 331 810 442 q 783 184 810 246 q 699 76 757 122 q 573 13 649 38 q 394 -11 497 -11 q 259 5 321 -11 q 152 60 197 21 q 82 167 107 100 q 57 338 57 235 q 88 549 57 447 q 183 727 119 650 q 345 850 247 804 q 576 896 443 896 m 388 83 q 446 114 421 83 q 486 189 471 144 q 509 284 501 233 q 517 375 517 335 q 509 426 517 408 q 474 444 501 444 q 410 413 436 444 q 366 338 383 382 q 341 247 349 294 q 333 168 333 200 q 346 106 333 129 q 388 83 358 83 z "},"7":{"ha":738,"x_min":92,"x_max":833,"o":"m 803 747 q 639 624 708 703 q 525 446 569 546 q 459 231 481 346 q 438 0 438 117 l 138 0 q 146 87 138 35 q 172 201 154 139 q 219 332 190 264 q 290 465 249 400 q 388 589 332 531 q 514 690 443 647 l 92 690 l 133 882 l 833 882 l 803 747 z "},"8":{"ha":861,"x_min":33,"x_max":817,"o":"m 374 -11 q 119 54 204 -11 q 33 238 33 119 q 77 380 33 318 q 229 478 121 442 q 151 533 185 493 q 118 640 118 574 q 151 752 118 704 q 239 832 185 800 q 364 879 293 864 q 510 894 435 894 q 663 874 603 894 q 757 820 722 853 q 804 748 792 788 q 817 672 817 708 q 798 583 817 619 q 753 522 779 546 q 698 485 726 499 q 651 468 669 472 q 756 402 715 453 q 797 275 797 351 q 768 163 797 215 q 685 72 739 111 q 552 11 631 33 q 374 -11 474 -11 m 444 514 q 494 533 474 514 q 526 582 514 553 q 544 645 539 611 q 550 710 550 679 q 549 741 550 725 q 542 770 547 757 q 525 792 536 783 q 494 800 514 800 q 445 781 465 800 q 413 735 425 763 q 394 672 400 707 q 388 607 388 638 q 389 574 388 590 q 397 544 390 558 q 414 522 403 531 q 444 514 425 514 m 392 85 q 441 107 421 85 q 473 164 461 129 q 490 239 485 199 q 494 317 494 279 q 485 388 494 358 q 440 418 476 418 q 390 397 411 418 q 356 342 369 375 q 337 270 343 310 q 331 196 331 231 q 343 119 331 153 q 392 85 356 85 z "},"9":{"ha":860,"x_min":42,"x_max":836,"o":"m 328 -11 q 265 -9 303 -11 q 188 -1 228 -7 q 109 16 147 6 q 42 43 71 26 l 88 238 l 301 238 q 301 213 301 228 q 300 181 300 197 q 302 147 300 164 q 309 115 304 129 q 324 92 314 101 q 351 83 335 83 q 443 160 397 83 q 517 411 489 238 l 503 411 q 404 344 463 367 q 283 321 346 321 q 191 338 229 321 q 128 386 153 356 q 93 459 104 417 q 82 551 82 501 q 115 708 82 643 q 203 815 147 774 q 333 876 258 857 q 490 896 407 896 q 630 878 567 896 q 739 820 693 861 q 810 711 785 779 q 836 542 836 643 q 808 340 836 439 q 717 163 779 240 q 559 37 656 85 q 328 -11 463 -11 m 506 800 q 447 771 471 800 q 406 699 422 742 q 383 608 390 657 q 376 522 376 560 q 384 472 376 489 q 419 454 392 454 q 483 484 457 454 q 526 556 510 514 q 551 642 543 597 q 560 718 560 688 q 547 777 560 754 q 506 800 535 800 z "}," ":{"ha":265,"x_min":0,"x_max":0,"o":""},"Ă":{"ha":836,"x_min":-65,"x_max":797,"o":"m 769 0 l 444 0 l 425 221 l 168 221 l 69 0 l -65 0 l 344 882 l 674 882 l 769 0 m 214 322 l 415 322 l 383 700 l 214 322 m 532 963 q 401 1003 450 963 q 339 1136 353 1044 l 410 1165 q 433 1120 418 1138 q 467 1093 449 1103 q 506 1080 486 1083 q 543 1076 526 1076 q 655 1107 601 1076 q 744 1186 708 1138 l 797 1139 q 678 1003 744 1043 q 532 963 611 963 z "},"Â":{"ha":836,"x_min":-65,"x_max":769,"o":"m 769 0 l 444 0 l 425 221 l 168 221 l 69 0 l -65 0 l 344 882 l 674 882 l 769 0 m 214 322 l 415 322 l 383 700 l 214 322 m 243 963 l 446 1165 l 653 1165 l 768 963 l 663 963 l 547 1092 l 363 963 l 243 963 z "},"Ä":{"ha":836,"x_min":-65,"x_max":769,"o":"m 769 0 l 444 0 l 425 221 l 168 221 l 69 0 l -65 0 l 344 882 l 674 882 l 769 0 m 214 322 l 415 322 l 383 700 l 214 322 m 374 1160 q 447 1131 424 1160 q 471 1063 471 1103 q 442 983 471 1018 q 358 947 414 947 q 283 976 307 947 q 260 1044 260 1004 q 289 1124 260 1089 q 374 1160 318 1160 m 668 1160 q 743 1131 719 1160 q 767 1063 767 1103 q 738 983 767 1018 q 653 947 708 947 q 578 976 601 947 q 554 1044 554 1004 q 583 1124 554 1089 q 668 1160 613 1160 z "},"À":{"ha":836,"x_min":-65,"x_max":769,"o":"m 769 0 l 444 0 l 425 221 l 168 221 l 69 0 l -65 0 l 344 882 l 674 882 l 769 0 m 214 322 l 415 322 l 383 700 l 214 322 m 200 1165 l 440 1165 l 586 963 l 457 963 l 200 1165 z "},"Ā":{"ha":836,"x_min":-65,"x_max":810,"o":"m 769 0 l 444 0 l 425 221 l 168 221 l 69 0 l -65 0 l 344 882 l 674 882 l 769 0 m 214 322 l 415 322 l 383 700 l 214 322 m 317 1121 l 810 1121 l 785 1014 l 290 1014 l 317 1121 z "},"Ą":{"ha":836,"x_min":-65,"x_max":769,"o":"m 769 0 l 710 0 q 672 -27 690 -12 q 637 -59 653 -42 q 611 -97 621 -76 q 601 -139 601 -117 q 614 -179 601 -167 q 644 -192 626 -192 q 674 -184 657 -192 q 717 -156 692 -176 l 749 -214 q 651 -266 707 -249 q 543 -283 596 -283 q 424 -181 424 -283 q 438 -117 424 -146 q 474 -67 451 -89 q 523 -28 496 -44 q 578 0 550 -11 l 444 0 l 425 221 l 168 221 l 69 0 l -65 0 l 344 882 l 674 882 l 769 0 m 214 322 l 415 322 l 383 700 l 214 322 z "},"Å":{"ha":836,"x_min":-65,"x_max":769,"o":"m 769 0 l 444 0 l 425 221 l 168 221 l 69 0 l -65 0 l 344 882 l 674 882 l 769 0 m 214 322 l 415 322 l 383 700 l 214 322 m 647 1076 q 635 1025 647 1049 q 605 984 624 1001 q 561 957 586 967 q 510 947 536 947 q 426 978 460 947 q 393 1060 393 1008 q 404 1111 393 1088 q 435 1151 415 1135 q 478 1178 454 1168 q 531 1188 503 1188 q 614 1156 581 1188 q 647 1076 647 1125 m 567 1071 q 554 1099 567 1089 q 524 1110 542 1110 q 488 1097 504 1110 q 472 1064 472 1085 q 485 1034 472 1046 q 515 1022 497 1022 q 551 1036 535 1022 q 567 1071 567 1050 z "},"Ǻ":{"ha":836,"x_min":-65,"x_max":799,"o":"m 769 0 l 443 0 l 424 221 l 169 221 l 69 0 l -65 0 l 344 868 l 672 868 l 769 0 m 658 1019 q 647 967 658 990 q 616 926 635 943 q 572 899 597 908 q 519 889 546 889 q 437 920 471 889 q 403 1001 403 951 q 444 1094 403 1058 q 542 1131 486 1131 q 624 1099 590 1131 q 658 1019 658 1068 m 217 322 l 414 322 l 382 685 l 217 322 m 504 1154 l 631 1356 l 799 1356 l 613 1154 l 504 1154 m 576 1014 q 564 1042 576 1032 q 535 1053 551 1053 q 499 1040 515 1053 q 483 1006 483 1026 q 495 977 483 989 q 525 965 507 965 q 560 979 544 965 q 576 1014 576 993 z "},"Ã":{"ha":836,"x_min":-65,"x_max":853,"o":"m 769 0 l 444 0 l 425 221 l 168 221 l 69 0 l -65 0 l 344 882 l 674 882 l 769 0 m 214 322 l 415 322 l 383 700 l 214 322 m 853 1138 q 769 1024 811 1061 q 665 986 728 986 q 606 994 640 986 q 537 1012 572 1003 q 470 1029 501 1021 q 419 1038 439 1038 q 368 1021 394 1038 q 329 989 342 1004 l 283 1029 q 370 1136 326 1100 q 474 1172 414 1172 q 528 1165 496 1172 q 595 1149 561 1158 q 661 1133 629 1140 q 714 1126 693 1126 q 760 1140 733 1126 q 804 1172 788 1153 l 853 1138 z "},"B":{"ha":864,"x_min":0,"x_max":851,"o":"m 851 681 q 840 608 851 640 q 807 551 828 576 q 758 507 786 526 q 697 471 731 488 q 733 453 713 465 q 774 421 754 442 q 806 367 793 400 q 819 288 819 335 q 793 172 819 225 q 715 81 767 119 q 587 22 663 43 q 413 0 511 0 l 0 0 l 188 882 l 553 882 q 660 874 607 882 q 756 844 714 867 q 825 783 799 822 q 851 681 851 743 m 474 513 q 526 531 504 513 q 561 576 547 549 q 582 634 575 603 q 589 690 589 665 q 570 759 589 731 q 511 788 551 788 l 469 788 l 410 513 l 474 513 m 374 88 q 443 111 415 88 q 489 169 471 135 q 515 242 507 204 q 522 310 522 281 q 502 387 522 358 q 438 415 482 415 l 386 415 l 318 88 l 374 88 z "},"C":{"ha":888,"x_min":47,"x_max":918,"o":"m 783 75 q 712 42 749 58 q 633 15 675 26 q 542 -4 592 3 q 435 -11 493 -11 q 148 72 249 -11 q 47 350 47 156 q 82 562 47 463 q 185 735 117 661 q 353 853 253 810 q 582 896 453 896 q 694 888 643 896 q 785 866 744 879 q 859 838 826 853 q 918 808 892 822 l 868 550 l 618 550 q 622 586 619 564 q 625 631 624 608 q 628 676 626 654 q 629 714 629 699 q 628 740 629 725 q 621 768 626 754 q 603 791 615 782 q 572 800 592 800 q 506 770 536 800 q 453 691 476 740 q 411 579 429 642 q 381 452 393 517 q 363 325 369 388 q 357 215 357 263 q 358 181 357 201 q 367 140 360 160 q 388 107 374 121 q 428 93 403 93 q 511 147 471 93 q 582 338 551 200 l 839 338 l 783 75 z "},"Ć":{"ha":888,"x_min":47,"x_max":918,"o":"m 783 75 q 712 42 749 58 q 633 15 675 26 q 542 -4 592 3 q 435 -11 493 -11 q 148 72 249 -11 q 47 350 47 156 q 82 562 47 463 q 185 735 117 661 q 353 853 253 810 q 582 896 453 896 q 694 888 643 896 q 785 866 744 879 q 859 838 826 853 q 918 808 892 822 l 868 550 l 618 550 q 622 586 619 564 q 625 631 624 608 q 628 676 626 654 q 629 714 629 699 q 628 740 629 725 q 621 768 626 754 q 603 791 615 782 q 572 800 592 800 q 506 770 536 800 q 453 691 476 740 q 411 579 429 642 q 381 452 393 517 q 363 325 369 388 q 357 215 357 263 q 358 181 357 201 q 367 140 360 160 q 388 107 374 121 q 428 93 403 93 q 511 147 471 93 q 582 338 551 200 l 839 338 l 783 75 m 531 963 l 660 1165 l 899 1165 l 650 963 l 531 963 z "},"Č":{"ha":888,"x_min":47,"x_max":918,"o":"m 783 75 q 712 42 749 58 q 633 15 675 26 q 542 -4 592 3 q 435 -11 493 -11 q 148 72 249 -11 q 47 350 47 156 q 82 562 47 463 q 185 735 117 661 q 353 853 253 810 q 582 896 453 896 q 694 888 643 896 q 785 866 744 879 q 859 838 826 853 q 918 808 892 822 l 868 550 l 618 550 q 622 586 619 564 q 625 631 624 608 q 628 676 626 654 q 629 714 629 699 q 628 740 629 725 q 621 768 626 754 q 603 791 615 782 q 572 800 592 800 q 506 770 536 800 q 453 691 476 740 q 411 579 429 642 q 381 452 393 517 q 363 325 369 388 q 357 215 357 263 q 358 181 357 201 q 367 140 360 160 q 388 107 374 121 q 428 93 403 93 q 511 147 471 93 q 582 338 551 200 l 839 338 l 783 75 m 906 1165 l 703 963 l 496 963 l 381 1165 l 488 1165 l 603 1038 l 786 1165 l 906 1165 z "},"Ç":{"ha":888,"x_min":47,"x_max":918,"o":"m 783 75 q 644 18 718 43 q 467 -10 569 -7 l 446 -94 q 475 -83 454 -92 q 526 -75 496 -75 q 604 -98 576 -75 q 632 -162 632 -121 q 613 -224 632 -199 q 565 -266 594 -250 q 499 -290 536 -282 q 426 -297 463 -297 q 357 -285 382 -297 q 314 -256 332 -274 l 346 -214 q 376 -232 353 -224 q 418 -240 399 -240 q 440 -237 428 -240 q 463 -227 453 -235 q 481 -207 474 -219 q 489 -175 489 -194 q 480 -148 489 -157 q 458 -139 471 -139 q 439 -144 450 -139 q 422 -165 428 -150 l 318 -165 l 360 -7 q 128 91 210 7 q 47 350 47 175 q 82 562 47 463 q 185 735 117 661 q 353 853 253 810 q 582 896 453 896 q 694 888 643 896 q 785 866 744 879 q 859 838 826 853 q 918 808 892 822 l 868 550 l 618 550 q 622 586 619 564 q 625 631 624 608 q 628 676 626 654 q 629 714 629 699 q 628 740 629 725 q 621 768 626 754 q 603 791 615 782 q 572 800 592 800 q 506 770 536 800 q 453 691 476 740 q 411 579 429 642 q 381 452 393 517 q 363 325 369 388 q 357 215 357 263 q 358 181 357 201 q 367 140 360 160 q 388 107 374 121 q 428 93 403 93 q 511 147 471 93 q 582 338 551 200 l 839 338 l 783 75 z "},"Ĉ":{"ha":888,"x_min":47,"x_max":918,"o":"m 783 75 q 712 42 749 58 q 633 15 675 26 q 542 -4 592 3 q 435 -11 493 -11 q 148 72 249 -11 q 47 350 47 156 q 82 562 47 463 q 185 735 117 661 q 353 853 253 810 q 582 896 453 896 q 694 888 643 896 q 785 866 744 879 q 859 838 826 853 q 918 808 892 822 l 868 550 l 618 550 q 622 586 619 564 q 625 631 624 608 q 628 676 626 654 q 629 714 629 699 q 628 740 629 725 q 621 768 626 754 q 603 791 615 782 q 572 800 592 800 q 506 770 536 800 q 453 691 476 740 q 411 579 429 642 q 381 452 393 517 q 363 325 369 388 q 357 215 357 263 q 358 181 357 201 q 367 140 360 160 q 388 107 374 121 q 428 93 403 93 q 511 147 471 93 q 582 338 551 200 l 839 338 l 783 75 m 322 963 l 525 1165 l 732 1165 l 847 963 l 742 963 l 626 1092 l 442 963 l 322 963 z "},"Ċ":{"ha":888,"x_min":47,"x_max":918,"o":"m 783 75 q 712 42 749 58 q 633 15 675 26 q 542 -4 592 3 q 435 -11 493 -11 q 148 72 249 -11 q 47 350 47 156 q 82 562 47 463 q 185 735 117 661 q 353 853 253 810 q 582 896 453 896 q 694 888 643 896 q 785 866 744 879 q 859 838 826 853 q 918 808 892 822 l 868 550 l 618 550 q 622 586 619 564 q 625 631 624 608 q 628 676 626 654 q 629 714 629 699 q 628 740 629 725 q 621 768 626 754 q 603 791 615 782 q 572 800 592 800 q 506 770 536 800 q 453 691 476 740 q 411 579 429 642 q 381 452 393 517 q 363 325 369 388 q 357 215 357 263 q 358 181 357 201 q 367 140 360 160 q 388 107 374 121 q 428 93 403 93 q 511 147 471 93 q 582 338 551 200 l 839 338 l 783 75 m 756 1063 q 742 1007 756 1031 q 708 967 729 983 q 658 942 686 950 q 601 933 631 933 q 508 960 546 933 q 471 1043 471 986 q 483 1098 471 1074 q 517 1138 496 1122 q 567 1163 539 1154 q 626 1171 596 1171 q 718 1144 681 1171 q 756 1063 756 1118 z "},"D":{"ha":919,"x_min":0,"x_max":904,"o":"m 0 0 l 188 882 l 561 882 q 712 865 647 882 q 819 807 776 847 q 883 701 861 767 q 904 542 904 636 q 878 343 904 440 q 793 169 853 246 q 637 47 733 93 q 399 0 540 0 l 0 0 m 381 97 q 462 135 426 97 q 523 233 497 174 q 566 363 549 292 q 594 501 583 435 q 609 621 604 568 q 614 696 614 674 q 597 763 614 739 q 536 788 579 788 l 469 788 l 321 97 l 381 97 z "},"Ď":{"ha":919,"x_min":0,"x_max":904,"o":"m 0 0 l 188 882 l 561 882 q 712 865 647 882 q 819 807 776 847 q 883 701 861 767 q 904 542 904 636 q 878 343 904 440 q 793 169 853 246 q 637 47 733 93 q 399 0 540 0 l 0 0 m 381 97 q 462 135 426 97 q 523 233 497 174 q 566 363 549 292 q 594 501 583 435 q 609 621 604 568 q 614 696 614 674 q 597 763 614 739 q 536 788 579 788 l 469 788 l 321 97 l 381 97 m 846 1165 l 643 963 l 436 963 l 321 1165 l 428 1165 l 543 1038 l 726 1165 l 846 1165 z "},"Đ":{"ha":935,"x_min":8,"x_max":919,"o":"m 35 507 l 122 507 l 203 882 l 576 882 q 727 865 663 882 q 834 807 792 847 q 898 701 876 767 q 919 542 919 636 q 894 343 919 440 q 808 169 868 246 q 652 47 749 93 q 414 0 556 0 l 15 0 l 100 400 l 8 400 l 35 507 m 396 97 q 477 135 442 97 q 538 233 513 174 q 581 363 564 292 q 609 501 599 435 q 624 621 619 568 q 629 696 629 674 q 612 763 629 739 q 551 788 594 788 l 485 788 l 424 507 l 528 507 l 503 400 l 401 400 l 336 97 l 396 97 z "},"Ḍ":{"ha":919,"x_min":0,"x_max":904,"o":"m 0 0 l 188 882 l 561 882 q 712 865 647 882 q 819 807 776 847 q 883 701 861 767 q 904 542 904 636 q 878 343 904 440 q 793 169 853 246 q 637 47 733 93 q 399 0 540 0 l 0 0 m 381 97 q 462 135 426 97 q 523 233 497 174 q 566 363 549 292 q 594 501 583 435 q 609 621 604 568 q 614 696 614 674 q 597 763 614 739 q 536 788 579 788 l 469 788 l 321 97 l 381 97 m 411 -200 q 401 -244 411 -225 q 373 -276 390 -264 q 333 -296 356 -289 q 286 -303 310 -303 q 210 -282 242 -303 q 179 -214 179 -261 q 217 -138 179 -164 q 306 -112 256 -112 q 381 -133 350 -112 q 411 -200 411 -154 z "},"E":{"ha":699,"x_min":0,"x_max":772,"o":"m 188 882 l 772 882 l 750 776 l 467 776 l 408 508 l 646 508 l 624 404 l 386 404 l 322 107 l 606 107 l 585 0 l 0 0 l 188 882 z "},"É":{"ha":699,"x_min":0,"x_max":789,"o":"m 188 882 l 772 882 l 750 776 l 467 776 l 408 508 l 646 508 l 624 404 l 386 404 l 322 107 l 606 107 l 585 0 l 0 0 l 188 882 m 421 963 l 550 1165 l 789 1165 l 540 963 l 421 963 z "},"Ĕ":{"ha":699,"x_min":0,"x_max":772,"o":"m 188 882 l 772 882 l 750 776 l 467 776 l 408 508 l 646 508 l 624 404 l 386 404 l 322 107 l 606 107 l 585 0 l 0 0 l 188 882 m 481 963 q 350 1003 399 963 q 288 1136 301 1044 l 358 1165 q 382 1120 367 1138 q 416 1093 397 1103 q 455 1080 435 1083 q 492 1076 475 1076 q 603 1107 550 1076 q 693 1186 657 1138 l 746 1139 q 626 1003 693 1043 q 481 963 560 963 z "},"Ě":{"ha":699,"x_min":0,"x_max":788,"o":"m 188 882 l 772 882 l 750 776 l 467 776 l 408 508 l 646 508 l 624 404 l 386 404 l 322 107 l 606 107 l 585 0 l 0 0 l 188 882 m 788 1165 l 585 963 l 378 963 l 263 1165 l 369 1165 l 485 1038 l 668 1165 l 788 1165 z "},"Ê":{"ha":699,"x_min":0,"x_max":772,"o":"m 188 882 l 772 882 l 750 776 l 467 776 l 408 508 l 646 508 l 624 404 l 386 404 l 322 107 l 606 107 l 585 0 l 0 0 l 188 882 m 243 963 l 446 1165 l 653 1165 l 768 963 l 663 963 l 547 1092 l 363 963 l 243 963 z "},"Ë":{"ha":699,"x_min":0,"x_max":772,"o":"m 188 882 l 772 882 l 750 776 l 467 776 l 408 508 l 646 508 l 624 404 l 386 404 l 322 107 l 606 107 l 585 0 l 0 0 l 188 882 m 353 1160 q 426 1131 403 1160 q 450 1063 450 1103 q 422 983 450 1018 q 338 947 393 947 q 263 976 286 947 q 239 1044 239 1004 q 268 1124 239 1089 q 353 1160 297 1160 m 647 1160 q 722 1131 699 1160 q 746 1063 746 1103 q 717 983 746 1018 q 632 947 688 947 q 557 976 581 947 q 533 1044 533 1004 q 563 1124 533 1089 q 647 1160 592 1160 z "},"Ė":{"ha":699,"x_min":0,"x_max":772,"o":"m 188 882 l 772 882 l 750 776 l 467 776 l 408 508 l 646 508 l 624 404 l 386 404 l 322 107 l 606 107 l 585 0 l 0 0 l 188 882 m 646 1063 q 633 1007 646 1031 q 598 967 619 983 q 549 942 576 950 q 492 933 521 933 q 399 960 436 933 q 361 1043 361 986 q 374 1098 361 1074 q 408 1138 386 1122 q 458 1163 429 1154 q 517 1171 486 1171 q 608 1144 571 1171 q 646 1063 646 1118 z "},"Ẹ":{"ha":699,"x_min":0,"x_max":772,"o":"m 188 882 l 772 882 l 750 776 l 467 776 l 408 508 l 646 508 l 624 404 l 386 404 l 322 107 l 606 107 l 585 0 l 0 0 l 188 882 m 376 -200 q 366 -244 376 -225 q 338 -276 356 -264 q 298 -296 321 -289 q 251 -303 275 -303 q 176 -282 207 -303 q 144 -214 144 -261 q 183 -138 144 -164 q 271 -112 221 -112 q 346 -133 315 -112 q 376 -200 376 -154 z "},"È":{"ha":699,"x_min":0,"x_max":772,"o":"m 188 882 l 772 882 l 750 776 l 467 776 l 408 508 l 646 508 l 624 404 l 386 404 l 322 107 l 606 107 l 585 0 l 0 0 l 188 882 m 183 1165 l 424 1165 l 569 963 l 440 963 l 183 1165 z "},"Ē":{"ha":699,"x_min":0,"x_max":772,"o":"m 188 882 l 772 882 l 750 776 l 467 776 l 408 508 l 646 508 l 624 404 l 386 404 l 322 107 l 606 107 l 585 0 l 0 0 l 188 882 m 272 1121 l 765 1121 l 740 1014 l 246 1014 l 272 1121 z "},"Ŋ":{"ha":894,"x_min":0,"x_max":931,"o":"m 757 68 q 700 -72 739 -15 q 607 -165 661 -129 q 488 -217 553 -201 q 353 -233 422 -233 q 261 -228 310 -233 q 158 -210 213 -222 l 182 -99 q 246 -106 211 -104 q 301 -108 281 -108 q 403 -86 363 -108 q 443 -3 443 -64 q 434 70 443 26 q 413 154 425 114 l 264 644 l 125 0 l 0 0 l 188 882 l 519 882 l 665 239 l 803 882 l 931 882 l 757 68 z "},"Ę":{"ha":699,"x_min":0,"x_max":772,"o":"m 188 882 l 772 882 l 750 776 l 467 776 l 408 508 l 646 508 l 624 404 l 386 404 l 322 107 l 606 107 l 585 0 l 417 0 q 378 -27 397 -12 q 344 -59 360 -42 q 318 -97 328 -76 q 308 -139 308 -117 q 321 -179 308 -167 q 351 -192 333 -192 q 381 -184 364 -192 q 424 -156 399 -176 l 456 -214 q 358 -266 414 -249 q 250 -283 303 -283 q 131 -181 131 -283 q 144 -117 131 -146 q 181 -67 158 -89 q 230 -28 203 -44 q 285 0 257 -11 l 0 0 l 188 882 z "},"Ð":{"ha":935,"x_min":8,"x_max":919,"o":"m 35 507 l 122 507 l 203 882 l 576 882 q 727 865 663 882 q 834 807 792 847 q 898 701 876 767 q 919 542 919 636 q 894 343 919 440 q 808 169 868 246 q 652 47 749 93 q 414 0 556 0 l 15 0 l 100 400 l 8 400 l 35 507 m 396 97 q 477 135 442 97 q 538 233 513 174 q 581 363 564 292 q 609 501 599 435 q 624 621 619 568 q 629 696 629 674 q 612 763 629 739 q 551 788 594 788 l 485 788 l 424 507 l 528 507 l 503 400 l 401 400 l 336 97 l 396 97 z "},"Ẽ":{"ha":699,"x_min":0,"x_max":790,"o":"m 188 882 l 772 882 l 750 776 l 467 776 l 408 508 l 646 508 l 624 404 l 386 404 l 322 107 l 606 107 l 585 0 l 0 0 l 188 882 m 790 1138 q 707 1024 749 1061 q 603 986 665 986 q 544 994 578 986 q 474 1012 510 1003 q 408 1029 439 1021 q 357 1038 376 1038 q 306 1021 332 1038 q 267 989 279 1004 l 221 1029 q 308 1136 264 1100 q 411 1172 351 1172 q 466 1165 433 1172 q 533 1149 499 1158 q 599 1133 567 1140 q 651 1126 631 1126 q 698 1140 671 1126 q 742 1172 725 1153 l 790 1138 z "},"€":{"ha":818,"x_min":29,"x_max":843,"o":"m 104 596 l 211 596 q 379 815 268 735 q 665 896 490 896 q 763 888 718 896 q 843 868 808 881 l 807 779 q 752 794 786 788 q 696 800 718 800 q 637 784 664 800 q 588 740 610 768 q 548 675 565 713 q 517 596 531 638 l 688 596 l 665 492 l 489 492 q 477 426 482 458 q 469 363 472 393 l 636 363 l 614 258 l 460 258 l 460 215 q 465 149 460 174 q 481 110 471 124 q 508 91 492 96 q 549 86 525 86 q 608 91 574 86 q 676 111 642 96 q 683 98 676 110 q 697 71 690 86 q 718 32 706 54 q 624 0 674 11 q 506 -11 574 -11 q 267 52 350 -11 q 168 258 185 115 l 29 258 l 53 363 l 164 363 q 169 428 165 396 q 179 492 172 460 l 81 492 l 104 596 z "},"F":{"ha":682,"x_min":0,"x_max":772,"o":"m 188 882 l 772 882 l 750 776 l 465 776 l 411 522 l 649 522 l 626 415 l 389 415 l 300 0 l 0 0 l 188 882 z "},"G":{"ha":892,"x_min":49,"x_max":906,"o":"m 493 403 l 853 403 l 772 0 l 608 0 l 582 89 l 576 89 q 491 18 540 47 q 363 -11 442 -11 q 245 9 301 -11 q 145 73 189 29 q 75 188 101 117 q 49 358 49 258 q 82 564 49 467 q 182 735 115 661 q 349 853 249 810 q 582 896 449 896 q 761 872 685 896 q 906 819 838 849 l 853 550 l 618 550 q 622 586 619 565 q 626 630 625 607 q 629 675 628 653 q 631 714 631 697 q 629 740 631 725 q 622 768 628 754 q 606 791 617 782 q 574 800 594 800 q 508 770 538 800 q 454 691 478 740 q 413 579 431 642 q 384 452 396 517 q 366 326 372 388 q 360 218 360 264 q 361 183 360 204 q 370 142 363 163 q 392 108 378 122 q 435 93 407 93 q 524 143 481 93 q 589 310 567 193 l 472 310 l 493 403 z "},"Ğ":{"ha":892,"x_min":49,"x_max":906,"o":"m 493 403 l 853 403 l 772 0 l 608 0 l 582 89 l 576 89 q 491 18 540 47 q 363 -11 442 -11 q 245 9 301 -11 q 145 73 189 29 q 75 188 101 117 q 49 358 49 258 q 82 564 49 467 q 182 735 115 661 q 349 853 249 810 q 582 896 449 896 q 761 872 685 896 q 906 819 838 849 l 853 550 l 618 550 q 622 586 619 565 q 626 630 625 607 q 629 675 628 653 q 631 714 631 697 q 629 740 631 725 q 622 768 628 754 q 606 791 617 782 q 574 800 594 800 q 508 770 538 800 q 454 691 478 740 q 413 579 431 642 q 384 452 396 517 q 366 326 372 388 q 360 218 360 264 q 361 183 360 204 q 370 142 363 163 q 392 108 378 122 q 435 93 407 93 q 524 143 481 93 q 589 310 567 193 l 472 310 l 493 403 m 608 963 q 478 1003 526 963 q 415 1136 429 1044 l 486 1165 q 510 1120 494 1138 q 544 1093 525 1103 q 583 1080 563 1083 q 619 1076 603 1076 q 731 1107 678 1076 q 821 1186 785 1138 l 874 1139 q 754 1003 821 1043 q 608 963 688 963 z "},"Ĝ":{"ha":892,"x_min":49,"x_max":906,"o":"m 493 403 l 853 403 l 772 0 l 608 0 l 582 89 l 576 89 q 491 18 540 47 q 363 -11 442 -11 q 245 9 301 -11 q 145 73 189 29 q 75 188 101 117 q 49 358 49 258 q 82 564 49 467 q 182 735 115 661 q 349 853 249 810 q 582 896 449 896 q 761 872 685 896 q 906 819 838 849 l 853 550 l 618 550 q 622 586 619 565 q 626 630 625 607 q 629 675 628 653 q 631 714 631 697 q 629 740 631 725 q 622 768 628 754 q 606 791 617 782 q 574 800 594 800 q 508 770 538 800 q 454 691 478 740 q 413 579 431 642 q 384 452 396 517 q 366 326 372 388 q 360 218 360 264 q 361 183 360 204 q 370 142 363 163 q 392 108 378 122 q 435 93 407 93 q 524 143 481 93 q 589 310 567 193 l 472 310 l 493 403 m 338 963 l 540 1165 l 747 1165 l 863 963 l 757 963 l 642 1092 l 457 963 l 338 963 z "},"Ģ":{"ha":892,"x_min":49,"x_max":906,"o":"m 493 403 l 853 403 l 772 0 l 608 0 l 582 89 l 576 89 q 491 18 540 47 q 363 -11 442 -11 q 245 9 301 -11 q 145 73 189 29 q 75 188 101 117 q 49 358 49 258 q 82 564 49 467 q 182 735 115 661 q 349 853 249 810 q 582 896 449 896 q 761 872 685 896 q 906 819 838 849 l 853 550 l 618 550 q 622 586 619 565 q 626 630 625 607 q 629 675 628 653 q 631 714 631 697 q 629 740 631 725 q 622 768 628 754 q 606 791 617 782 q 574 800 594 800 q 508 770 538 800 q 454 691 478 740 q 413 579 431 642 q 384 452 396 517 q 366 326 372 388 q 360 218 360 264 q 361 183 360 204 q 370 142 363 163 q 392 108 378 122 q 435 93 407 93 q 524 143 481 93 q 589 310 567 193 l 472 310 l 493 403 m 521 -176 q 503 -246 521 -212 q 458 -308 486 -279 q 397 -358 431 -336 q 331 -394 364 -381 l 301 -353 q 355 -304 336 -326 q 374 -260 374 -282 q 318 -187 374 -225 q 351 -112 318 -139 q 429 -86 385 -86 q 495 -108 469 -86 q 521 -176 521 -131 z "},"Ġ":{"ha":892,"x_min":49,"x_max":906,"o":"m 493 403 l 853 403 l 772 0 l 608 0 l 582 89 l 576 89 q 491 18 540 47 q 363 -11 442 -11 q 245 9 301 -11 q 145 73 189 29 q 75 188 101 117 q 49 358 49 258 q 82 564 49 467 q 182 735 115 661 q 349 853 249 810 q 582 896 449 896 q 761 872 685 896 q 906 819 838 849 l 853 550 l 618 550 q 622 586 619 565 q 626 630 625 607 q 629 675 628 653 q 631 714 631 697 q 629 740 631 725 q 622 768 628 754 q 606 791 617 782 q 574 800 594 800 q 508 770 538 800 q 454 691 478 740 q 413 579 431 642 q 384 452 396 517 q 366 326 372 388 q 360 218 360 264 q 361 183 360 204 q 370 142 363 163 q 392 108 378 122 q 435 93 407 93 q 524 143 481 93 q 589 310 567 193 l 472 310 l 493 403 m 740 1063 q 727 1007 740 1031 q 692 967 714 983 q 643 942 671 950 q 586 933 615 933 q 493 960 531 933 q 456 1043 456 986 q 468 1098 456 1074 q 502 1138 481 1122 q 552 1163 524 1154 q 611 1171 581 1171 q 703 1144 665 1171 q 740 1063 740 1118 z "},"H":{"ha":925,"x_min":0,"x_max":961,"o":"m 771 0 l 471 0 l 554 393 l 383 393 l 300 0 l 0 0 l 188 882 l 489 882 l 407 499 l 576 499 l 658 882 l 961 882 l 771 0 z "},"Ħ":{"ha":978,"x_min":26,"x_max":1068,"o":"m 953 726 l 1068 726 l 1043 619 l 931 619 l 797 0 l 497 0 l 581 393 l 410 393 l 326 0 l 26 0 l 158 619 l 42 619 l 68 726 l 181 726 l 214 882 l 515 882 l 482 726 l 651 726 l 685 882 l 988 882 l 953 726 m 603 499 l 628 619 l 458 619 l 433 499 l 603 499 z "},"Ĥ":{"ha":925,"x_min":0,"x_max":961,"o":"m 771 0 l 471 0 l 554 393 l 383 393 l 300 0 l 0 0 l 188 882 l 489 882 l 407 499 l 576 499 l 658 882 l 961 882 l 771 0 m 324 963 l 526 1165 l 733 1165 l 849 963 l 743 963 l 628 1092 l 443 963 l 324 963 z "},"Ḥ":{"ha":925,"x_min":0,"x_max":961,"o":"m 771 0 l 471 0 l 554 393 l 383 393 l 300 0 l 0 0 l 188 882 l 489 882 l 407 499 l 576 499 l 658 882 l 961 882 l 771 0 m 453 -200 q 442 -244 453 -225 q 415 -276 432 -264 q 374 -296 397 -289 q 328 -303 351 -303 q 252 -282 283 -303 q 221 -214 221 -261 q 259 -138 221 -164 q 347 -112 297 -112 q 422 -133 392 -112 q 453 -200 453 -154 z "},"I":{"ha":453,"x_min":0,"x_max":489,"o":"m 300 0 l 0 0 l 188 882 l 489 882 l 300 0 z "},"Ĳ":{"ha":1267,"x_min":0,"x_max":1308,"o":"m 300 0 l 0 0 l 188 882 l 489 882 l 300 0 m 467 326 l 728 326 q 724 306 728 322 q 717 268 721 290 q 709 219 713 246 q 706 171 706 193 q 708 142 706 157 q 718 113 711 126 q 738 91 725 100 q 771 82 751 82 q 828 112 807 82 q 867 221 850 142 l 1007 882 l 1308 882 l 1172 244 q 1110 112 1154 163 q 1008 33 1065 61 q 885 -3 950 6 q 760 -12 819 -12 q 640 -3 690 -12 q 552 22 590 6 q 483 63 514 39 q 422 117 453 88 l 467 326 z "},"Í":{"ha":453,"x_min":0,"x_max":632,"o":"m 300 0 l 0 0 l 188 882 l 489 882 l 300 0 m 264 963 l 393 1165 l 632 1165 l 383 963 l 264 963 z "},"Ĭ":{"ha":453,"x_min":0,"x_max":624,"o":"m 300 0 l 0 0 l 188 882 l 489 882 l 300 0 m 358 963 q 228 1003 276 963 q 165 1136 179 1044 l 236 1165 q 260 1120 244 1138 q 294 1093 275 1103 q 333 1080 313 1083 q 369 1076 353 1076 q 481 1107 428 1076 q 571 1186 535 1138 l 624 1139 q 504 1003 571 1043 q 358 963 438 963 z "},"Î":{"ha":453,"x_min":0,"x_max":611,"o":"m 300 0 l 0 0 l 188 882 l 489 882 l 300 0 m 86 963 l 289 1165 l 496 1165 l 611 963 l 506 963 l 390 1092 l 206 963 l 86 963 z "},"Ï":{"ha":453,"x_min":0,"x_max":618,"o":"m 300 0 l 0 0 l 188 882 l 489 882 l 300 0 m 225 1160 q 299 1131 275 1160 q 322 1063 322 1103 q 294 983 322 1018 q 210 947 265 947 q 135 976 158 947 q 111 1044 111 1004 q 140 1124 111 1089 q 225 1160 169 1160 m 519 1160 q 594 1131 571 1160 q 618 1063 618 1103 q 589 983 618 1018 q 504 947 560 947 q 429 976 453 947 q 406 1044 406 1004 q 435 1124 406 1089 q 519 1160 464 1160 z "},"İ":{"ha":453,"x_min":0,"x_max":489,"o":"m 300 0 l 0 0 l 188 882 l 489 882 l 300 0 m 489 1063 q 476 1007 489 1031 q 441 967 463 983 q 392 942 419 950 q 335 933 364 933 q 242 960 279 933 q 204 1043 204 986 q 217 1098 204 1074 q 251 1138 229 1122 q 301 1163 272 1154 q 360 1171 329 1171 q 451 1144 414 1171 q 489 1063 489 1118 z "},"Ị":{"ha":453,"x_min":-6,"x_max":489,"o":"m 300 0 l 0 0 l 188 882 l 489 882 l 300 0 m 226 -200 q 216 -244 226 -225 q 188 -276 206 -264 q 148 -296 171 -289 q 101 -303 125 -303 q 26 -282 57 -303 q -6 -214 -6 -261 q 33 -138 -6 -164 q 121 -112 71 -112 q 196 -133 165 -112 q 226 -200 226 -154 z "},"Ì":{"ha":453,"x_min":0,"x_max":489,"o":"m 300 0 l 0 0 l 188 882 l 489 882 l 300 0 m 26 1165 l 267 1165 l 413 963 l 283 963 l 26 1165 z "},"Ī":{"ha":453,"x_min":0,"x_max":636,"o":"m 300 0 l 0 0 l 188 882 l 489 882 l 300 0 m 143 1121 l 636 1121 l 611 1014 l 117 1014 l 143 1121 z "},"Į":{"ha":453,"x_min":-67,"x_max":489,"o":"m 300 0 l 219 0 q 181 -27 200 -12 q 147 -59 163 -42 q 121 -97 131 -76 q 111 -139 111 -117 q 124 -179 111 -167 q 154 -192 136 -192 q 184 -184 167 -192 q 226 -156 201 -176 l 258 -214 q 161 -266 217 -249 q 53 -283 106 -283 q -67 -181 -67 -283 q -53 -117 -67 -146 q -17 -67 -39 -89 q 33 -28 6 -44 q 88 0 60 -11 l 0 0 l 188 882 l 489 882 l 300 0 z "},"Ĩ":{"ha":453,"x_min":0,"x_max":679,"o":"m 300 0 l 0 0 l 188 882 l 489 882 l 300 0 m 679 1138 q 596 1024 638 1061 q 492 986 554 986 q 433 994 467 986 q 363 1012 399 1003 q 297 1029 328 1021 q 246 1038 265 1038 q 194 1021 221 1038 q 156 989 168 1004 l 110 1029 q 197 1136 153 1100 q 300 1172 240 1172 q 355 1165 322 1172 q 422 1149 388 1158 q 488 1133 456 1140 q 540 1126 519 1126 q 587 1140 560 1126 q 631 1172 614 1153 l 679 1138 z "},"J":{"ha":819,"x_min":-25,"x_max":861,"o":"m 19 326 l 281 326 q 277 306 281 322 q 269 268 274 290 q 262 219 265 246 q 258 171 258 193 q 261 142 258 157 q 271 113 264 126 q 291 91 278 100 q 324 82 304 82 q 381 112 360 82 q 419 221 403 142 l 560 882 l 861 882 l 725 244 q 663 112 707 163 q 560 33 618 61 q 438 -3 503 6 q 313 -12 372 -12 q 193 -3 243 -12 q 105 22 143 6 q 36 63 67 39 q -25 117 6 88 l 19 326 z "},"Ĵ":{"ha":819,"x_min":-25,"x_max":981,"o":"m 19 326 l 281 326 q 277 306 281 322 q 269 268 274 290 q 262 219 265 246 q 258 171 258 193 q 261 142 258 157 q 271 113 264 126 q 291 91 278 100 q 324 82 304 82 q 381 112 360 82 q 419 221 403 142 l 560 882 l 861 882 l 725 244 q 663 112 707 163 q 560 33 618 61 q 438 -3 503 6 q 313 -12 372 -12 q 193 -3 243 -12 q 105 22 143 6 q 36 63 67 39 q -25 117 6 88 l 19 326 m 456 963 l 658 1165 l 865 1165 l 981 963 l 875 963 l 760 1092 l 575 963 l 456 963 z "},"K":{"ha":844,"x_min":0,"x_max":907,"o":"m 407 499 l 750 883 l 907 883 l 596 546 l 807 0 l 504 0 l 382 388 l 300 0 l 0 0 l 188 882 l 489 882 l 407 499 z "},"Ķ":{"ha":844,"x_min":0,"x_max":907,"o":"m 407 499 l 750 883 l 907 883 l 596 546 l 807 0 l 504 0 l 382 388 l 300 0 l 0 0 l 188 882 l 489 882 l 407 499 m 463 -176 q 445 -246 463 -212 q 400 -308 428 -279 q 339 -358 372 -336 q 272 -394 306 -381 l 243 -353 q 297 -304 278 -326 q 315 -260 315 -282 q 260 -187 315 -225 q 293 -112 260 -139 q 371 -86 326 -86 q 437 -108 411 -86 q 463 -176 463 -131 z "},"L":{"ha":669,"x_min":0,"x_max":607,"o":"m 188 882 l 489 882 l 325 117 l 607 117 l 583 0 l 0 0 l 188 882 z "},"Ĺ":{"ha":669,"x_min":0,"x_max":658,"o":"m 188 882 l 489 882 l 325 117 l 607 117 l 583 0 l 0 0 l 188 882 m 290 963 l 419 1165 l 658 1165 l 410 963 l 290 963 z "},"Ľ":{"ha":669,"x_min":0,"x_max":674,"o":"m 188 882 l 489 882 l 325 117 l 607 117 l 583 0 l 0 0 l 188 882 m 674 1165 l 471 963 l 264 963 l 149 1165 l 256 1165 l 371 1038 l 554 1165 l 674 1165 z "},"Ļ":{"ha":669,"x_min":0,"x_max":607,"o":"m 188 882 l 489 882 l 325 117 l 607 117 l 583 0 l 0 0 l 188 882 m 367 -176 q 349 -246 367 -212 q 304 -308 332 -279 q 243 -358 276 -336 q 176 -394 210 -381 l 147 -353 q 201 -304 182 -326 q 219 -260 219 -282 q 164 -187 219 -225 q 197 -112 164 -139 q 275 -86 231 -86 q 341 -108 315 -86 q 367 -176 367 -131 z "},"Ŀ":{"ha":701,"x_min":0,"x_max":717,"o":"m 188 882 l 489 882 l 325 117 l 607 117 l 583 0 l 0 0 l 188 882 m 717 432 q 703 376 717 400 q 669 336 690 353 q 619 311 647 319 q 563 303 592 303 q 469 329 507 303 q 432 413 432 356 q 444 467 432 443 q 478 508 457 492 q 528 532 500 524 q 588 540 557 540 q 679 514 642 540 q 717 432 717 488 z "},"Ł":{"ha":714,"x_min":-11,"x_max":653,"o":"m 11 469 l 151 494 l 233 882 l 535 882 l 464 551 l 601 576 l 572 442 l 435 417 l 371 117 l 653 117 l 629 0 l 46 0 l 122 361 l -11 338 l 11 469 z "},"M":{"ha":1172,"x_min":0,"x_max":1208,"o":"m 1019 0 l 711 0 l 839 600 l 510 0 l 321 0 l 258 621 l 125 0 l 0 0 l 188 882 l 542 882 l 585 385 l 851 882 l 1208 882 l 1019 0 z "},"N":{"ha":894,"x_min":0,"x_max":931,"o":"m 740 0 l 415 0 l 261 638 l 125 0 l 0 0 l 188 882 l 519 882 l 665 236 l 803 882 l 931 882 l 740 0 z "},"Ń":{"ha":894,"x_min":0,"x_max":931,"o":"m 740 0 l 415 0 l 261 638 l 125 0 l 0 0 l 188 882 l 519 882 l 665 236 l 803 882 l 931 882 l 740 0 m 508 963 l 638 1165 l 876 1165 l 628 963 l 508 963 z "},"Ň":{"ha":894,"x_min":0,"x_max":931,"o":"m 740 0 l 415 0 l 261 638 l 125 0 l 0 0 l 188 882 l 519 882 l 665 236 l 803 882 l 931 882 l 740 0 m 856 1165 l 653 963 l 446 963 l 331 1165 l 438 1165 l 553 1038 l 736 1165 l 856 1165 z "},"Ņ":{"ha":894,"x_min":0,"x_max":931,"o":"m 740 0 l 415 0 l 261 638 l 125 0 l 0 0 l 188 882 l 519 882 l 665 236 l 803 882 l 931 882 l 740 0 m 464 -176 q 447 -246 464 -212 q 401 -308 429 -279 q 340 -358 374 -336 q 274 -394 307 -381 l 244 -353 q 298 -304 279 -326 q 317 -260 317 -282 q 261 -187 317 -225 q 294 -112 261 -139 q 372 -86 328 -86 q 438 -108 413 -86 q 464 -176 464 -131 z "},"Ṅ":{"ha":894,"x_min":0,"x_max":931,"o":"m 740 0 l 415 0 l 261 638 l 125 0 l 0 0 l 188 882 l 519 882 l 665 236 l 803 882 l 931 882 l 740 0 m 751 1063 q 738 1007 751 1031 q 703 967 725 983 q 654 942 682 950 q 597 933 626 933 q 504 960 542 933 q 467 1043 467 986 q 479 1098 467 1074 q 513 1138 492 1122 q 563 1163 535 1154 q 622 1171 592 1171 q 714 1144 676 1171 q 751 1063 751 1118 z "},"Ñ":{"ha":894,"x_min":0,"x_max":931,"o":"m 740 0 l 415 0 l 261 638 l 125 0 l 0 0 l 188 882 l 519 882 l 665 236 l 803 882 l 931 882 l 740 0 m 894 1138 q 811 1024 853 1061 q 707 986 769 986 q 648 994 682 986 q 578 1012 614 1003 q 512 1029 543 1021 q 461 1038 481 1038 q 410 1021 436 1038 q 371 989 383 1004 l 325 1029 q 412 1136 368 1100 q 515 1172 456 1172 q 570 1165 538 1172 q 637 1149 603 1158 q 703 1133 671 1140 q 756 1126 735 1126 q 802 1140 775 1126 q 846 1172 829 1153 l 894 1138 z "},"O":{"ha":951,"x_min":49,"x_max":940,"o":"m 571 896 q 765 865 690 896 q 882 771 839 835 q 925 674 910 728 q 940 549 940 619 q 929 426 940 488 q 898 309 918 365 q 849 203 878 253 q 786 117 821 154 q 635 17 721 46 q 425 -11 550 -11 q 231 14 304 -11 q 114 94 157 39 q 66 193 83 133 q 49 343 49 253 q 103 619 49 497 q 260 811 158 740 q 396 875 321 854 q 571 896 471 896 m 414 86 q 474 115 446 86 q 527 191 503 143 q 572 300 551 239 q 606 426 592 361 q 627 556 619 492 q 635 674 635 621 q 620 773 635 746 q 578 800 606 800 q 517 772 546 800 q 462 698 488 744 q 416 591 436 651 q 381 467 396 531 q 359 340 367 403 q 351 225 351 278 q 369 116 351 146 q 414 86 386 86 z "},"Œ":{"ha":1214,"x_min":47,"x_max":1288,"o":"m 572 889 q 649 888 617 889 q 706 882 681 888 l 1288 882 l 1265 776 l 982 776 l 924 508 l 1161 508 l 1139 404 l 901 404 l 838 107 l 1121 107 l 1100 0 l 564 0 q 497 -8 532 -6 q 422 -11 461 -11 q 229 14 303 -11 q 113 94 156 39 q 47 340 47 176 q 102 610 47 489 q 257 801 157 732 q 396 867 319 844 q 572 889 472 889 m 413 86 q 473 115 444 86 q 526 190 501 143 q 570 299 550 238 q 604 424 590 360 q 626 551 618 488 q 633 667 633 614 q 619 765 633 738 q 576 792 604 792 q 515 764 544 792 q 460 690 486 736 q 415 585 435 644 q 380 462 394 525 q 358 337 365 399 q 350 224 350 275 q 367 116 350 146 q 413 86 385 86 z "},"Ó":{"ha":951,"x_min":49,"x_max":940,"o":"m 571 896 q 765 865 690 896 q 882 771 839 835 q 925 674 910 728 q 940 549 940 619 q 929 426 940 488 q 898 309 918 365 q 849 203 878 253 q 786 117 821 154 q 635 17 721 46 q 425 -11 550 -11 q 231 14 304 -11 q 114 94 157 39 q 66 193 83 133 q 49 343 49 253 q 103 619 49 497 q 260 811 158 740 q 396 875 321 854 q 571 896 471 896 m 414 86 q 474 115 446 86 q 527 191 503 143 q 572 300 551 239 q 606 426 592 361 q 627 556 619 492 q 635 674 635 621 q 620 773 635 746 q 578 800 606 800 q 517 772 546 800 q 462 698 488 744 q 416 591 436 651 q 381 467 396 531 q 359 340 367 403 q 351 225 351 278 q 369 116 351 146 q 414 86 386 86 m 536 963 l 665 1165 l 904 1165 l 656 963 l 536 963 z "},"Ŏ":{"ha":951,"x_min":49,"x_max":940,"o":"m 571 896 q 765 865 690 896 q 882 771 839 835 q 925 674 910 728 q 940 549 940 619 q 929 426 940 488 q 898 309 918 365 q 849 203 878 253 q 786 117 821 154 q 635 17 721 46 q 425 -11 550 -11 q 231 14 304 -11 q 114 94 157 39 q 66 193 83 133 q 49 343 49 253 q 103 619 49 497 q 260 811 158 740 q 396 875 321 854 q 571 896 471 896 m 414 86 q 474 115 446 86 q 527 191 503 143 q 572 300 551 239 q 606 426 592 361 q 627 556 619 492 q 635 674 635 621 q 620 773 635 746 q 578 800 606 800 q 517 772 546 800 q 462 698 488 744 q 416 591 436 651 q 381 467 396 531 q 359 340 367 403 q 351 225 351 278 q 369 116 351 146 q 414 86 386 86 m 603 963 q 472 1003 521 963 q 410 1136 424 1044 l 481 1165 q 504 1120 489 1138 q 538 1093 519 1103 q 577 1080 557 1083 q 614 1076 597 1076 q 726 1107 672 1076 q 815 1186 779 1138 l 868 1139 q 749 1003 815 1043 q 603 963 682 963 z "},"Ô":{"ha":951,"x_min":49,"x_max":940,"o":"m 571 896 q 765 865 690 896 q 882 771 839 835 q 925 674 910 728 q 940 549 940 619 q 929 426 940 488 q 898 309 918 365 q 849 203 878 253 q 786 117 821 154 q 635 17 721 46 q 425 -11 550 -11 q 231 14 304 -11 q 114 94 157 39 q 66 193 83 133 q 49 343 49 253 q 103 619 49 497 q 260 811 158 740 q 396 875 321 854 q 571 896 471 896 m 414 86 q 474 115 446 86 q 527 191 503 143 q 572 300 551 239 q 606 426 592 361 q 627 556 619 492 q 635 674 635 621 q 620 773 635 746 q 578 800 606 800 q 517 772 546 800 q 462 698 488 744 q 416 591 436 651 q 381 467 396 531 q 359 340 367 403 q 351 225 351 278 q 369 116 351 146 q 414 86 386 86 m 358 963 l 561 1165 l 768 1165 l 883 963 l 778 963 l 663 1092 l 478 963 l 358 963 z "},"Ö":{"ha":951,"x_min":49,"x_max":940,"o":"m 571 896 q 765 865 690 896 q 882 771 839 835 q 925 674 910 728 q 940 549 940 619 q 929 426 940 488 q 898 309 918 365 q 849 203 878 253 q 786 117 821 154 q 635 17 721 46 q 425 -11 550 -11 q 231 14 304 -11 q 114 94 157 39 q 66 193 83 133 q 49 343 49 253 q 103 619 49 497 q 260 811 158 740 q 396 875 321 854 q 571 896 471 896 m 414 86 q 474 115 446 86 q 527 191 503 143 q 572 300 551 239 q 606 426 592 361 q 627 556 619 492 q 635 674 635 621 q 620 773 635 746 q 578 800 606 800 q 517 772 546 800 q 462 698 488 744 q 416 591 436 651 q 381 467 396 531 q 359 340 367 403 q 351 225 351 278 q 369 116 351 146 q 414 86 386 86 m 476 1160 q 550 1131 526 1160 q 574 1063 574 1103 q 545 983 574 1018 q 461 947 517 947 q 386 976 410 947 q 363 1044 363 1004 q 392 1124 363 1089 q 476 1160 421 1160 m 771 1160 q 846 1131 822 1160 q 869 1063 869 1103 q 840 983 869 1018 q 756 947 811 947 q 681 976 704 947 q 657 1044 657 1004 q 686 1124 657 1089 q 771 1160 715 1160 z "},"Ọ":{"ha":951,"x_min":49,"x_max":940,"o":"m 571 896 q 765 865 690 896 q 882 771 839 835 q 925 674 910 728 q 940 549 940 619 q 929 426 940 488 q 898 309 918 365 q 849 203 878 253 q 786 117 821 154 q 635 17 721 46 q 425 -11 550 -11 q 231 14 304 -11 q 114 94 157 39 q 66 193 83 133 q 49 343 49 253 q 103 619 49 497 q 260 811 158 740 q 396 875 321 854 q 571 896 471 896 m 414 86 q 474 115 446 86 q 527 191 503 143 q 572 300 551 239 q 606 426 592 361 q 627 556 619 492 q 635 674 635 621 q 620 773 635 746 q 578 800 606 800 q 517 772 546 800 q 462 698 488 744 q 416 591 436 651 q 381 467 396 531 q 359 340 367 403 q 351 225 351 278 q 369 116 351 146 q 414 86 386 86 m 472 -200 q 462 -244 472 -225 q 434 -276 451 -264 q 394 -296 417 -289 q 347 -303 371 -303 q 272 -282 303 -303 q 240 -214 240 -261 q 278 -138 240 -164 q 367 -112 317 -112 q 442 -133 411 -112 q 472 -200 472 -154 z "},"Ò":{"ha":951,"x_min":49,"x_max":940,"o":"m 571 896 q 765 865 690 896 q 882 771 839 835 q 925 674 910 728 q 940 549 940 619 q 929 426 940 488 q 898 309 918 365 q 849 203 878 253 q 786 117 821 154 q 635 17 721 46 q 425 -11 550 -11 q 231 14 304 -11 q 114 94 157 39 q 66 193 83 133 q 49 343 49 253 q 103 619 49 497 q 260 811 158 740 q 396 875 321 854 q 571 896 471 896 m 414 86 q 474 115 446 86 q 527 191 503 143 q 572 300 551 239 q 606 426 592 361 q 627 556 619 492 q 635 674 635 621 q 620 773 635 746 q 578 800 606 800 q 517 772 546 800 q 462 698 488 744 q 416 591 436 651 q 381 467 396 531 q 359 340 367 403 q 351 225 351 278 q 369 116 351 146 q 414 86 386 86 m 299 1165 l 539 1165 l 685 963 l 556 963 l 299 1165 z "},"Ő":{"ha":951,"x_min":49,"x_max":1093,"o":"m 571 896 q 765 865 690 896 q 882 771 839 835 q 925 674 910 728 q 940 549 940 619 q 929 426 940 488 q 898 309 918 365 q 849 203 878 253 q 786 117 821 154 q 635 17 721 46 q 425 -11 550 -11 q 231 14 304 -11 q 114 94 157 39 q 66 193 83 133 q 49 343 49 253 q 103 619 49 497 q 260 811 158 740 q 396 875 321 854 q 571 896 471 896 m 414 86 q 474 115 446 86 q 527 191 503 143 q 572 300 551 239 q 606 426 592 361 q 627 556 619 492 q 635 674 635 621 q 620 773 635 746 q 578 800 606 800 q 517 772 546 800 q 462 698 488 744 q 416 591 436 651 q 381 467 396 531 q 359 340 367 403 q 351 225 351 278 q 369 116 351 146 q 414 86 386 86 m 374 963 l 531 1165 l 769 1165 l 493 963 l 374 963 m 697 963 l 854 1165 l 1093 1165 l 817 963 l 697 963 z "},"Ō":{"ha":951,"x_min":49,"x_max":940,"o":"m 571 896 q 765 865 690 896 q 882 771 839 835 q 925 674 910 728 q 940 549 940 619 q 929 426 940 488 q 898 309 918 365 q 849 203 878 253 q 786 117 821 154 q 635 17 721 46 q 425 -11 550 -11 q 231 14 304 -11 q 114 94 157 39 q 66 193 83 133 q 49 343 49 253 q 103 619 49 497 q 260 811 158 740 q 396 875 321 854 q 571 896 471 896 m 414 86 q 474 115 446 86 q 527 191 503 143 q 572 300 551 239 q 606 426 592 361 q 627 556 619 492 q 635 674 635 621 q 620 773 635 746 q 578 800 606 800 q 517 772 546 800 q 462 698 488 744 q 416 591 436 651 q 381 467 396 531 q 359 340 367 403 q 351 225 351 278 q 369 116 351 146 q 414 86 386 86 m 388 1121 l 881 1121 l 856 1014 l 361 1014 l 388 1121 z "},"Ǫ":{"ha":951,"x_min":49,"x_max":940,"o":"m 571 896 q 765 865 690 896 q 882 771 839 835 q 925 674 910 728 q 940 549 940 619 q 929 426 940 488 q 898 309 918 365 q 849 203 878 253 q 786 117 821 154 q 641 19 724 47 q 442 -11 558 -10 q 378 -67 407 -35 q 350 -139 350 -99 q 363 -179 350 -167 q 393 -192 375 -192 q 423 -184 406 -192 q 465 -156 440 -176 l 497 -214 q 400 -266 456 -249 q 292 -283 344 -283 q 172 -181 172 -283 q 185 -119 172 -147 q 218 -70 197 -92 q 265 -33 239 -49 q 317 -4 290 -17 q 194 28 243 4 q 114 94 146 53 q 66 193 83 133 q 49 343 49 253 q 103 619 49 497 q 260 811 158 740 q 396 875 321 854 q 571 896 471 896 m 414 86 q 474 115 446 86 q 527 191 503 143 q 572 300 551 239 q 606 426 592 361 q 627 556 619 492 q 635 674 635 621 q 620 773 635 746 q 578 800 606 800 q 517 772 546 800 q 462 698 488 744 q 416 591 436 651 q 381 467 396 531 q 359 340 367 403 q 351 225 351 278 q 369 116 351 146 q 414 86 386 86 z "},"Ø":{"ha":951,"x_min":49,"x_max":940,"o":"m 571 896 q 792 853 710 896 l 844 913 l 910 857 l 860 799 q 920 693 900 758 q 940 549 940 628 q 929 426 940 488 q 898 309 918 365 q 849 203 878 253 q 786 117 821 154 q 635 17 721 46 q 425 -11 550 -11 q 194 28 276 -11 l 140 -35 l 61 26 l 117 89 l 114 94 q 66 193 83 133 q 49 343 49 253 q 82 567 49 465 q 181 742 115 669 q 345 856 247 815 q 571 896 443 896 m 414 86 q 485 126 451 86 q 545 228 518 165 q 592 369 572 292 q 622 524 611 447 l 351 210 q 369 113 353 139 q 414 86 386 86 m 578 800 q 505 760 539 800 q 442 658 471 721 q 394 519 414 596 q 363 367 374 442 l 635 675 q 620 773 635 746 q 578 800 606 800 z "},"Ǿ":{"ha":951,"x_min":49,"x_max":940,"o":"m 522 963 l 651 1165 l 890 1165 l 642 963 l 522 963 m 571 896 q 792 853 710 896 l 844 913 l 910 857 l 860 799 q 920 693 900 758 q 940 549 940 628 q 929 426 940 488 q 898 309 918 365 q 849 203 878 253 q 786 117 821 154 q 635 17 721 46 q 425 -11 550 -11 q 194 28 276 -11 l 140 -35 l 61 26 l 117 89 l 114 94 q 66 193 83 133 q 49 343 49 253 q 82 567 49 465 q 181 742 115 669 q 345 856 247 815 q 571 896 443 896 m 414 86 q 485 126 451 86 q 545 228 518 165 q 592 369 572 292 q 622 524 611 447 l 351 210 q 369 113 353 139 q 414 86 386 86 m 578 800 q 505 760 539 800 q 442 658 471 721 q 394 519 414 596 q 363 367 374 442 l 635 675 q 620 773 635 746 q 578 800 606 800 z "},"Õ":{"ha":951,"x_min":49,"x_max":940,"o":"m 571 896 q 765 865 690 896 q 882 771 839 835 q 925 674 910 728 q 940 549 940 619 q 929 426 940 488 q 898 309 918 365 q 849 203 878 253 q 786 117 821 154 q 635 17 721 46 q 425 -11 550 -11 q 231 14 304 -11 q 114 94 157 39 q 66 193 83 133 q 49 343 49 253 q 103 619 49 497 q 260 811 158 740 q 396 875 321 854 q 571 896 471 896 m 414 86 q 474 115 446 86 q 527 191 503 143 q 572 300 551 239 q 606 426 592 361 q 627 556 619 492 q 635 674 635 621 q 620 773 635 746 q 578 800 606 800 q 517 772 546 800 q 462 698 488 744 q 416 591 436 651 q 381 467 396 531 q 359 340 367 403 q 351 225 351 278 q 369 116 351 146 q 414 86 386 86 m 913 1138 q 829 1024 871 1061 q 725 986 788 986 q 666 994 700 986 q 597 1012 632 1003 q 530 1029 561 1021 q 479 1038 499 1038 q 428 1021 454 1038 q 389 989 401 1004 l 343 1029 q 430 1136 386 1100 q 533 1172 474 1172 q 588 1165 556 1172 q 655 1149 621 1158 q 721 1133 689 1140 q 774 1126 753 1126 q 820 1140 793 1126 q 864 1172 847 1153 l 913 1138 z "},"P":{"ha":833,"x_min":0,"x_max":865,"o":"m 446 381 q 516 415 488 381 q 563 500 544 450 q 590 604 582 550 q 599 699 599 658 q 586 762 599 736 q 532 788 574 788 l 469 788 l 382 381 l 446 381 m 363 292 l 300 0 l 0 0 l 188 882 l 508 882 q 653 874 588 882 q 765 840 718 865 q 839 769 813 815 q 865 644 865 722 q 842 508 865 572 q 769 395 819 443 q 638 319 718 347 q 442 292 557 292 l 363 292 z "},"Q":{"ha":951,"x_min":49,"x_max":940,"o":"m 571 896 q 765 865 690 896 q 882 771 839 835 q 925 674 910 728 q 940 549 940 619 q 929 426 940 488 q 898 309 918 365 q 849 203 878 253 q 786 117 821 154 q 574 0 703 25 q 657 -59 610 -36 q 754 -93 704 -82 q 643 -175 692 -139 q 602 -205 622 -190 q 567 -231 582 -219 q 541 -249 551 -243 q 531 -256 531 -256 q 453 -194 486 -228 q 398 -127 421 -161 q 360 -62 375 -93 q 338 -7 346 -31 q 202 25 256 0 q 114 94 149 50 q 66 193 83 133 q 49 343 49 253 q 103 619 49 497 q 260 811 158 740 q 396 875 321 854 q 571 896 471 896 m 414 86 q 474 115 446 86 q 527 191 503 143 q 572 300 551 239 q 606 426 592 361 q 627 556 619 492 q 635 674 635 621 q 620 773 635 746 q 578 800 606 800 q 517 772 546 800 q 462 698 488 744 q 416 591 436 651 q 381 467 396 531 q 359 340 367 403 q 351 225 351 278 q 369 116 351 146 q 414 86 386 86 z "},"R":{"ha":879,"x_min":0,"x_max":865,"o":"m 865 672 q 819 521 865 590 q 668 415 774 451 l 829 0 l 519 0 l 397 385 l 382 385 l 300 0 l 0 0 l 188 882 l 553 882 q 674 874 617 882 q 773 844 731 867 q 840 780 815 821 q 865 672 865 739 m 465 474 q 527 498 501 474 q 569 557 553 522 q 592 631 585 592 q 599 700 599 671 q 586 762 599 736 q 532 788 574 788 l 469 788 l 400 474 l 465 474 z "},"Ŕ":{"ha":879,"x_min":0,"x_max":865,"o":"m 865 672 q 819 521 865 590 q 668 415 774 451 l 829 0 l 519 0 l 397 385 l 382 385 l 300 0 l 0 0 l 188 882 l 553 882 q 674 874 617 882 q 773 844 731 867 q 840 780 815 821 q 865 672 865 739 m 465 474 q 527 498 501 474 q 569 557 553 522 q 592 631 585 592 q 599 700 599 671 q 586 762 599 736 q 532 788 574 788 l 469 788 l 400 474 l 465 474 m 449 963 l 578 1165 l 817 1165 l 568 963 l 449 963 z "},"Ř":{"ha":879,"x_min":0,"x_max":865,"o":"m 865 672 q 819 521 865 590 q 668 415 774 451 l 829 0 l 519 0 l 397 385 l 382 385 l 300 0 l 0 0 l 188 882 l 553 882 q 674 874 617 882 q 773 844 731 867 q 840 780 815 821 q 865 672 865 739 m 465 474 q 527 498 501 474 q 569 557 553 522 q 592 631 585 592 q 599 700 599 671 q 586 762 599 736 q 532 788 574 788 l 469 788 l 400 474 l 465 474 m 829 1165 l 626 963 l 419 963 l 304 1165 l 411 1165 l 526 1038 l 710 1165 l 829 1165 z "},"Ŗ":{"ha":879,"x_min":0,"x_max":865,"o":"m 865 672 q 819 521 865 590 q 668 415 774 451 l 829 0 l 519 0 l 397 385 l 382 385 l 300 0 l 0 0 l 188 882 l 553 882 q 674 874 617 882 q 773 844 731 867 q 840 780 815 821 q 865 672 865 739 m 465 474 q 527 498 501 474 q 569 557 553 522 q 592 631 585 592 q 599 700 599 671 q 586 762 599 736 q 532 788 574 788 l 469 788 l 400 474 l 465 474 m 474 -176 q 456 -246 474 -212 q 411 -308 439 -279 q 350 -358 383 -336 q 283 -394 317 -381 l 254 -353 q 308 -304 289 -326 q 326 -260 326 -282 q 271 -187 326 -225 q 304 -112 271 -139 q 382 -86 338 -86 q 448 -108 422 -86 q 474 -176 474 -131 z "},"Ṛ":{"ha":879,"x_min":0,"x_max":865,"o":"m 865 672 q 819 521 865 590 q 668 415 774 451 l 829 0 l 519 0 l 397 385 l 382 385 l 300 0 l 0 0 l 188 882 l 553 882 q 674 874 617 882 q 773 844 731 867 q 840 780 815 821 q 865 672 865 739 m 465 474 q 527 498 501 474 q 569 557 553 522 q 592 631 585 592 q 599 700 599 671 q 586 762 599 736 q 532 788 574 788 l 469 788 l 400 474 l 465 474 m 488 -200 q 477 -244 488 -225 q 449 -276 467 -264 q 409 -296 432 -289 q 363 -303 386 -303 q 287 -282 318 -303 q 256 -214 256 -261 q 294 -138 256 -164 q 382 -112 332 -112 q 457 -133 426 -112 q 488 -200 488 -154 z "},"S":{"ha":815,"x_min":-10,"x_max":829,"o":"m 547 626 q 551 683 551 647 q 549 724 551 704 q 539 760 546 744 q 518 785 532 776 q 482 794 504 794 q 436 783 457 794 q 399 755 415 772 q 374 715 383 738 q 365 667 365 692 q 384 611 365 631 q 433 579 403 592 q 503 558 464 567 q 583 539 542 550 q 653 514 618 529 q 715 473 688 499 q 758 406 742 447 q 775 304 775 365 q 740 157 775 217 q 644 60 706 97 q 499 6 583 22 q 317 -11 415 -11 q 153 2 217 -11 q 54 31 90 15 q -10 72 11 49 l 38 263 l 282 263 q 279 228 281 250 q 278 194 278 207 q 282 160 278 178 q 295 126 286 142 q 321 101 304 111 q 363 92 338 92 q 412 104 390 92 q 448 135 433 117 q 470 177 463 154 q 478 222 478 200 q 463 274 478 253 q 424 309 449 294 q 366 334 399 324 q 299 356 333 344 q 228 379 265 365 q 161 418 192 393 q 110 481 131 443 q 90 579 90 519 q 135 728 90 668 q 249 826 181 789 q 400 880 318 864 q 556 896 482 896 q 723 873 653 896 q 829 819 793 850 l 778 626 l 547 626 z "},"Ś":{"ha":815,"x_min":-10,"x_max":868,"o":"m 547 626 q 551 683 551 647 q 549 724 551 704 q 539 760 546 744 q 518 785 532 776 q 482 794 504 794 q 436 783 457 794 q 399 755 415 772 q 374 715 383 738 q 365 667 365 692 q 384 611 365 631 q 433 579 403 592 q 503 558 464 567 q 583 539 542 550 q 653 514 618 529 q 715 473 688 499 q 758 406 742 447 q 775 304 775 365 q 740 157 775 217 q 644 60 706 97 q 499 6 583 22 q 317 -11 415 -11 q 153 2 217 -11 q 54 31 90 15 q -10 72 11 49 l 38 263 l 282 263 q 279 228 281 250 q 278 194 278 207 q 282 160 278 178 q 295 126 286 142 q 321 101 304 111 q 363 92 338 92 q 412 104 390 92 q 448 135 433 117 q 470 177 463 154 q 478 222 478 200 q 463 274 478 253 q 424 309 449 294 q 366 334 399 324 q 299 356 333 344 q 228 379 265 365 q 161 418 192 393 q 110 481 131 443 q 90 579 90 519 q 135 728 90 668 q 249 826 181 789 q 400 880 318 864 q 556 896 482 896 q 723 873 653 896 q 829 819 793 850 l 778 626 l 547 626 m 500 963 l 629 1165 l 868 1165 l 619 963 l 500 963 z "},"Š":{"ha":815,"x_min":-10,"x_max":847,"o":"m 547 626 q 551 683 551 647 q 549 724 551 704 q 539 760 546 744 q 518 785 532 776 q 482 794 504 794 q 436 783 457 794 q 399 755 415 772 q 374 715 383 738 q 365 667 365 692 q 384 611 365 631 q 433 579 403 592 q 503 558 464 567 q 583 539 542 550 q 653 514 618 529 q 715 473 688 499 q 758 406 742 447 q 775 304 775 365 q 740 157 775 217 q 644 60 706 97 q 499 6 583 22 q 317 -11 415 -11 q 153 2 217 -11 q 54 31 90 15 q -10 72 11 49 l 38 263 l 282 263 q 279 228 281 250 q 278 194 278 207 q 282 160 278 178 q 295 126 286 142 q 321 101 304 111 q 363 92 338 92 q 412 104 390 92 q 448 135 433 117 q 470 177 463 154 q 478 222 478 200 q 463 274 478 253 q 424 309 449 294 q 366 334 399 324 q 299 356 333 344 q 228 379 265 365 q 161 418 192 393 q 110 481 131 443 q 90 579 90 519 q 135 728 90 668 q 249 826 181 789 q 400 880 318 864 q 556 896 482 896 q 723 873 653 896 q 829 819 793 850 l 778 626 l 547 626 m 847 1165 l 644 963 l 438 963 l 322 1165 l 429 1165 l 544 1038 l 728 1165 l 847 1165 z "},"Ə":{"ha":897,"x_min":19,"x_max":882,"o":"m 19 246 q 23 304 19 274 q 33 365 26 335 q 51 423 40 394 q 74 474 61 451 l 564 474 q 576 580 572 529 q 581 671 581 631 q 579 712 581 689 q 572 754 578 735 q 556 787 567 774 q 526 800 544 800 q 483 784 507 800 q 435 739 458 768 q 391 670 411 710 q 360 583 371 631 l 118 583 l 164 800 q 313 874 231 851 q 507 896 394 896 q 666 881 596 896 q 784 825 736 865 q 857 715 832 785 q 882 538 882 646 q 857 338 882 436 q 772 163 832 240 q 610 37 711 85 q 356 -11 508 -11 q 105 50 190 -11 q 19 246 19 111 m 306 203 q 326 110 306 133 q 372 86 346 86 q 431 110 404 86 q 480 176 458 135 q 518 269 501 217 q 547 381 535 322 l 319 381 q 313 315 315 347 q 308 257 310 288 q 306 203 306 226 z "},"Ŝ":{"ha":815,"x_min":-10,"x_max":847,"o":"m 547 626 q 551 683 551 647 q 549 724 551 704 q 539 760 546 744 q 518 785 532 776 q 482 794 504 794 q 436 783 457 794 q 399 755 415 772 q 374 715 383 738 q 365 667 365 692 q 384 611 365 631 q 433 579 403 592 q 503 558 464 567 q 583 539 542 550 q 653 514 618 529 q 715 473 688 499 q 758 406 742 447 q 775 304 775 365 q 740 157 775 217 q 644 60 706 97 q 499 6 583 22 q 317 -11 415 -11 q 153 2 217 -11 q 54 31 90 15 q -10 72 11 49 l 38 263 l 282 263 q 279 228 281 250 q 278 194 278 207 q 282 160 278 178 q 295 126 286 142 q 321 101 304 111 q 363 92 338 92 q 412 104 390 92 q 448 135 433 117 q 470 177 463 154 q 478 222 478 200 q 463 274 478 253 q 424 309 449 294 q 366 334 399 324 q 299 356 333 344 q 228 379 265 365 q 161 418 192 393 q 110 481 131 443 q 90 579 90 519 q 135 728 90 668 q 249 826 181 789 q 400 880 318 864 q 556 896 482 896 q 723 873 653 896 q 829 819 793 850 l 778 626 l 547 626 m 322 963 l 525 1165 l 732 1165 l 847 963 l 742 963 l 626 1092 l 442 963 l 322 963 z "},"Ṣ":{"ha":815,"x_min":-10,"x_max":829,"o":"m 547 626 q 551 683 551 647 q 549 724 551 704 q 539 760 546 744 q 518 785 532 776 q 482 794 504 794 q 436 783 457 794 q 399 755 415 772 q 374 715 383 738 q 365 667 365 692 q 384 611 365 631 q 433 579 403 592 q 503 558 464 567 q 583 539 542 550 q 653 514 618 529 q 715 473 688 499 q 758 406 742 447 q 775 304 775 365 q 740 157 775 217 q 644 60 706 97 q 499 6 583 22 q 317 -11 415 -11 q 153 2 217 -11 q 54 31 90 15 q -10 72 11 49 l 38 263 l 282 263 q 279 228 281 250 q 278 194 278 207 q 282 160 278 178 q 295 126 286 142 q 321 101 304 111 q 363 92 338 92 q 412 104 390 92 q 448 135 433 117 q 470 177 463 154 q 478 222 478 200 q 463 274 478 253 q 424 309 449 294 q 366 334 399 324 q 299 356 333 344 q 228 379 265 365 q 161 418 192 393 q 110 481 131 443 q 90 579 90 519 q 135 728 90 668 q 249 826 181 789 q 400 880 318 864 q 556 896 482 896 q 723 873 653 896 q 829 819 793 850 l 778 626 l 547 626 m 406 -200 q 395 -244 406 -225 q 367 -276 385 -264 q 327 -296 350 -289 q 281 -303 304 -303 q 205 -282 236 -303 q 174 -214 174 -261 q 212 -138 174 -164 q 300 -112 250 -112 q 375 -133 344 -112 q 406 -200 406 -154 z "},"T":{"ha":771,"x_min":101,"x_max":869,"o":"m 846 776 l 622 776 l 457 0 l 157 0 l 322 776 l 101 776 l 126 882 l 869 882 l 846 776 z "},"Ŧ":{"ha":776,"x_min":104,"x_max":872,"o":"m 179 531 l 272 531 l 325 776 l 104 776 l 129 882 l 872 882 l 849 776 l 625 776 l 572 531 l 672 531 l 647 424 l 550 424 l 460 0 l 160 0 l 250 424 l 153 424 l 179 531 z "},"Ť":{"ha":771,"x_min":101,"x_max":869,"o":"m 846 776 l 622 776 l 457 0 l 157 0 l 322 776 l 101 776 l 126 882 l 869 882 l 846 776 m 829 1165 l 626 963 l 419 963 l 304 1165 l 411 1165 l 526 1038 l 710 1165 l 829 1165 z "},"Ṭ":{"ha":771,"x_min":101,"x_max":869,"o":"m 846 776 l 622 776 l 457 0 l 157 0 l 322 776 l 101 776 l 126 882 l 869 882 l 846 776 m 382 -200 q 372 -244 382 -225 q 344 -276 361 -264 q 303 -296 326 -289 q 257 -303 281 -303 q 181 -282 213 -303 q 150 -214 150 -261 q 188 -138 150 -164 q 276 -112 226 -112 q 351 -133 321 -112 q 382 -200 382 -154 z "},"Þ":{"ha":822,"x_min":0,"x_max":832,"o":"m 457 731 q 613 722 543 731 q 731 689 682 714 q 806 617 779 664 q 832 490 832 569 q 809 356 832 419 q 735 244 786 292 q 604 168 685 196 q 408 140 524 140 l 331 140 l 300 0 l 0 0 l 188 882 l 489 882 l 457 731 m 438 636 l 350 229 l 413 229 q 483 264 454 229 q 530 349 511 299 q 557 453 549 399 q 565 546 565 507 q 553 610 565 585 q 499 636 540 636 l 438 636 z "},"U":{"ha":875,"x_min":49,"x_max":918,"o":"m 371 315 q 360 263 364 285 q 356 221 356 240 q 390 143 356 172 q 490 114 424 114 q 570 131 539 114 q 622 175 601 147 q 653 239 642 203 q 674 315 665 275 l 792 882 l 918 882 l 797 313 q 757 188 783 246 q 681 85 731 129 q 554 15 632 40 q 361 -11 476 -11 q 125 41 201 -11 q 49 201 49 93 q 61 325 49 250 q 93 488 74 400 l 178 882 l 493 882 l 371 315 z "},"Ú":{"ha":875,"x_min":49,"x_max":918,"o":"m 371 315 q 360 263 364 285 q 356 221 356 240 q 390 143 356 172 q 490 114 424 114 q 570 131 539 114 q 622 175 601 147 q 653 239 642 203 q 674 315 665 275 l 792 882 l 918 882 l 797 313 q 757 188 783 246 q 681 85 731 129 q 554 15 632 40 q 361 -11 476 -11 q 125 41 201 -11 q 49 201 49 93 q 61 325 49 250 q 93 488 74 400 l 178 882 l 493 882 l 371 315 m 540 963 l 669 1165 l 908 1165 l 660 963 l 540 963 z "},"Ŭ":{"ha":875,"x_min":49,"x_max":918,"o":"m 371 315 q 360 263 364 285 q 356 221 356 240 q 390 143 356 172 q 490 114 424 114 q 570 131 539 114 q 622 175 601 147 q 653 239 642 203 q 674 315 665 275 l 792 882 l 918 882 l 797 313 q 757 188 783 246 q 681 85 731 129 q 554 15 632 40 q 361 -11 476 -11 q 125 41 201 -11 q 49 201 49 93 q 61 325 49 250 q 93 488 74 400 l 178 882 l 493 882 l 371 315 m 593 963 q 463 1003 511 963 q 400 1136 414 1044 l 471 1165 q 494 1120 479 1138 q 528 1093 510 1103 q 567 1080 547 1083 q 604 1076 588 1076 q 716 1107 663 1076 q 806 1186 769 1138 l 858 1139 q 739 1003 806 1043 q 593 963 672 963 z "},"Û":{"ha":875,"x_min":49,"x_max":918,"o":"m 371 315 q 360 263 364 285 q 356 221 356 240 q 390 143 356 172 q 490 114 424 114 q 570 131 539 114 q 622 175 601 147 q 653 239 642 203 q 674 315 665 275 l 792 882 l 918 882 l 797 313 q 757 188 783 246 q 681 85 731 129 q 554 15 632 40 q 361 -11 476 -11 q 125 41 201 -11 q 49 201 49 93 q 61 325 49 250 q 93 488 74 400 l 178 882 l 493 882 l 371 315 m 335 963 l 538 1165 l 744 1165 l 860 963 l 754 963 l 639 1092 l 454 963 l 335 963 z "},"Ü":{"ha":875,"x_min":49,"x_max":918,"o":"m 371 315 q 360 263 364 285 q 356 221 356 240 q 390 143 356 172 q 490 114 424 114 q 570 131 539 114 q 622 175 601 147 q 653 239 642 203 q 674 315 665 275 l 792 882 l 918 882 l 797 313 q 757 188 783 246 q 681 85 731 129 q 554 15 632 40 q 361 -11 476 -11 q 125 41 201 -11 q 49 201 49 93 q 61 325 49 250 q 93 488 74 400 l 178 882 l 493 882 l 371 315 m 490 1160 q 564 1131 540 1160 q 588 1063 588 1103 q 559 983 588 1018 q 475 947 531 947 q 400 976 424 947 q 376 1044 376 1004 q 406 1124 376 1089 q 490 1160 435 1160 m 785 1160 q 860 1131 836 1160 q 883 1063 883 1103 q 854 983 883 1018 q 769 947 825 947 q 694 976 718 947 q 671 1044 671 1004 q 700 1124 671 1089 q 785 1160 729 1160 z "},"Ụ":{"ha":875,"x_min":49,"x_max":918,"o":"m 371 315 q 360 263 364 285 q 356 221 356 240 q 390 143 356 172 q 490 114 424 114 q 570 131 539 114 q 622 175 601 147 q 653 239 642 203 q 674 315 665 275 l 792 882 l 918 882 l 797 313 q 757 188 783 246 q 681 85 731 129 q 554 15 632 40 q 361 -11 476 -11 q 125 41 201 -11 q 49 201 49 93 q 61 325 49 250 q 93 488 74 400 l 178 882 l 493 882 l 371 315 m 460 -200 q 449 -244 460 -225 q 422 -276 439 -264 q 381 -296 404 -289 q 335 -303 358 -303 q 259 -282 290 -303 q 228 -214 228 -261 q 266 -138 228 -164 q 354 -112 304 -112 q 429 -133 399 -112 q 460 -200 460 -154 z "},"Ù":{"ha":875,"x_min":49,"x_max":918,"o":"m 371 315 q 360 263 364 285 q 356 221 356 240 q 390 143 356 172 q 490 114 424 114 q 570 131 539 114 q 622 175 601 147 q 653 239 642 203 q 674 315 665 275 l 792 882 l 918 882 l 797 313 q 757 188 783 246 q 681 85 731 129 q 554 15 632 40 q 361 -11 476 -11 q 125 41 201 -11 q 49 201 49 93 q 61 325 49 250 q 93 488 74 400 l 178 882 l 493 882 l 371 315 m 303 1165 l 543 1165 l 689 963 l 560 963 l 303 1165 z "},"Ű":{"ha":875,"x_min":49,"x_max":1069,"o":"m 371 315 q 360 263 364 285 q 356 221 356 240 q 390 143 356 172 q 490 114 424 114 q 570 131 539 114 q 622 175 601 147 q 653 239 642 203 q 674 315 665 275 l 792 882 l 918 882 l 797 313 q 757 188 783 246 q 681 85 731 129 q 554 15 632 40 q 361 -11 476 -11 q 125 41 201 -11 q 49 201 49 93 q 61 325 49 250 q 93 488 74 400 l 178 882 l 493 882 l 371 315 m 350 963 l 507 1165 l 746 1165 l 469 963 l 350 963 m 674 963 l 831 1165 l 1069 1165 l 793 963 l 674 963 z "},"Ū":{"ha":875,"x_min":49,"x_max":918,"o":"m 371 315 q 360 263 364 285 q 356 221 356 240 q 390 143 356 172 q 490 114 424 114 q 570 131 539 114 q 622 175 601 147 q 653 239 642 203 q 674 315 665 275 l 792 882 l 918 882 l 797 313 q 757 188 783 246 q 681 85 731 129 q 554 15 632 40 q 361 -11 476 -11 q 125 41 201 -11 q 49 201 49 93 q 61 325 49 250 q 93 488 74 400 l 178 882 l 493 882 l 371 315 m 392 1121 l 885 1121 l 860 1014 l 365 1014 l 392 1121 z "},"Ų":{"ha":875,"x_min":49,"x_max":918,"o":"m 371 315 q 360 263 364 285 q 356 221 356 240 q 390 143 356 172 q 490 114 424 114 q 570 131 539 114 q 622 175 601 147 q 653 239 642 203 q 674 315 665 275 l 792 882 l 918 882 l 797 313 q 760 196 785 251 q 694 97 736 140 q 585 26 651 54 q 422 -8 519 -1 q 356 -65 386 -32 q 326 -139 326 -99 q 339 -179 326 -167 q 369 -192 351 -192 q 399 -184 382 -192 q 442 -156 417 -176 l 474 -214 q 376 -266 432 -249 q 268 -283 321 -283 q 149 -181 149 -283 q 160 -121 149 -147 q 192 -74 172 -94 q 236 -36 211 -53 q 286 -7 261 -19 q 106 56 164 4 q 49 201 49 107 q 61 325 49 250 q 93 488 74 400 l 178 882 l 493 882 l 371 315 z "},"Ů":{"ha":875,"x_min":49,"x_max":918,"o":"m 371 315 q 360 263 364 285 q 356 221 356 240 q 390 143 356 172 q 490 114 424 114 q 570 131 539 114 q 622 175 601 147 q 653 239 642 203 q 674 315 665 275 l 792 882 l 918 882 l 797 313 q 757 188 783 246 q 681 85 731 129 q 554 15 632 40 q 361 -11 476 -11 q 125 41 201 -11 q 49 201 49 93 q 61 325 49 250 q 93 488 74 400 l 178 882 l 493 882 l 371 315 m 767 1076 q 755 1025 767 1049 q 724 984 743 1001 q 681 957 706 967 q 629 947 656 947 q 546 978 579 947 q 513 1060 513 1008 q 524 1111 513 1088 q 554 1151 535 1135 q 598 1178 574 1168 q 650 1188 622 1188 q 733 1156 700 1188 q 767 1076 767 1125 m 686 1071 q 674 1099 686 1089 q 643 1110 661 1110 q 608 1097 624 1110 q 592 1064 592 1085 q 604 1034 592 1046 q 635 1022 617 1022 q 670 1036 654 1022 q 686 1071 686 1050 z "},"Ũ":{"ha":875,"x_min":49,"x_max":918,"o":"m 371 315 q 360 263 364 285 q 356 221 356 240 q 390 143 356 172 q 490 114 424 114 q 570 131 539 114 q 622 175 601 147 q 653 239 642 203 q 674 315 665 275 l 792 882 l 918 882 l 797 313 q 757 188 783 246 q 681 85 731 129 q 554 15 632 40 q 361 -11 476 -11 q 125 41 201 -11 q 49 201 49 93 q 61 325 49 250 q 93 488 74 400 l 178 882 l 493 882 l 371 315 m 900 1138 q 817 1024 858 1061 q 713 986 775 986 q 653 994 688 986 q 584 1012 619 1003 q 517 1029 549 1021 q 467 1038 486 1038 q 415 1021 442 1038 q 376 989 389 1004 l 331 1029 q 417 1136 374 1100 q 521 1172 461 1172 q 576 1165 543 1172 q 642 1149 608 1158 q 708 1133 676 1140 q 761 1126 740 1126 q 808 1140 781 1126 q 851 1172 835 1153 l 900 1138 z "},"V":{"ha":807,"x_min":114,"x_max":904,"o":"m 114 882 l 431 882 l 478 285 l 767 882 l 904 882 l 493 0 l 165 0 l 114 882 z "},"W":{"ha":1311,"x_min":108,"x_max":1393,"o":"m 108 882 l 447 882 l 471 281 l 703 882 l 978 882 l 1014 281 l 1247 882 l 1393 882 l 1050 0 l 738 0 l 708 499 l 500 0 l 167 0 l 108 882 z "},"Ẃ":{"ha":1311,"x_min":108,"x_max":1393,"o":"m 108 882 l 447 882 l 471 281 l 703 882 l 978 882 l 1014 281 l 1247 882 l 1393 882 l 1050 0 l 738 0 l 708 499 l 500 0 l 167 0 l 108 882 m 782 963 l 911 1165 l 1150 1165 l 901 963 l 782 963 z "},"Ŵ":{"ha":1311,"x_min":108,"x_max":1393,"o":"m 108 882 l 447 882 l 471 281 l 703 882 l 978 882 l 1014 281 l 1247 882 l 1393 882 l 1050 0 l 738 0 l 708 499 l 500 0 l 167 0 l 108 882 m 604 963 l 807 1165 l 1014 1165 l 1129 963 l 1024 963 l 908 1092 l 724 963 l 604 963 z "},"Ẅ":{"ha":1311,"x_min":108,"x_max":1393,"o":"m 108 882 l 447 882 l 471 281 l 703 882 l 978 882 l 1014 281 l 1247 882 l 1393 882 l 1050 0 l 738 0 l 708 499 l 500 0 l 167 0 l 108 882 m 742 1160 q 815 1131 792 1160 q 839 1063 839 1103 q 810 983 839 1018 q 726 947 782 947 q 651 976 675 947 q 628 1044 628 1004 q 657 1124 628 1089 q 742 1160 686 1160 m 1036 1160 q 1111 1131 1088 1160 q 1135 1063 1135 1103 q 1106 983 1135 1018 q 1021 947 1076 947 q 946 976 969 947 q 922 1044 922 1004 q 951 1124 922 1089 q 1036 1160 981 1160 z "},"Ẁ":{"ha":1311,"x_min":108,"x_max":1393,"o":"m 108 882 l 447 882 l 471 281 l 703 882 l 978 882 l 1014 281 l 1247 882 l 1393 882 l 1050 0 l 738 0 l 708 499 l 500 0 l 167 0 l 108 882 m 544 1165 l 785 1165 l 931 963 l 801 963 l 544 1165 z "},"X":{"ha":836,"x_min":-47,"x_max":917,"o":"m 538 604 l 750 882 l 917 882 l 588 486 l 794 0 l 451 0 l 333 276 l 119 0 l -47 0 l 281 401 l 76 882 l 419 882 l 538 604 z "},"Y":{"ha":792,"x_min":108,"x_max":894,"o":"m 540 333 l 469 0 l 168 0 l 244 357 l 108 882 l 442 882 l 536 533 l 744 882 l 894 882 l 540 333 z "},"Ý":{"ha":792,"x_min":108,"x_max":894,"o":"m 540 333 l 469 0 l 168 0 l 244 357 l 108 882 l 442 882 l 536 533 l 744 882 l 894 882 l 540 333 m 496 963 l 625 1165 l 864 1165 l 615 963 l 496 963 z "},"Ŷ":{"ha":792,"x_min":108,"x_max":894,"o":"m 540 333 l 469 0 l 168 0 l 244 357 l 108 882 l 442 882 l 536 533 l 744 882 l 894 882 l 540 333 m 318 963 l 521 1165 l 728 1165 l 843 963 l 738 963 l 622 1092 l 438 963 l 318 963 z "},"Ÿ":{"ha":792,"x_min":108,"x_max":894,"o":"m 540 333 l 469 0 l 168 0 l 244 357 l 108 882 l 442 882 l 536 533 l 744 882 l 894 882 l 540 333 m 457 1160 q 531 1131 507 1160 q 554 1063 554 1103 q 526 983 554 1018 q 442 947 497 947 q 367 976 390 947 q 343 1044 343 1004 q 372 1124 343 1089 q 457 1160 401 1160 m 751 1160 q 826 1131 803 1160 q 850 1063 850 1103 q 821 983 850 1018 q 736 947 792 947 q 661 976 685 947 q 638 1044 638 1004 q 667 1124 638 1089 q 751 1160 696 1160 z "},"Ỳ":{"ha":792,"x_min":108,"x_max":894,"o":"m 540 333 l 469 0 l 168 0 l 244 357 l 108 882 l 442 882 l 536 533 l 744 882 l 894 882 l 540 333 m 258 1165 l 499 1165 l 644 963 l 515 963 l 258 1165 z "},"Ỹ":{"ha":792,"x_min":108,"x_max":897,"o":"m 540 333 l 469 0 l 168 0 l 244 357 l 108 882 l 442 882 l 536 533 l 744 882 l 894 882 l 540 333 m 897 1138 q 814 1024 856 1061 q 710 986 772 986 q 651 994 685 986 q 581 1012 617 1003 q 515 1029 546 1021 q 464 1038 483 1038 q 413 1021 439 1038 q 374 989 386 1004 l 328 1029 q 415 1136 371 1100 q 518 1172 458 1172 q 573 1165 540 1172 q 640 1149 606 1158 q 706 1133 674 1140 q 758 1126 738 1126 q 805 1140 778 1126 q 849 1172 832 1153 l 897 1138 z "},"Z":{"ha":768,"x_min":-29,"x_max":810,"o":"m -4 126 l 453 776 l 103 776 l 124 882 l 810 882 l 797 764 l 344 106 l 710 106 l 690 0 l -29 0 l -4 126 z "},"Ź":{"ha":768,"x_min":-29,"x_max":810,"o":"m -4 126 l 453 776 l 103 776 l 124 882 l 810 882 l 797 764 l 344 106 l 710 106 l 690 0 l -29 0 l -4 126 m 418 963 l 547 1165 l 786 1165 l 538 963 l 418 963 z "},"Ž":{"ha":768,"x_min":-29,"x_max":835,"o":"m -4 126 l 453 776 l 103 776 l 124 882 l 810 882 l 797 764 l 344 106 l 710 106 l 690 0 l -29 0 l -4 126 m 835 1165 l 632 963 l 425 963 l 310 1165 l 417 1165 l 532 1038 l 715 1165 l 835 1165 z "},"Ż":{"ha":768,"x_min":-29,"x_max":810,"o":"m -4 126 l 453 776 l 103 776 l 124 882 l 810 882 l 797 764 l 344 106 l 710 106 l 690 0 l -29 0 l -4 126 m 671 1063 q 658 1007 671 1031 q 623 967 644 983 q 574 942 601 950 q 517 933 546 933 q 424 960 461 933 q 386 1043 386 986 q 399 1098 386 1074 q 433 1138 411 1122 q 483 1163 454 1154 q 542 1171 511 1171 q 633 1144 596 1171 q 671 1063 671 1118 z "},"Ẓ":{"ha":768,"x_min":-29,"x_max":810,"o":"m -4 126 l 453 776 l 103 776 l 124 882 l 810 882 l 797 764 l 344 106 l 710 106 l 690 0 l -29 0 l -4 126 m 421 -200 q 410 -244 421 -225 q 383 -276 400 -264 q 342 -296 365 -289 q 296 -303 319 -303 q 220 -282 251 -303 q 189 -214 189 -261 q 227 -138 189 -164 q 315 -112 265 -112 q 390 -133 360 -112 q 421 -200 421 -154 z "},"a":{"ha":767,"x_min":-18,"x_max":714,"o":"m 100 546 q 245 597 171 581 q 411 613 319 613 q 558 599 500 613 q 651 558 617 585 q 700 496 686 532 q 714 414 714 460 q 710 357 714 388 q 703 306 707 326 l 638 0 l 414 0 l 389 89 l 381 89 q 277 15 336 40 q 160 -11 218 -11 q 94 -1 126 -11 q 38 28 63 8 q -3 80 13 49 q -18 156 -18 111 q 22 270 -18 228 q 126 334 61 313 q 272 361 190 356 q 435 367 353 367 q 442 406 438 381 q 446 451 446 432 q 433 498 446 476 q 378 519 419 519 q 306 491 329 519 q 276 422 283 463 l 74 422 l 100 546 m 419 301 l 394 301 q 326 291 354 301 q 280 264 297 281 q 254 226 263 247 q 246 185 246 206 q 263 135 246 151 q 304 118 281 118 q 362 139 333 118 q 397 194 390 160 l 419 301 z "},"á":{"ha":767,"x_min":-18,"x_max":742,"o":"m 100 546 q 245 597 171 581 q 411 613 319 613 q 558 599 500 613 q 651 558 617 585 q 700 496 686 532 q 714 414 714 460 q 710 357 714 388 q 703 306 707 326 l 638 0 l 414 0 l 389 89 l 381 89 q 277 15 336 40 q 160 -11 218 -11 q 94 -1 126 -11 q 38 28 63 8 q -3 80 13 49 q -18 156 -18 111 q 22 270 -18 228 q 126 334 61 313 q 272 361 190 356 q 435 367 353 367 q 442 406 438 381 q 446 451 446 432 q 433 498 446 476 q 378 519 419 519 q 306 491 329 519 q 276 422 283 463 l 74 422 l 100 546 m 419 301 l 394 301 q 326 291 354 301 q 280 264 297 281 q 254 226 263 247 q 246 185 246 206 q 263 135 246 151 q 304 118 281 118 q 362 139 333 118 q 397 194 390 160 l 419 301 m 374 679 l 503 882 l 742 882 l 493 679 l 374 679 z "},"ă":{"ha":767,"x_min":-18,"x_max":714,"o":"m 100 546 q 245 597 171 581 q 411 613 319 613 q 558 599 500 613 q 651 558 617 585 q 700 496 686 532 q 714 414 714 460 q 710 357 714 388 q 703 306 707 326 l 638 0 l 414 0 l 389 89 l 381 89 q 277 15 336 40 q 160 -11 218 -11 q 94 -1 126 -11 q 38 28 63 8 q -3 80 13 49 q -18 156 -18 111 q 22 270 -18 228 q 126 334 61 313 q 272 361 190 356 q 435 367 353 367 q 442 406 438 381 q 446 451 446 432 q 433 498 446 476 q 378 519 419 519 q 306 491 329 519 q 276 422 283 463 l 74 422 l 100 546 m 419 301 l 394 301 q 326 291 354 301 q 280 264 297 281 q 254 226 263 247 q 246 185 246 206 q 263 135 246 151 q 304 118 281 118 q 362 139 333 118 q 397 194 390 160 l 419 301 m 438 679 q 307 720 356 679 q 244 853 258 761 l 315 882 q 339 837 324 854 q 373 810 354 819 q 412 797 392 800 q 449 793 432 793 q 560 824 507 793 q 650 903 614 854 l 703 856 q 583 719 650 760 q 438 679 517 679 z "},"â":{"ha":767,"x_min":-18,"x_max":714,"o":"m 100 546 q 245 597 171 581 q 411 613 319 613 q 558 599 500 613 q 651 558 617 585 q 700 496 686 532 q 714 414 714 460 q 710 357 714 388 q 703 306 707 326 l 638 0 l 414 0 l 389 89 l 381 89 q 277 15 336 40 q 160 -11 218 -11 q 94 -1 126 -11 q 38 28 63 8 q -3 80 13 49 q -18 156 -18 111 q 22 270 -18 228 q 126 334 61 313 q 272 361 190 356 q 435 367 353 367 q 442 406 438 381 q 446 451 446 432 q 433 498 446 476 q 378 519 419 519 q 306 491 329 519 q 276 422 283 463 l 74 422 l 100 546 m 419 301 l 394 301 q 326 291 354 301 q 280 264 297 281 q 254 226 263 247 q 246 185 246 206 q 263 135 246 151 q 304 118 281 118 q 362 139 333 118 q 397 194 390 160 l 419 301 m 179 679 l 382 882 l 589 882 l 704 679 l 599 679 l 483 808 l 299 679 l 179 679 z "},"´":{"ha":440,"x_min":36,"x_max":404,"o":"m 36 679 l 165 882 l 404 882 l 156 679 l 36 679 z "},"ä":{"ha":767,"x_min":-18,"x_max":714,"o":"m 100 546 q 245 597 171 581 q 411 613 319 613 q 558 599 500 613 q 651 558 617 585 q 700 496 686 532 q 714 414 714 460 q 710 357 714 388 q 703 306 707 326 l 638 0 l 414 0 l 389 89 l 381 89 q 277 15 336 40 q 160 -11 218 -11 q 94 -1 126 -11 q 38 28 63 8 q -3 80 13 49 q -18 156 -18 111 q 22 270 -18 228 q 126 334 61 313 q 272 361 190 356 q 435 367 353 367 q 442 406 438 381 q 446 451 446 432 q 433 498 446 476 q 378 519 419 519 q 306 491 329 519 q 276 422 283 463 l 74 422 l 100 546 m 419 301 l 394 301 q 326 291 354 301 q 280 264 297 281 q 254 226 263 247 q 246 185 246 206 q 263 135 246 151 q 304 118 281 118 q 362 139 333 118 q 397 194 390 160 l 419 301 m 304 876 q 378 848 354 876 q 401 779 401 819 q 373 699 401 735 q 289 664 344 664 q 214 692 238 664 q 190 761 190 721 q 219 841 190 806 q 304 876 249 876 m 599 876 q 674 848 650 876 q 697 779 697 819 q 668 699 697 735 q 583 664 639 664 q 508 692 532 664 q 485 761 485 721 q 514 841 485 806 q 599 876 543 876 z "},"æ":{"ha":1153,"x_min":-15,"x_max":1131,"o":"m 103 553 q 226 599 161 585 q 379 613 292 613 q 518 602 461 613 q 613 572 575 592 q 718 602 660 592 q 851 613 776 613 q 1060 569 990 613 q 1131 435 1131 526 q 1119 353 1131 397 q 1086 279 1108 310 l 696 279 q 688 221 690 249 q 686 171 686 193 q 688 143 686 158 q 694 115 689 128 q 708 92 699 101 q 733 83 717 83 q 762 92 746 83 q 794 115 778 100 q 824 153 810 131 q 847 203 839 175 l 1075 203 l 1039 54 q 975 24 1011 36 q 899 3 939 11 q 817 -8 858 -4 q 738 -11 775 -11 q 570 11 644 -11 q 453 92 496 33 q 373 40 414 60 q 293 8 332 19 q 217 -7 254 -3 q 150 -11 181 -11 q 33 32 82 -11 q -15 157 -15 75 q 23 271 -15 229 q 122 334 61 313 q 262 361 183 356 q 422 367 340 367 q 429 407 425 381 q 433 454 433 433 q 422 499 433 478 q 372 519 410 519 q 308 491 331 519 q 276 422 286 463 l 78 422 l 103 553 m 881 444 q 867 503 881 488 q 833 518 853 518 q 792 503 811 518 q 758 465 774 489 q 731 409 743 440 q 710 343 718 378 l 868 343 q 874 378 871 360 q 878 411 876 393 q 881 444 881 429 m 408 301 l 383 301 q 281 278 317 301 q 244 203 244 256 q 260 144 244 167 q 306 121 276 121 q 358 144 336 121 q 386 194 381 167 l 408 301 z "},"ǽ":{"ha":1153,"x_min":-15,"x_max":1131,"o":"m 103 553 q 226 599 161 585 q 379 613 292 613 q 518 602 461 613 q 613 572 575 592 q 718 602 660 592 q 851 613 776 613 q 1060 569 990 613 q 1131 435 1131 526 q 1119 353 1131 397 q 1086 279 1108 310 l 696 279 q 688 221 690 249 q 686 171 686 193 q 688 143 686 158 q 694 115 689 128 q 708 92 699 101 q 733 83 717 83 q 762 92 746 83 q 794 115 778 100 q 824 153 810 131 q 847 203 839 175 l 1075 203 l 1039 54 q 975 24 1011 36 q 899 3 939 11 q 817 -8 858 -4 q 738 -11 775 -11 q 570 11 644 -11 q 453 92 496 33 q 373 40 414 60 q 293 8 332 19 q 217 -7 254 -3 q 150 -11 181 -11 q 33 32 82 -11 q -15 157 -15 75 q 23 271 -15 229 q 122 334 61 313 q 262 361 183 356 q 422 367 340 367 q 429 407 425 381 q 433 454 433 433 q 422 499 433 478 q 372 519 410 519 q 308 491 331 519 q 276 422 286 463 l 78 422 l 103 553 m 881 444 q 867 503 881 488 q 833 518 853 518 q 792 503 811 518 q 758 465 774 489 q 731 409 743 440 q 710 343 718 378 l 868 343 q 874 378 871 360 q 878 411 876 393 q 881 444 881 429 m 408 301 l 383 301 q 281 278 317 301 q 244 203 244 256 q 260 144 244 167 q 306 121 276 121 q 358 144 336 121 q 386 194 381 167 l 408 301 m 551 679 l 681 882 l 919 882 l 671 679 l 551 679 z "},"à":{"ha":767,"x_min":-18,"x_max":714,"o":"m 100 546 q 245 597 171 581 q 411 613 319 613 q 558 599 500 613 q 651 558 617 585 q 700 496 686 532 q 714 414 714 460 q 710 357 714 388 q 703 306 707 326 l 638 0 l 414 0 l 389 89 l 381 89 q 277 15 336 40 q 160 -11 218 -11 q 94 -1 126 -11 q 38 28 63 8 q -3 80 13 49 q -18 156 -18 111 q 22 270 -18 228 q 126 334 61 313 q 272 361 190 356 q 435 367 353 367 q 442 406 438 381 q 446 451 446 432 q 433 498 446 476 q 378 519 419 519 q 306 491 329 519 q 276 422 283 463 l 74 422 l 100 546 m 419 301 l 394 301 q 326 291 354 301 q 280 264 297 281 q 254 226 263 247 q 246 185 246 206 q 263 135 246 151 q 304 118 281 118 q 362 139 333 118 q 397 194 390 160 l 419 301 m 140 882 l 381 882 l 526 679 l 397 679 l 140 882 z "},"ā":{"ha":767,"x_min":-18,"x_max":725,"o":"m 100 546 q 245 597 171 581 q 411 613 319 613 q 558 599 500 613 q 651 558 617 585 q 700 496 686 532 q 714 414 714 460 q 710 357 714 388 q 703 306 707 326 l 638 0 l 414 0 l 389 89 l 381 89 q 277 15 336 40 q 160 -11 218 -11 q 94 -1 126 -11 q 38 28 63 8 q -3 80 13 49 q -18 156 -18 111 q 22 270 -18 228 q 126 334 61 313 q 272 361 190 356 q 435 367 353 367 q 442 406 438 381 q 446 451 446 432 q 433 498 446 476 q 378 519 419 519 q 306 491 329 519 q 276 422 283 463 l 74 422 l 100 546 m 419 301 l 394 301 q 326 291 354 301 q 280 264 297 281 q 254 226 263 247 q 246 185 246 206 q 263 135 246 151 q 304 118 281 118 q 362 139 333 118 q 397 194 390 160 l 419 301 m 232 838 l 725 838 l 700 731 l 206 731 l 232 838 z "},"&":{"ha":979,"x_min":0,"x_max":918,"o":"m 558 0 l 525 76 l 517 76 q 489 50 507 65 q 442 21 471 35 q 373 -2 413 7 q 282 -11 333 -11 q 176 3 226 -11 q 86 46 125 17 q 24 121 47 75 q 0 232 0 167 q 17 332 0 285 q 71 418 35 379 q 163 486 107 457 q 296 532 218 515 q 269 597 278 572 q 261 654 261 622 q 283 754 261 710 q 346 830 306 799 q 442 878 386 861 q 565 896 499 896 q 744 849 675 896 q 813 711 813 803 q 794 632 813 663 q 749 582 775 601 q 692 551 722 563 q 642 531 663 540 l 708 397 q 769 507 750 456 l 868 507 q 828 410 854 457 q 774 318 803 364 l 760 297 l 918 0 l 558 0 m 336 456 q 297 400 313 442 q 281 315 281 358 q 290 253 281 283 q 319 199 300 222 q 364 160 338 175 q 424 146 390 146 q 457 151 446 146 q 478 167 468 157 l 336 456 m 585 819 q 537 805 551 819 q 522 771 522 790 q 540 714 522 747 l 597 607 q 664 650 642 618 q 686 718 686 682 q 660 788 686 757 q 585 819 635 819 z "},"ą":{"ha":767,"x_min":-18,"x_max":714,"o":"m 100 546 q 245 597 171 581 q 411 613 319 613 q 558 599 500 613 q 651 558 617 585 q 700 496 686 532 q 714 414 714 460 q 710 357 714 388 q 703 306 707 326 l 638 0 l 606 0 q 567 -27 586 -12 q 533 -59 549 -42 q 507 -97 517 -76 q 497 -139 497 -117 q 510 -179 497 -167 q 540 -192 522 -192 q 570 -184 553 -192 q 613 -156 588 -176 l 644 -214 q 547 -266 603 -249 q 439 -283 492 -283 q 319 -181 319 -283 q 333 -117 319 -146 q 369 -67 347 -89 q 419 -28 392 -44 q 474 0 446 -11 l 414 0 l 389 89 l 381 89 q 277 15 336 40 q 160 -11 218 -11 q 94 -1 126 -11 q 38 28 63 8 q -3 80 13 49 q -18 156 -18 111 q 22 270 -18 228 q 126 334 61 313 q 272 361 190 356 q 435 367 353 367 q 442 406 438 381 q 446 451 446 432 q 433 498 446 476 q 378 519 419 519 q 306 491 329 519 q 276 422 283 463 l 74 422 l 100 546 m 419 301 l 394 301 q 326 291 354 301 q 280 264 297 281 q 254 226 263 247 q 246 185 246 206 q 263 135 246 151 q 304 118 281 118 q 362 139 333 118 q 397 194 390 160 l 419 301 z "},"ʼ":{"ha":456,"x_min":181,"x_max":439,"o":"m 182 588 q 231 628 204 604 q 278 693 257 653 q 224 726 244 701 q 203 786 203 750 q 213 835 203 814 q 242 872 224 857 q 282 896 260 888 q 329 904 304 904 q 407 878 375 904 q 439 800 439 853 q 419 713 439 754 q 367 639 399 672 q 294 581 335 606 q 214 539 254 556 q 197 563 204 551 q 185 580 190 572 q 182 588 181 588 z "},"å":{"ha":767,"x_min":-18,"x_max":714,"o":"m 100 546 q 245 597 171 581 q 411 613 319 613 q 558 599 500 613 q 651 558 617 585 q 700 496 686 532 q 714 414 714 460 q 710 357 714 388 q 703 306 707 326 l 638 0 l 414 0 l 389 89 l 381 89 q 277 15 336 40 q 160 -11 218 -11 q 94 -1 126 -11 q 38 28 63 8 q -3 80 13 49 q -18 156 -18 111 q 22 270 -18 228 q 126 334 61 313 q 272 361 190 356 q 435 367 353 367 q 442 406 438 381 q 446 451 446 432 q 433 498 446 476 q 378 519 419 519 q 306 491 329 519 q 276 422 283 463 l 74 422 l 100 546 m 419 301 l 394 301 q 326 291 354 301 q 280 264 297 281 q 254 226 263 247 q 246 185 246 206 q 263 135 246 151 q 304 118 281 118 q 362 139 333 118 q 397 194 390 160 l 419 301 m 561 793 q 549 742 561 765 q 519 701 538 718 q 475 674 500 683 q 424 664 450 664 q 340 694 374 664 q 307 776 307 725 q 318 828 307 804 q 349 868 329 851 q 392 894 368 885 q 444 904 417 904 q 528 873 494 904 q 561 793 561 842 m 481 788 q 468 816 481 806 q 438 826 456 826 q 402 814 418 826 q 386 781 386 801 q 399 751 386 763 q 429 739 411 739 q 465 753 449 739 q 481 788 481 767 z "},"ǻ":{"ha":767,"x_min":-18,"x_max":783,"o":"m 100 546 q 245 597 171 581 q 411 613 319 613 q 558 599 500 613 q 651 558 617 585 q 700 496 686 532 q 714 414 714 460 q 710 357 714 388 q 703 306 707 326 l 638 0 l 414 0 l 389 89 l 381 89 q 277 15 336 40 q 160 -11 218 -11 q 94 -1 126 -11 q 38 28 63 8 q -3 80 13 49 q -18 156 -18 111 q 22 270 -18 228 q 126 334 61 313 q 272 361 190 356 q 435 367 353 367 q 442 406 438 381 q 446 451 446 432 q 433 498 446 476 q 378 519 419 519 q 306 491 329 519 q 276 422 283 463 l 74 422 l 100 546 m 419 301 l 394 301 q 326 291 354 301 q 280 264 297 281 q 254 226 263 247 q 246 185 246 206 q 263 135 246 151 q 304 118 281 118 q 362 139 333 118 q 397 194 390 160 l 419 301 m 571 793 q 559 742 571 765 q 528 701 547 718 q 485 674 510 683 q 433 664 460 664 q 350 694 383 664 q 317 776 317 725 q 328 828 317 804 q 358 868 339 851 q 402 894 378 885 q 454 904 426 904 q 538 873 504 904 q 571 793 571 842 m 490 788 q 478 816 490 806 q 447 826 465 826 q 412 814 428 826 q 396 781 396 801 q 408 751 396 763 q 439 739 421 739 q 474 753 458 739 q 490 788 490 767 m 415 954 l 544 1157 l 783 1157 l 535 954 l 415 954 z "},"^":{"ha":608,"x_min":90,"x_max":615,"o":"m 90 578 l 293 882 l 500 882 l 615 578 l 510 578 l 394 808 l 210 578 l 90 578 z "},"~":{"ha":642,"x_min":29,"x_max":599,"o":"m 599 393 q 515 272 557 317 q 411 228 472 228 q 352 236 386 228 q 283 253 318 244 q 216 271 247 263 q 165 279 185 279 q 114 263 140 279 q 75 231 88 246 l 29 269 q 116 385 72 340 q 219 429 160 429 q 274 422 242 429 q 341 406 307 414 q 407 390 375 397 q 460 382 439 382 q 506 395 479 382 q 550 429 533 408 l 599 393 z "},"*":{"ha":379,"x_min":131,"x_max":428,"o":"m 161 682 l 131 753 l 229 790 l 149 824 l 197 896 l 261 836 l 267 933 l 344 933 l 313 836 l 399 896 l 428 825 l 331 790 l 413 754 l 365 682 l 299 747 l 290 650 l 219 650 l 247 747 l 161 682 z "},"@":{"ha":1035,"x_min":36,"x_max":985,"o":"m 565 -140 q 486 -155 525 -149 q 404 -161 447 -161 q 253 -135 321 -161 q 137 -60 185 -110 q 63 61 89 -11 q 36 226 36 133 q 79 440 36 347 q 194 595 122 532 q 359 690 265 658 q 556 722 453 722 q 732 694 653 722 q 867 614 811 665 q 954 492 924 563 q 985 338 985 422 q 972 232 985 285 q 928 135 958 179 q 849 65 899 92 q 724 38 799 38 q 618 65 656 38 q 578 158 581 92 l 569 158 q 500 77 544 106 q 403 49 456 49 q 306 86 344 49 q 268 208 268 124 q 273 274 268 229 q 298 363 278 318 q 358 442 318 408 q 467 475 397 475 q 530 462 500 475 q 578 404 560 449 l 583 404 l 618 465 l 751 465 l 711 276 q 701 228 706 250 q 697 189 697 207 q 744 135 697 135 q 782 142 761 135 q 822 171 803 150 q 853 227 840 192 q 865 318 865 263 q 783 533 865 453 q 551 613 701 613 q 400 588 471 613 q 276 515 329 563 q 192 395 222 467 q 161 232 161 324 q 181 105 161 158 q 234 15 200 51 q 315 -38 268 -21 q 417 -56 363 -56 q 492 -48 456 -56 q 567 -29 529 -40 l 565 -140 m 517 386 q 480 366 496 386 q 453 317 464 346 q 438 258 443 289 q 433 203 433 226 q 465 147 433 147 q 501 161 485 147 q 525 186 518 175 l 563 353 q 544 376 554 365 q 517 386 533 386 z "},"ã":{"ha":767,"x_min":-18,"x_max":751,"o":"m 100 546 q 245 597 171 581 q 411 613 319 613 q 558 599 500 613 q 651 558 617 585 q 700 496 686 532 q 714 414 714 460 q 710 357 714 388 q 703 306 707 326 l 638 0 l 414 0 l 389 89 l 381 89 q 277 15 336 40 q 160 -11 218 -11 q 94 -1 126 -11 q 38 28 63 8 q -3 80 13 49 q -18 156 -18 111 q 22 270 -18 228 q 126 334 61 313 q 272 361 190 356 q 435 367 353 367 q 442 406 438 381 q 446 451 446 432 q 433 498 446 476 q 378 519 419 519 q 306 491 329 519 q 276 422 283 463 l 74 422 l 100 546 m 419 301 l 394 301 q 326 291 354 301 q 280 264 297 281 q 254 226 263 247 q 246 185 246 206 q 263 135 246 151 q 304 118 281 118 q 362 139 333 118 q 397 194 390 160 l 419 301 m 751 854 q 668 740 710 778 q 564 703 626 703 q 505 711 539 703 q 435 728 471 719 q 369 746 400 738 q 318 754 338 754 q 267 738 293 754 q 228 706 240 721 l 182 746 q 269 853 225 817 q 372 889 313 889 q 427 882 394 889 q 494 866 460 875 q 560 850 528 857 q 613 843 592 843 q 659 856 632 843 q 703 889 686 869 l 751 854 z "},"b":{"ha":813,"x_min":-14,"x_max":775,"o":"m 211 0 l -14 0 l 183 933 l 468 933 l 378 508 l 388 508 q 491 584 433 561 q 606 607 549 607 q 687 592 654 607 q 739 553 719 578 q 767 493 758 528 q 775 419 775 458 q 772 361 775 400 q 760 274 769 322 q 732 176 750 226 q 684 83 714 125 q 609 15 654 42 q 501 -11 564 -11 q 428 -3 464 -11 q 365 19 393 6 q 315 52 336 33 q 283 90 293 71 l 274 90 l 211 0 m 368 124 q 424 159 401 124 q 460 242 446 194 q 480 338 474 290 q 486 410 486 386 q 477 456 486 438 q 444 474 468 474 q 393 453 417 474 q 358 419 369 433 l 304 171 q 330 139 314 154 q 368 124 346 124 z "},"\\":{"ha":840,"x_min":131,"x_max":742,"o":"m 600 0 l 131 882 l 257 882 l 742 0 l 600 0 z "},"|":{"ha":307,"x_min":-46,"x_max":351,"o":"m 200 933 l 351 933 l 100 -233 l -46 -233 l 200 933 z "},"{":{"ha":436,"x_min":43,"x_max":533,"o":"m 222 132 q 213 94 218 113 q 208 64 208 76 q 242 27 208 32 q 333 22 276 22 l 308 -96 q 210 -93 256 -96 q 130 -79 164 -90 q 76 -45 96 -68 q 57 18 57 -22 q 59 49 57 31 q 64 83 61 68 l 107 279 q 111 303 110 290 q 113 326 113 317 q 92 380 113 358 q 43 406 71 401 l 65 510 q 138 543 107 519 q 181 625 168 567 l 222 822 q 265 922 236 886 q 333 974 293 957 q 424 996 374 992 q 533 1000 475 1000 l 508 882 q 452 881 476 882 q 411 873 428 879 q 385 853 394 867 q 369 815 375 839 l 325 613 q 308 547 317 574 q 288 503 299 521 q 262 472 276 485 q 226 450 247 460 q 253 418 240 439 q 265 361 265 397 q 263 326 265 344 q 256 289 260 307 l 222 132 z "},"}":{"ha":436,"x_min":-58,"x_max":432,"o":"m 254 776 q 263 814 258 797 q 267 842 267 831 q 232 877 267 872 q 142 882 197 882 l 168 1000 q 267 997 221 1000 q 346 983 313 994 q 399 949 379 972 q 418 886 418 926 q 416 855 418 874 q 411 821 414 836 l 369 625 q 365 601 367 614 q 363 578 363 588 q 383 524 363 546 q 432 499 404 503 l 410 393 q 338 361 368 385 q 294 279 307 338 l 254 82 q 213 -17 242 18 q 142 -70 183 -53 q 50 -92 101 -87 q -58 -96 -1 -96 l -33 22 q 23 24 -1 22 q 64 31 47 25 q 91 51 81 38 q 107 89 101 65 l 150 292 q 167 356 158 329 q 188 401 176 382 q 215 432 200 419 q 250 454 229 444 q 222 486 235 465 q 210 543 210 507 q 213 579 210 561 q 221 615 217 597 l 254 776 z "},"[":{"ha":410,"x_min":-17,"x_max":511,"o":"m 217 1000 l 511 1000 l 488 882 l 340 882 l 156 22 l 303 22 l 279 -96 l -17 -96 l 217 1000 z "},"]":{"ha":410,"x_min":-62,"x_max":467,"o":"m 233 -96 l -62 -96 l -39 22 l 108 22 l 294 882 l 147 882 l 169 1000 l 467 1000 l 233 -96 z "},"˘":{"ha":531,"x_min":36,"x_max":494,"o":"m 229 679 q 99 720 147 679 q 36 853 50 761 l 107 882 q 131 837 115 854 q 165 810 146 819 q 203 797 183 800 q 240 793 224 793 q 352 824 299 793 q 442 903 406 854 l 494 856 q 375 719 442 760 q 229 679 308 679 z "},"¦":{"ha":310,"x_min":-44,"x_max":353,"o":"m 201 933 l 353 933 l 244 436 l 99 436 l 201 933 m 58 264 l 210 264 l 101 -233 l -44 -233 l 58 264 z "},"•":{"ha":483,"x_min":108,"x_max":436,"o":"m 108 506 q 121 569 108 539 q 156 622 133 600 q 208 658 178 644 q 272 671 238 671 q 335 658 306 671 q 388 622 365 644 q 423 569 410 600 q 436 506 436 539 q 423 441 436 471 q 388 390 410 411 q 335 356 365 368 q 272 343 306 343 q 208 356 238 343 q 156 390 178 368 q 121 441 133 411 q 108 506 108 471 z "},"c":{"ha":724,"x_min":15,"x_max":710,"o":"m 617 33 q 494 -1 558 10 q 347 -11 429 -11 q 215 3 275 -11 q 110 50 154 18 q 40 133 65 82 q 15 256 15 183 q 41 395 15 331 q 119 508 67 460 q 251 585 171 557 q 443 613 332 613 q 600 598 533 613 q 710 532 667 583 l 671 354 l 482 354 q 485 396 483 378 q 486 436 486 414 q 476 499 486 481 q 444 518 467 518 q 376 480 406 518 q 328 388 347 442 q 301 276 310 335 q 292 175 292 217 q 293 144 292 160 q 299 114 294 128 q 313 92 304 100 q 336 83 321 83 q 368 92 350 83 q 403 117 386 100 q 435 163 419 135 q 458 229 450 190 l 657 229 l 617 33 z "},"ć":{"ha":724,"x_min":15,"x_max":758,"o":"m 617 33 q 494 -1 558 10 q 347 -11 429 -11 q 215 3 275 -11 q 110 50 154 18 q 40 133 65 82 q 15 256 15 183 q 41 395 15 331 q 119 508 67 460 q 251 585 171 557 q 443 613 332 613 q 600 598 533 613 q 710 532 667 583 l 671 354 l 482 354 q 485 396 483 378 q 486 436 486 414 q 476 499 486 481 q 444 518 467 518 q 376 480 406 518 q 328 388 347 442 q 301 276 310 335 q 292 175 292 217 q 293 144 292 160 q 299 114 294 128 q 313 92 304 100 q 336 83 321 83 q 368 92 350 83 q 403 117 386 100 q 435 163 419 135 q 458 229 450 190 l 657 229 l 617 33 m 390 679 l 519 882 l 758 882 l 510 679 l 390 679 z "},"ˇ":{"ha":597,"x_min":36,"x_max":561,"o":"m 561 882 l 358 679 l 151 679 l 36 882 l 143 882 l 258 754 l 442 882 l 561 882 z "},"č":{"ha":724,"x_min":15,"x_max":781,"o":"m 617 33 q 494 -1 558 10 q 347 -11 429 -11 q 215 3 275 -11 q 110 50 154 18 q 40 133 65 82 q 15 256 15 183 q 41 395 15 331 q 119 508 67 460 q 251 585 171 557 q 443 613 332 613 q 600 598 533 613 q 710 532 667 583 l 671 354 l 482 354 q 485 396 483 378 q 486 436 486 414 q 476 499 486 481 q 444 518 467 518 q 376 480 406 518 q 328 388 347 442 q 301 276 310 335 q 292 175 292 217 q 293 144 292 160 q 299 114 294 128 q 313 92 304 100 q 336 83 321 83 q 368 92 350 83 q 403 117 386 100 q 435 163 419 135 q 458 229 450 190 l 657 229 l 617 33 m 781 882 l 578 679 l 371 679 l 256 882 l 363 882 l 478 754 l 661 882 l 781 882 z "},"ç":{"ha":724,"x_min":15,"x_max":710,"o":"m 617 33 q 503 1 563 11 q 369 -11 443 -8 l 349 -94 q 378 -83 357 -92 q 429 -75 399 -75 q 507 -98 479 -75 q 535 -162 535 -121 q 516 -224 535 -199 q 468 -266 497 -250 q 402 -290 439 -282 q 329 -297 365 -297 q 260 -285 285 -297 q 217 -256 235 -274 l 249 -214 q 278 -232 256 -224 q 321 -240 301 -240 q 343 -237 331 -240 q 366 -227 356 -235 q 384 -207 376 -219 q 392 -175 392 -194 q 383 -148 392 -157 q 361 -139 374 -139 q 342 -144 353 -139 q 325 -165 331 -150 l 221 -165 l 264 -6 q 163 20 208 1 q 84 71 117 39 q 33 149 51 103 q 15 256 15 194 q 41 395 15 331 q 119 508 67 460 q 251 585 171 557 q 443 613 332 613 q 600 598 533 613 q 710 532 667 583 l 671 354 l 482 354 q 485 396 483 378 q 486 436 486 414 q 476 499 486 481 q 444 518 467 518 q 376 480 406 518 q 328 388 347 442 q 301 276 310 335 q 292 175 292 217 q 293 144 292 160 q 299 114 294 128 q 313 92 304 100 q 336 83 321 83 q 368 92 350 83 q 403 117 386 100 q 435 163 419 135 q 458 229 450 190 l 657 229 l 617 33 z "},"ĉ":{"ha":724,"x_min":15,"x_max":724,"o":"m 617 33 q 494 -1 558 10 q 347 -11 429 -11 q 215 3 275 -11 q 110 50 154 18 q 40 133 65 82 q 15 256 15 183 q 41 395 15 331 q 119 508 67 460 q 251 585 171 557 q 443 613 332 613 q 600 598 533 613 q 710 532 667 583 l 671 354 l 482 354 q 485 396 483 378 q 486 436 486 414 q 476 499 486 481 q 444 518 467 518 q 376 480 406 518 q 328 388 347 442 q 301 276 310 335 q 292 175 292 217 q 293 144 292 160 q 299 114 294 128 q 313 92 304 100 q 336 83 321 83 q 368 92 350 83 q 403 117 386 100 q 435 163 419 135 q 458 229 450 190 l 657 229 l 617 33 m 199 679 l 401 882 l 608 882 l 724 679 l 618 679 l 503 808 l 318 679 l 199 679 z "},"ċ":{"ha":724,"x_min":15,"x_max":710,"o":"m 617 33 q 494 -1 558 10 q 347 -11 429 -11 q 215 3 275 -11 q 110 50 154 18 q 40 133 65 82 q 15 256 15 183 q 41 395 15 331 q 119 508 67 460 q 251 585 171 557 q 443 613 332 613 q 600 598 533 613 q 710 532 667 583 l 671 354 l 482 354 q 485 396 483 378 q 486 436 486 414 q 476 499 486 481 q 444 518 467 518 q 376 480 406 518 q 328 388 347 442 q 301 276 310 335 q 292 175 292 217 q 293 144 292 160 q 299 114 294 128 q 313 92 304 100 q 336 83 321 83 q 368 92 350 83 q 403 117 386 100 q 435 163 419 135 q 458 229 450 190 l 657 229 l 617 33 m 640 779 q 627 724 640 747 q 592 683 614 700 q 543 658 571 667 q 486 650 515 650 q 393 676 431 650 q 356 760 356 703 q 368 815 356 790 q 402 855 381 839 q 452 879 424 871 q 511 888 481 888 q 603 861 565 888 q 640 779 640 835 z "},"¸":{"ha":339,"x_min":39,"x_max":357,"o":"m 199 18 l 171 -94 q 200 -83 179 -92 q 251 -75 221 -75 q 329 -98 301 -75 q 357 -162 357 -121 q 338 -224 357 -199 q 290 -266 319 -250 q 224 -290 261 -282 q 151 -297 188 -297 q 82 -285 107 -297 q 39 -256 57 -274 l 71 -214 q 101 -232 78 -224 q 143 -240 124 -240 q 165 -237 153 -240 q 188 -227 178 -235 q 206 -207 199 -219 q 214 -175 214 -194 q 205 -148 214 -157 q 183 -139 196 -139 q 164 -144 175 -139 q 147 -165 153 -150 l 43 -165 l 93 19 l 199 18 z "},"¢":{"ha":746,"x_min":54,"x_max":749,"o":"m 290 149 q 119 227 183 165 q 54 408 54 289 q 76 540 54 478 q 145 649 99 601 q 263 726 192 696 q 431 763 333 756 l 458 897 l 610 897 l 576 761 q 674 738 632 754 q 749 685 717 721 l 710 507 l 521 507 q 524 549 522 531 q 525 589 525 567 q 515 652 525 633 q 483 671 506 671 q 415 633 444 671 q 367 541 386 594 q 340 428 349 488 q 331 328 331 369 q 332 297 331 313 q 338 267 333 281 q 351 244 343 253 q 375 236 360 236 q 442 270 404 236 q 497 382 479 304 l 696 382 l 656 186 q 439 142 561 147 l 406 0 l 260 0 l 290 149 z "},"ˆ":{"ha":597,"x_min":36,"x_max":561,"o":"m 36 679 l 239 882 l 446 882 l 561 679 l 456 679 l 340 808 l 156 679 l 36 679 z "},":":{"ha":392,"x_min":13,"x_max":342,"o":"m 272 113 q 260 60 272 83 q 228 21 249 36 q 183 -3 208 6 q 129 -11 157 -11 q 47 15 81 -11 q 13 97 13 42 q 54 190 13 157 q 151 222 96 222 q 238 195 203 222 q 272 113 272 168 m 342 442 q 330 389 342 413 q 298 350 318 365 q 252 326 278 335 q 199 318 226 318 q 116 344 150 318 q 82 428 82 371 q 124 519 82 486 q 221 551 167 551 q 307 525 272 551 q 342 442 342 499 z "},",":{"ha":382,"x_min":-28,"x_max":279,"o":"m 279 118 q 254 17 279 65 q 191 -73 229 -32 q 105 -145 153 -114 q 11 -194 57 -176 l -28 -136 q 48 -67 22 -97 q 74 -6 74 -36 q -4 100 74 43 q 8 160 -4 133 q 42 204 21 186 q 92 232 64 222 q 149 242 119 242 q 242 211 204 242 q 279 118 279 181 z "},"":{"ha":315,"x_min":47,"x_max":267,"o":"m 267 -176 q 249 -246 267 -212 q 204 -308 232 -279 q 143 -358 176 -336 q 76 -394 110 -381 l 47 -353 q 101 -304 82 -326 q 119 -260 119 -282 q 64 -187 119 -225 q 97 -112 64 -139 q 175 -86 131 -86 q 241 -108 215 -86 q 267 -176 267 -131 z "},"©":{"ha":1049,"x_min":63,"x_max":1018,"o":"m 1018 468 q 974 272 1018 361 q 858 117 931 182 q 693 17 786 53 q 500 -19 600 -19 q 328 11 408 -19 q 190 97 249 42 q 97 231 131 153 q 63 403 63 308 q 105 594 63 507 q 219 746 147 682 q 385 846 292 810 q 581 882 478 882 q 753 851 674 882 q 892 767 833 821 q 985 636 951 713 q 1018 468 1018 560 m 925 463 q 898 597 925 536 q 824 702 871 658 q 713 770 776 746 q 574 794 649 794 q 415 765 490 794 q 283 685 340 736 q 191 563 225 633 q 157 408 157 492 q 184 269 157 332 q 258 162 211 207 q 369 92 306 117 q 508 68 433 68 q 663 97 588 68 q 796 179 738 126 q 890 304 854 232 q 925 463 925 376 m 721 233 q 629 208 676 215 q 522 200 582 200 q 424 210 469 200 q 347 244 379 221 q 296 306 314 268 q 278 396 278 343 q 297 499 278 451 q 354 583 315 547 q 452 639 393 618 q 593 660 511 660 q 708 649 660 660 q 789 600 757 638 l 760 469 l 621 469 q 623 500 622 486 q 624 529 624 514 q 593 590 624 590 q 543 563 564 590 q 508 495 522 535 q 488 412 494 456 q 481 338 481 368 q 486 292 481 314 q 514 269 492 269 q 563 294 536 269 q 604 376 590 318 l 750 376 l 721 233 z "},"¤":{"ha":839,"x_min":22,"x_max":863,"o":"m 328 738 q 413 774 368 761 q 506 786 457 786 q 590 774 550 786 q 663 739 631 761 l 779 836 l 863 732 l 746 635 q 768 528 768 583 q 744 407 768 465 q 679 300 719 349 l 758 201 l 636 99 l 556 197 q 381 150 474 150 q 224 197 290 150 l 104 99 l 22 201 l 140 301 q 119 407 119 349 q 142 526 119 468 q 204 633 164 585 l 126 732 l 250 836 l 328 738 m 481 650 q 399 633 439 650 q 327 585 358 615 q 276 516 296 556 q 257 432 257 476 q 299 327 257 369 q 407 285 340 285 q 487 302 447 285 q 558 349 526 319 q 610 417 590 378 q 629 503 629 457 q 588 608 629 565 q 481 650 547 650 z "},"d":{"ha":801,"x_min":10,"x_max":863,"o":"m 578 933 l 863 933 l 664 0 l 439 0 l 414 89 l 404 89 q 378 59 396 76 q 335 26 361 42 q 272 -1 308 10 q 189 -11 236 -11 q 106 3 140 -11 q 51 43 72 18 q 19 103 29 68 q 10 181 10 139 q 13 238 10 199 q 26 326 15 278 q 56 424 36 374 q 110 517 76 475 q 194 585 144 558 q 315 613 244 613 q 363 608 338 613 q 410 593 388 604 q 451 561 433 582 q 478 507 469 540 l 488 507 l 578 933 m 408 476 q 353 440 375 476 q 317 354 331 403 q 297 257 303 306 q 290 185 290 208 q 299 138 290 157 q 331 119 307 119 q 358 126 344 119 q 383 141 371 132 q 403 160 394 150 q 417 176 411 169 l 471 429 q 445 460 461 444 q 408 476 429 476 z "},"†":{"ha":507,"x_min":65,"x_max":528,"o":"m 90 621 l 244 621 l 311 933 l 447 933 l 379 621 l 528 621 l 507 517 l 357 517 l 196 -233 l 65 -233 l 224 517 l 68 517 l 90 621 z "},"‡":{"ha":519,"x_min":-15,"x_max":533,"o":"m 96 621 l 250 621 l 317 933 l 453 933 l 385 621 l 533 621 l 513 517 l 363 517 l 294 199 l 444 199 l 424 93 l 271 93 l 201 -233 l 71 -233 l 139 93 l -15 93 l 7 199 l 161 199 l 229 517 l 74 517 l 96 621 z "},"ď":{"ha":935,"x_min":10,"x_max":1115,"o":"m 578 933 l 863 933 l 664 0 l 439 0 l 414 89 l 404 89 q 378 59 396 76 q 335 26 361 42 q 272 -1 308 10 q 189 -11 236 -11 q 106 3 140 -11 q 51 43 72 18 q 19 103 29 68 q 10 181 10 139 q 13 238 10 199 q 26 326 15 278 q 56 424 36 374 q 110 517 76 475 q 194 585 144 558 q 315 613 244 613 q 363 608 338 613 q 410 593 388 604 q 451 561 433 582 q 478 507 469 540 l 488 507 l 578 933 m 408 476 q 353 440 375 476 q 317 354 331 403 q 297 257 303 306 q 290 185 290 208 q 299 138 290 157 q 331 119 307 119 q 358 126 344 119 q 383 141 371 132 q 403 160 394 150 q 417 176 411 169 l 471 429 q 445 460 461 444 q 408 476 429 476 m 858 588 q 907 628 881 604 q 954 693 933 653 q 900 726 921 701 q 879 786 879 750 q 890 835 879 814 q 918 872 900 857 q 958 896 936 888 q 1006 904 981 904 q 1083 878 1051 904 q 1115 800 1115 853 q 1095 713 1115 754 q 1043 639 1075 672 q 971 581 1011 606 q 890 539 931 556 q 874 563 881 551 q 862 580 867 572 q 858 588 857 588 z "},"đ":{"ha":801,"x_min":10,"x_max":947,"o":"m 433 797 l 549 797 l 578 933 l 863 933 l 833 797 l 947 797 l 922 692 l 811 692 l 664 0 l 439 0 l 414 89 l 404 89 q 378 59 396 76 q 335 26 361 42 q 272 -1 308 10 q 189 -11 236 -11 q 106 3 140 -11 q 51 43 72 18 q 19 103 29 68 q 10 181 10 139 q 13 238 10 199 q 26 326 15 278 q 56 424 36 374 q 110 517 76 475 q 194 585 144 558 q 315 613 244 613 q 363 608 338 613 q 410 593 388 604 q 451 561 433 582 q 478 507 469 540 l 488 507 l 526 692 l 407 692 l 433 797 m 408 476 q 353 440 375 476 q 317 354 331 403 q 297 257 303 306 q 290 185 290 208 q 299 138 290 157 q 331 119 307 119 q 358 126 344 119 q 383 141 371 132 q 403 160 394 150 q 417 176 411 169 l 471 429 q 445 460 461 444 q 408 476 429 476 z "},"ḍ":{"ha":801,"x_min":10,"x_max":863,"o":"m 578 933 l 863 933 l 664 0 l 439 0 l 414 89 l 404 89 q 378 59 396 76 q 335 26 361 42 q 272 -1 308 10 q 189 -11 236 -11 q 106 3 140 -11 q 51 43 72 18 q 19 103 29 68 q 10 181 10 139 q 13 238 10 199 q 26 326 15 278 q 56 424 36 374 q 110 517 76 475 q 194 585 144 558 q 315 613 244 613 q 363 608 338 613 q 410 593 388 604 q 451 561 433 582 q 478 507 469 540 l 488 507 l 578 933 m 408 476 q 353 440 375 476 q 317 354 331 403 q 297 257 303 306 q 290 185 290 208 q 299 138 290 157 q 331 119 307 119 q 358 126 344 119 q 383 141 371 132 q 403 160 394 150 q 417 176 411 169 l 471 429 q 445 460 461 444 q 408 476 429 476 m 440 -200 q 430 -244 440 -225 q 402 -276 419 -264 q 362 -296 385 -289 q 315 -303 339 -303 q 240 -282 271 -303 q 208 -214 208 -261 q 247 -138 208 -164 q 335 -112 285 -112 q 410 -133 379 -112 q 440 -200 440 -154 z "},"°":{"ha":483,"x_min":117,"x_max":515,"o":"m 515 731 q 497 649 515 686 q 449 584 479 611 q 380 542 419 557 q 299 528 340 528 q 226 540 260 528 q 169 576 193 553 q 131 631 144 599 q 117 703 117 663 q 134 784 117 747 q 181 848 151 821 q 250 890 211 875 q 332 904 289 904 q 404 892 371 904 q 463 856 438 879 q 501 801 488 833 q 515 731 515 769 m 417 726 q 389 789 417 763 q 325 815 361 815 q 283 807 303 815 q 247 784 263 799 q 222 750 231 769 q 213 707 213 731 q 239 640 213 667 q 303 614 265 614 q 345 623 325 614 q 381 647 365 632 q 407 683 397 663 q 417 726 417 703 z "},"¨":{"ha":579,"x_min":36,"x_max":543,"o":"m 150 876 q 224 848 200 876 q 247 779 247 819 q 219 699 247 735 q 135 664 190 664 q 60 692 83 664 q 36 761 36 721 q 65 841 36 806 q 150 876 94 876 m 444 876 q 519 848 496 876 q 543 779 543 819 q 514 699 543 735 q 429 664 485 664 q 354 692 378 664 q 331 761 331 721 q 360 841 331 806 q 444 876 389 876 z "},"÷":{"ha":639,"x_min":43,"x_max":631,"o":"m 393 163 q 381 110 393 133 q 349 70 369 86 q 303 46 329 54 q 250 38 278 38 q 167 64 201 38 q 133 147 133 90 q 175 239 133 207 q 272 271 217 271 q 358 244 324 271 q 393 163 393 218 m 539 728 q 527 675 539 699 q 495 636 515 651 q 449 613 475 621 q 396 604 424 604 q 313 631 347 604 q 279 713 279 657 q 321 805 279 772 q 418 838 363 838 q 504 810 469 838 q 539 728 539 783 m 72 506 l 631 506 l 603 379 l 43 379 l 72 506 z "},"$":{"ha":828,"x_min":58,"x_max":775,"o":"m 271 -8 q 153 14 204 -1 q 58 57 101 29 l 93 156 q 156 127 122 139 q 224 108 190 115 q 288 96 257 100 q 339 92 318 92 q 407 104 381 92 q 449 135 433 117 q 472 176 465 154 q 478 218 478 199 q 464 272 478 250 q 426 308 450 293 q 370 334 403 324 q 299 356 338 344 q 227 379 264 365 q 160 418 190 393 q 110 483 129 443 q 90 585 90 522 q 124 723 90 667 q 213 815 158 779 q 333 868 267 850 q 461 892 399 886 l 485 1000 l 636 1000 l 610 892 q 701 874 661 886 q 775 842 742 861 l 740 742 q 640 779 689 764 q 532 794 592 794 q 451 784 483 794 q 401 756 419 774 q 374 715 382 738 q 365 671 365 693 q 383 614 365 635 q 429 581 400 593 q 498 560 458 568 q 583 539 538 551 q 653 514 618 529 q 715 473 688 499 q 758 406 742 447 q 775 306 775 365 q 747 172 775 228 q 671 79 719 117 q 558 21 622 42 q 421 -7 493 0 l 388 -149 l 242 -149 l 271 -8 z "},"˙":{"ha":357,"x_min":36,"x_max":321,"o":"m 321 779 q 308 724 321 747 q 273 683 294 700 q 224 658 251 667 q 167 650 196 650 q 74 676 111 650 q 36 760 36 703 q 49 815 36 790 q 83 855 61 839 q 133 879 104 871 q 192 888 161 888 q 283 861 246 888 q 321 779 321 835 z "},"ı":{"ha":407,"x_min":-14,"x_max":397,"o":"m 268 0 l -14 0 l 113 597 l 397 597 l 268 0 z "},"ȷ":{"ha":408,"x_min":-147,"x_max":397,"o":"m 281 51 q 216 -102 260 -46 q 114 -187 172 -158 q -12 -225 56 -217 q -147 -233 -79 -233 l -131 -137 q -92 -133 -110 -137 q -61 -115 -75 -129 q -35 -74 -47 -101 q -14 0 -24 -47 l 113 597 l 397 597 l 281 51 z "},"e":{"ha":760,"x_min":15,"x_max":738,"o":"m 303 279 q 295 221 297 249 q 293 171 293 193 q 294 143 293 158 q 301 115 296 128 q 315 92 306 101 q 340 83 324 83 q 369 92 353 83 q 401 115 385 100 q 431 153 417 131 q 454 203 446 175 l 682 203 l 646 54 q 582 24 618 36 q 506 3 546 11 q 424 -8 465 -4 q 344 -11 382 -11 q 215 1 275 -11 q 111 44 156 14 q 41 126 67 75 q 15 251 15 176 q 37 385 15 319 q 109 501 58 450 q 245 582 160 551 q 458 613 331 613 q 667 569 597 613 q 738 435 738 526 q 726 353 738 397 q 693 279 715 310 l 303 279 m 488 444 q 474 503 488 488 q 440 518 460 518 q 399 503 418 518 q 365 465 381 489 q 338 409 350 440 q 317 343 325 378 l 475 343 q 481 378 478 360 q 485 411 483 393 q 488 444 488 429 z "},"é":{"ha":760,"x_min":15,"x_max":763,"o":"m 303 279 q 295 221 297 249 q 293 171 293 193 q 294 143 293 158 q 301 115 296 128 q 315 92 306 101 q 340 83 324 83 q 369 92 353 83 q 401 115 385 100 q 431 153 417 131 q 454 203 446 175 l 682 203 l 646 54 q 582 24 618 36 q 506 3 546 11 q 424 -8 465 -4 q 344 -11 382 -11 q 215 1 275 -11 q 111 44 156 14 q 41 126 67 75 q 15 251 15 176 q 37 385 15 319 q 109 501 58 450 q 245 582 160 551 q 458 613 331 613 q 667 569 597 613 q 738 435 738 526 q 726 353 738 397 q 693 279 715 310 l 303 279 m 488 444 q 474 503 488 488 q 440 518 460 518 q 399 503 418 518 q 365 465 381 489 q 338 409 350 440 q 317 343 325 378 l 475 343 q 481 378 478 360 q 485 411 483 393 q 488 444 488 429 m 394 679 l 524 882 l 763 882 l 514 679 l 394 679 z "},"ĕ":{"ha":760,"x_min":15,"x_max":738,"o":"m 303 279 q 295 221 297 249 q 293 171 293 193 q 294 143 293 158 q 301 115 296 128 q 315 92 306 101 q 340 83 324 83 q 369 92 353 83 q 401 115 385 100 q 431 153 417 131 q 454 203 446 175 l 682 203 l 646 54 q 582 24 618 36 q 506 3 546 11 q 424 -8 465 -4 q 344 -11 382 -11 q 215 1 275 -11 q 111 44 156 14 q 41 126 67 75 q 15 251 15 176 q 37 385 15 319 q 109 501 58 450 q 245 582 160 551 q 458 613 331 613 q 667 569 597 613 q 738 435 738 526 q 726 353 738 397 q 693 279 715 310 l 303 279 m 488 444 q 474 503 488 488 q 440 518 460 518 q 399 503 418 518 q 365 465 381 489 q 338 409 350 440 q 317 343 325 378 l 475 343 q 481 378 478 360 q 485 411 483 393 q 488 444 488 429 m 461 679 q 331 720 379 679 q 268 853 282 761 l 339 882 q 363 837 347 854 q 397 810 378 819 q 435 797 415 800 q 472 793 456 793 q 584 824 531 793 q 674 903 638 854 l 726 856 q 607 719 674 760 q 461 679 540 679 z "},"ě":{"ha":760,"x_min":15,"x_max":786,"o":"m 303 279 q 295 221 297 249 q 293 171 293 193 q 294 143 293 158 q 301 115 296 128 q 315 92 306 101 q 340 83 324 83 q 369 92 353 83 q 401 115 385 100 q 431 153 417 131 q 454 203 446 175 l 682 203 l 646 54 q 582 24 618 36 q 506 3 546 11 q 424 -8 465 -4 q 344 -11 382 -11 q 215 1 275 -11 q 111 44 156 14 q 41 126 67 75 q 15 251 15 176 q 37 385 15 319 q 109 501 58 450 q 245 582 160 551 q 458 613 331 613 q 667 569 597 613 q 738 435 738 526 q 726 353 738 397 q 693 279 715 310 l 303 279 m 488 444 q 474 503 488 488 q 440 518 460 518 q 399 503 418 518 q 365 465 381 489 q 338 409 350 440 q 317 343 325 378 l 475 343 q 481 378 478 360 q 485 411 483 393 q 488 444 488 429 m 786 882 l 583 679 l 376 679 l 261 882 l 368 882 l 483 754 l 667 882 l 786 882 z "},"ê":{"ha":760,"x_min":15,"x_max":742,"o":"m 303 279 q 295 221 297 249 q 293 171 293 193 q 294 143 293 158 q 301 115 296 128 q 315 92 306 101 q 340 83 324 83 q 369 92 353 83 q 401 115 385 100 q 431 153 417 131 q 454 203 446 175 l 682 203 l 646 54 q 582 24 618 36 q 506 3 546 11 q 424 -8 465 -4 q 344 -11 382 -11 q 215 1 275 -11 q 111 44 156 14 q 41 126 67 75 q 15 251 15 176 q 37 385 15 319 q 109 501 58 450 q 245 582 160 551 q 458 613 331 613 q 667 569 597 613 q 738 435 738 526 q 726 353 738 397 q 693 279 715 310 l 303 279 m 488 444 q 474 503 488 488 q 440 518 460 518 q 399 503 418 518 q 365 465 381 489 q 338 409 350 440 q 317 343 325 378 l 475 343 q 481 378 478 360 q 485 411 483 393 q 488 444 488 429 m 217 679 l 419 882 l 626 882 l 742 679 l 636 679 l 521 808 l 336 679 l 217 679 z "},"ë":{"ha":760,"x_min":15,"x_max":749,"o":"m 303 279 q 295 221 297 249 q 293 171 293 193 q 294 143 293 158 q 301 115 296 128 q 315 92 306 101 q 340 83 324 83 q 369 92 353 83 q 401 115 385 100 q 431 153 417 131 q 454 203 446 175 l 682 203 l 646 54 q 582 24 618 36 q 506 3 546 11 q 424 -8 465 -4 q 344 -11 382 -11 q 215 1 275 -11 q 111 44 156 14 q 41 126 67 75 q 15 251 15 176 q 37 385 15 319 q 109 501 58 450 q 245 582 160 551 q 458 613 331 613 q 667 569 597 613 q 738 435 738 526 q 726 353 738 397 q 693 279 715 310 l 303 279 m 488 444 q 474 503 488 488 q 440 518 460 518 q 399 503 418 518 q 365 465 381 489 q 338 409 350 440 q 317 343 325 378 l 475 343 q 481 378 478 360 q 485 411 483 393 q 488 444 488 429 m 356 876 q 429 848 406 876 q 453 779 453 819 q 424 699 453 735 q 340 664 396 664 q 265 692 289 664 q 242 761 242 721 q 271 841 242 806 q 356 876 300 876 m 650 876 q 725 848 701 876 q 749 779 749 819 q 719 699 749 735 q 635 664 690 664 q 560 692 583 664 q 536 761 536 721 q 565 841 536 806 q 650 876 594 876 z "},"ė":{"ha":760,"x_min":15,"x_max":738,"o":"m 303 279 q 295 221 297 249 q 293 171 293 193 q 294 143 293 158 q 301 115 296 128 q 315 92 306 101 q 340 83 324 83 q 369 92 353 83 q 401 115 385 100 q 431 153 417 131 q 454 203 446 175 l 682 203 l 646 54 q 582 24 618 36 q 506 3 546 11 q 424 -8 465 -4 q 344 -11 382 -11 q 215 1 275 -11 q 111 44 156 14 q 41 126 67 75 q 15 251 15 176 q 37 385 15 319 q 109 501 58 450 q 245 582 160 551 q 458 613 331 613 q 667 569 597 613 q 738 435 738 526 q 726 353 738 397 q 693 279 715 310 l 303 279 m 488 444 q 474 503 488 488 q 440 518 460 518 q 399 503 418 518 q 365 465 381 489 q 338 409 350 440 q 317 343 325 378 l 475 343 q 481 378 478 360 q 485 411 483 393 q 488 444 488 429 m 619 779 q 606 724 619 747 q 572 683 593 700 q 522 658 550 667 q 465 650 494 650 q 372 676 410 650 q 335 760 335 703 q 347 815 335 790 q 381 855 360 839 q 431 879 403 871 q 490 888 460 888 q 582 861 544 888 q 619 779 619 835 z "},"ẹ":{"ha":760,"x_min":15,"x_max":738,"o":"m 303 279 q 295 221 297 249 q 293 171 293 193 q 294 143 293 158 q 301 115 296 128 q 315 92 306 101 q 340 83 324 83 q 369 92 353 83 q 401 115 385 100 q 431 153 417 131 q 454 203 446 175 l 682 203 l 646 54 q 582 24 618 36 q 506 3 546 11 q 424 -8 465 -4 q 344 -11 382 -11 q 215 1 275 -11 q 111 44 156 14 q 41 126 67 75 q 15 251 15 176 q 37 385 15 319 q 109 501 58 450 q 245 582 160 551 q 458 613 331 613 q 667 569 597 613 q 738 435 738 526 q 726 353 738 397 q 693 279 715 310 l 303 279 m 488 444 q 474 503 488 488 q 440 518 460 518 q 399 503 418 518 q 365 465 381 489 q 338 409 350 440 q 317 343 325 378 l 475 343 q 481 378 478 360 q 485 411 483 393 q 488 444 488 429 m 417 -200 q 406 -244 417 -225 q 378 -276 396 -264 q 338 -296 361 -289 q 292 -303 315 -303 q 216 -282 247 -303 q 185 -214 185 -261 q 223 -138 185 -164 q 311 -112 261 -112 q 386 -133 356 -112 q 417 -200 417 -154 z "},"è":{"ha":760,"x_min":15,"x_max":738,"o":"m 303 279 q 295 221 297 249 q 293 171 293 193 q 294 143 293 158 q 301 115 296 128 q 315 92 306 101 q 340 83 324 83 q 369 92 353 83 q 401 115 385 100 q 431 153 417 131 q 454 203 446 175 l 682 203 l 646 54 q 582 24 618 36 q 506 3 546 11 q 424 -8 465 -4 q 344 -11 382 -11 q 215 1 275 -11 q 111 44 156 14 q 41 126 67 75 q 15 251 15 176 q 37 385 15 319 q 109 501 58 450 q 245 582 160 551 q 458 613 331 613 q 667 569 597 613 q 738 435 738 526 q 726 353 738 397 q 693 279 715 310 l 303 279 m 488 444 q 474 503 488 488 q 440 518 460 518 q 399 503 418 518 q 365 465 381 489 q 338 409 350 440 q 317 343 325 378 l 475 343 q 481 378 478 360 q 485 411 483 393 q 488 444 488 429 m 181 882 l 421 882 l 567 679 l 438 679 l 181 882 z "},"₈":{"ha":385,"x_min":-26,"x_max":319,"o":"m 125 -11 q 12 15 50 -11 q -26 89 -26 40 q -8 147 -26 121 q 53 188 10 172 q 21 209 35 193 q 7 251 7 225 q 22 297 7 278 q 60 330 36 317 q 116 349 85 343 q 181 356 147 356 q 249 347 222 356 q 292 325 276 339 q 314 295 308 311 q 319 264 319 279 q 312 228 319 243 q 294 205 304 214 q 272 190 283 196 q 253 183 260 185 q 296 156 279 176 q 313 104 313 135 q 263 22 313 56 q 125 -11 213 -11 m 154 215 q 188 233 178 215 q 197 265 197 250 q 194 291 197 279 q 175 303 190 303 q 141 286 151 303 q 131 253 131 269 q 135 228 131 240 q 154 215 139 215 m 132 42 q 166 64 157 42 q 175 107 175 86 q 172 136 175 125 q 153 147 168 147 q 119 126 129 147 q 108 86 108 106 q 113 56 108 69 q 132 42 118 42 z "},"⁸":{"ha":383,"x_min":85,"x_max":431,"o":"m 236 528 q 85 629 85 528 q 103 686 85 661 q 164 726 121 711 q 132 748 146 732 q 118 790 118 764 q 133 836 118 817 q 172 869 147 856 q 227 888 196 882 q 292 894 258 894 q 360 886 333 894 q 403 864 388 878 q 425 834 419 850 q 431 804 431 818 q 423 769 431 783 q 405 744 415 754 q 383 729 394 735 q 364 722 371 724 q 407 694 390 715 q 424 643 424 674 q 374 561 424 594 q 236 528 324 528 m 265 754 q 299 772 289 754 q 308 806 308 789 q 305 830 308 818 q 286 842 301 842 q 252 825 263 842 q 242 792 242 808 q 246 767 242 781 q 265 754 250 754 m 243 581 q 277 603 268 581 q 286 646 286 625 q 283 676 286 664 q 264 688 279 688 q 230 666 240 688 q 219 625 219 644 q 224 594 219 608 q 243 581 229 581 z "},"…":{"ha":1264,"x_min":0,"x_max":1165,"o":"m 282 122 q 269 65 282 90 q 234 24 256 40 q 185 -2 213 7 q 126 -11 157 -11 q 37 17 74 -11 q 0 107 0 46 q 13 164 0 139 q 46 206 25 189 q 94 231 67 222 q 150 240 121 240 q 244 212 207 240 q 282 122 282 183 m 724 122 q 710 65 724 90 q 676 24 697 40 q 626 -2 654 7 q 568 -11 599 -11 q 478 17 515 -11 q 442 107 442 46 q 454 164 442 139 q 488 206 467 189 q 535 231 508 222 q 592 240 563 240 q 686 212 649 240 q 724 122 724 183 m 1165 122 q 1152 65 1165 90 q 1117 24 1139 40 q 1068 -2 1096 7 q 1011 -11 1040 -11 q 921 17 958 -11 q 883 107 883 46 q 896 164 883 139 q 929 206 908 189 q 977 231 950 222 q 1033 240 1004 240 q 1128 212 1090 240 q 1165 122 1165 183 z "},"ē":{"ha":760,"x_min":15,"x_max":767,"o":"m 303 279 q 295 221 297 249 q 293 171 293 193 q 294 143 293 158 q 301 115 296 128 q 315 92 306 101 q 340 83 324 83 q 369 92 353 83 q 401 115 385 100 q 431 153 417 131 q 454 203 446 175 l 682 203 l 646 54 q 582 24 618 36 q 506 3 546 11 q 424 -8 465 -4 q 344 -11 382 -11 q 215 1 275 -11 q 111 44 156 14 q 41 126 67 75 q 15 251 15 176 q 37 385 15 319 q 109 501 58 450 q 245 582 160 551 q 458 613 331 613 q 667 569 597 613 q 738 435 738 526 q 726 353 738 397 q 693 279 715 310 l 303 279 m 488 444 q 474 503 488 488 q 440 518 460 518 q 399 503 418 518 q 365 465 381 489 q 338 409 350 440 q 317 343 325 378 l 475 343 q 481 378 478 360 q 485 411 483 393 q 488 444 488 429 m 274 838 l 767 838 l 742 731 l 247 731 l 274 838 z "},"—":{"ha":1214,"x_min":40,"x_max":1144,"o":"m 69 356 l 1144 356 l 1117 229 l 40 229 l 69 356 z "},"–":{"ha":833,"x_min":40,"x_max":764,"o":"m 69 356 l 764 356 l 736 229 l 40 229 l 69 356 z "},"ŋ":{"ha":814,"x_min":-14,"x_max":775,"o":"m 372 508 q 438 560 401 536 q 512 596 469 579 q 607 613 554 613 q 728 576 682 613 q 775 475 775 539 q 771 431 775 457 q 761 378 767 406 q 749 322 756 350 q 739 271 743 293 l 693 51 q 629 -102 672 -46 q 528 -187 586 -158 q 402 -225 469 -217 q 267 -233 335 -233 l 282 -137 q 320 -133 303 -137 q 351 -115 338 -129 q 377 -74 365 -101 q 399 0 389 -47 l 475 363 q 481 399 478 381 q 486 433 485 418 q 476 467 486 454 q 444 481 465 481 q 397 463 419 481 q 361 432 374 444 l 269 0 l -14 0 l 113 597 l 339 597 l 364 508 l 372 508 z "},"ę":{"ha":760,"x_min":15,"x_max":738,"o":"m 303 279 q 295 221 297 249 q 293 172 293 193 q 294 144 293 160 q 300 115 296 129 q 313 92 304 101 q 338 83 322 83 q 369 92 351 83 q 403 117 386 101 q 433 154 419 132 q 454 203 446 176 l 682 203 l 646 54 q 611 37 635 47 q 568 19 588 26 q 522 -4 547 11 q 476 -40 497 -19 q 441 -87 456 -61 q 426 -140 426 -112 q 439 -179 426 -167 q 469 -192 451 -192 q 499 -184 482 -192 q 542 -156 517 -176 l 574 -214 q 476 -266 532 -249 q 368 -283 421 -283 q 249 -182 249 -283 q 260 -122 249 -149 q 290 -75 271 -96 q 332 -38 308 -54 q 381 -10 356 -22 q 362 -11 371 -11 q 344 -11 353 -11 q 214 1 274 -11 q 110 45 154 14 q 40 128 65 76 q 15 257 15 179 q 37 386 15 322 q 109 500 58 450 q 244 581 160 550 q 456 613 329 613 q 666 570 594 613 q 738 435 738 528 q 726 353 738 397 q 693 279 715 310 l 303 279 m 488 444 q 474 503 488 488 q 440 518 460 518 q 399 503 418 518 q 365 465 381 489 q 338 409 350 440 q 317 343 325 378 l 475 343 q 481 378 478 360 q 485 411 483 393 q 488 444 488 429 z "},"=":{"ha":574,"x_min":38,"x_max":549,"o":"m 61 329 l 499 329 l 476 225 l 38 225 l 61 329 m 111 563 l 549 563 l 528 458 l 88 458 l 111 563 z "},"ð":{"ha":858,"x_min":17,"x_max":933,"o":"m 382 754 l 557 774 q 521 845 543 817 q 467 894 499 874 l 565 933 q 670 879 624 914 q 751 797 717 844 l 919 817 l 933 713 l 806 697 q 842 497 842 601 q 808 303 842 394 q 708 141 774 211 q 547 30 642 71 q 329 -11 451 -11 q 184 8 243 -11 q 88 63 125 28 q 33 142 50 97 q 17 240 17 188 q 25 327 17 271 q 64 440 33 383 q 154 538 94 496 q 315 579 214 579 q 372 575 339 579 q 437 560 406 571 q 494 528 468 549 q 529 472 519 507 l 544 472 q 569 553 564 513 q 575 635 575 593 q 575 653 575 644 q 574 669 575 661 l 401 650 l 382 754 m 344 83 q 401 108 378 83 q 440 172 425 133 q 463 256 456 210 q 469 342 469 301 q 461 394 469 376 q 425 411 453 411 q 362 385 388 411 q 320 321 336 358 q 297 241 304 283 q 289 168 289 199 q 301 106 289 128 q 344 83 314 83 z "},"ẽ":{"ha":760,"x_min":15,"x_max":768,"o":"m 303 279 q 295 221 297 249 q 293 171 293 193 q 294 143 293 158 q 301 115 296 128 q 315 92 306 101 q 340 83 324 83 q 369 92 353 83 q 401 115 385 100 q 431 153 417 131 q 454 203 446 175 l 682 203 l 646 54 q 582 24 618 36 q 506 3 546 11 q 424 -8 465 -4 q 344 -11 382 -11 q 215 1 275 -11 q 111 44 156 14 q 41 126 67 75 q 15 251 15 176 q 37 385 15 319 q 109 501 58 450 q 245 582 160 551 q 458 613 331 613 q 667 569 597 613 q 738 435 738 526 q 726 353 738 397 q 693 279 715 310 l 303 279 m 488 444 q 474 503 488 488 q 440 518 460 518 q 399 503 418 518 q 365 465 381 489 q 338 409 350 440 q 317 343 325 378 l 475 343 q 481 378 478 360 q 485 411 483 393 q 488 444 488 429 m 768 854 q 685 740 726 778 q 581 703 643 703 q 522 711 556 703 q 452 728 488 719 q 385 746 417 738 q 335 754 354 754 q 283 738 310 754 q 244 706 257 721 l 199 746 q 285 853 242 817 q 389 889 329 889 q 444 882 411 889 q 510 866 476 875 q 576 850 544 857 q 629 843 608 843 q 676 856 649 843 q 719 889 703 869 l 768 854 z "},"!":{"ha":408,"x_min":29,"x_max":467,"o":"m 183 933 l 467 933 l 289 279 l 92 279 l 183 933 m 29 90 q 42 142 29 119 q 74 181 54 165 q 120 203 94 196 q 174 211 146 211 q 260 186 225 211 q 296 110 296 161 q 284 58 296 81 q 252 19 272 35 q 206 -3 232 4 q 151 -11 181 -11 q 65 14 100 -11 q 29 90 29 39 z "},"¡":{"ha":411,"x_min":-60,"x_max":378,"o":"m 224 -233 l -60 -233 l 118 421 l 315 421 l 224 -233 m 378 610 q 365 558 378 581 q 333 519 353 535 q 287 497 313 504 q 233 489 261 489 q 147 514 182 489 q 111 590 111 539 q 123 642 111 619 q 155 681 135 665 q 201 703 175 696 q 256 711 226 711 q 342 686 307 711 q 378 610 378 661 z "},"f":{"ha":561,"x_min":44,"x_max":753,"o":"m 65 597 l 172 597 l 185 654 q 238 795 203 738 q 320 889 272 853 q 429 941 368 925 q 560 957 490 957 q 651 951 603 957 q 753 933 700 946 l 731 822 q 665 828 700 826 q 610 831 631 831 q 562 826 582 831 q 526 810 542 822 q 500 778 511 799 q 482 722 489 757 l 456 597 l 601 597 l 583 504 l 436 504 l 329 0 l 46 0 l 153 504 l 44 504 l 65 597 z "},"ﬀ":{"ha":1019,"x_min":44,"x_max":1213,"o":"m 64 597 l 171 597 l 176 621 q 228 762 194 704 q 311 856 263 819 q 423 908 360 892 q 563 924 486 924 q 678 915 621 924 q 783 892 735 907 q 891 942 832 926 q 1018 957 950 957 q 1110 951 1061 957 q 1213 933 1158 946 l 1189 822 q 1124 828 1158 826 q 1069 831 1090 831 q 1021 826 1042 831 q 985 810 1000 822 q 958 778 969 799 q 940 722 947 757 l 914 597 l 1060 597 l 1042 504 l 894 504 l 788 0 l 504 0 l 611 504 l 435 504 l 328 0 l 46 0 l 151 504 l 44 504 l 64 597 m 454 597 l 631 597 l 643 654 q 663 724 651 692 q 690 785 675 757 q 594 797 642 797 q 515 776 543 797 q 474 689 488 754 l 454 597 z "},"ﬃ":{"ha":1383,"x_min":44,"x_max":1374,"o":"m 64 597 l 171 597 l 176 621 q 228 762 194 704 q 311 856 263 819 q 423 908 360 892 q 563 924 486 924 q 685 913 625 924 q 796 888 746 903 q 921 940 853 924 q 1067 957 989 957 q 1196 944 1135 957 q 1329 904 1257 932 l 1285 767 q 1197 798 1240 786 q 1103 810 1153 810 q 1049 806 1075 810 q 1001 790 1024 801 q 963 756 979 778 q 938 700 946 735 l 915 597 l 1374 597 l 1246 0 l 963 0 l 1069 504 l 896 504 l 788 0 l 504 0 l 611 504 l 435 504 l 328 0 l 46 0 l 151 504 l 44 504 l 64 597 m 454 597 l 631 597 l 643 654 q 694 785 660 729 q 644 794 669 792 q 594 797 618 797 q 515 776 543 797 q 474 689 488 754 l 454 597 z "},"ﬄ":{"ha":1386,"x_min":44,"x_max":1447,"o":"m 64 597 l 171 597 l 176 621 q 228 762 194 704 q 311 856 263 819 q 423 908 360 892 q 563 924 486 924 q 681 915 622 924 q 788 890 739 906 q 903 941 839 925 q 1043 957 967 957 q 1141 951 1088 957 q 1249 933 1194 946 l 1447 933 l 1247 0 l 964 0 l 1136 814 q 1097 826 1115 822 q 1056 831 1079 831 q 1017 826 1035 831 q 984 810 999 822 q 958 778 969 799 q 940 722 947 757 l 914 597 l 1031 597 l 1013 504 l 894 504 l 788 0 l 504 0 l 611 504 l 435 504 l 328 0 l 46 0 l 151 504 l 44 504 l 64 597 m 454 597 l 631 597 l 643 654 q 663 724 651 692 q 692 785 675 757 q 594 797 643 797 q 515 776 543 797 q 474 689 488 754 l 454 597 z "},"ﬁ":{"ha":924,"x_min":44,"x_max":914,"o":"m 64 597 l 171 597 l 183 654 q 241 795 201 738 q 337 889 281 853 q 462 941 393 925 q 607 957 531 957 q 737 944 675 957 q 869 904 799 932 l 825 767 q 737 798 781 786 q 643 810 693 810 q 590 806 617 810 q 542 790 564 801 q 503 756 519 778 q 478 700 486 735 l 456 597 l 914 597 l 786 0 l 503 0 l 610 504 l 436 504 l 328 0 l 46 0 l 151 504 l 44 504 l 64 597 z "},"ﬂ":{"ha":926,"x_min":44,"x_max":988,"o":"m 64 597 l 171 597 l 183 654 q 322 885 218 814 q 583 957 425 957 q 682 951 628 957 q 789 933 736 946 l 988 933 l 788 0 l 504 0 l 676 814 q 638 826 656 822 q 597 831 621 831 q 558 826 576 831 q 526 810 540 822 q 500 778 511 799 q 482 722 489 757 l 456 597 l 572 597 l 553 504 l 435 504 l 328 0 l 46 0 l 151 504 l 44 504 l 64 597 z "},"⅝":{"ha":989,"x_min":90,"x_max":903,"o":"m 147 0 l 719 882 l 857 882 l 300 0 l 147 0 m 708 -11 q 595 15 633 -11 q 557 89 557 40 q 575 147 557 121 q 636 188 593 172 q 604 209 618 193 q 590 251 590 225 q 605 297 590 278 q 644 330 619 317 q 699 349 668 343 q 764 356 731 356 q 833 347 806 356 q 876 325 860 339 q 897 295 892 311 q 903 264 903 279 q 895 228 903 243 q 877 205 888 214 q 855 190 867 196 q 836 183 843 185 q 879 156 863 176 q 896 104 896 135 q 846 22 896 56 q 708 -11 796 -11 m 738 215 q 771 233 761 215 q 781 265 781 250 q 777 291 781 279 q 758 303 774 303 q 724 286 735 303 q 714 253 714 269 q 718 228 714 240 q 738 215 722 215 m 715 42 q 749 64 740 42 q 758 107 758 86 q 755 136 758 125 q 736 147 751 147 q 702 126 713 147 q 692 86 692 106 q 697 56 692 69 q 715 42 701 42 m 418 815 l 243 815 l 232 758 q 260 774 244 768 q 303 781 275 781 q 363 770 339 781 q 401 744 386 760 q 422 708 415 728 q 428 669 428 689 q 374 567 428 607 q 226 528 321 528 q 158 537 190 528 q 90 575 125 546 l 104 650 l 219 650 q 218 632 218 644 q 222 592 218 604 q 240 581 225 581 q 263 590 254 581 q 278 613 272 599 q 288 642 285 626 q 290 671 290 658 q 284 706 290 690 q 257 721 278 721 q 238 715 246 721 q 219 697 231 710 l 125 697 l 165 882 l 433 882 l 418 815 z "},"₅":{"ha":364,"x_min":-39,"x_max":304,"o":"m 289 276 l 114 276 l 103 219 q 131 235 115 229 q 174 242 146 242 q 233 231 210 242 q 272 205 257 221 q 292 169 286 189 q 299 131 299 150 q 245 28 299 68 q 97 -11 192 -11 q 28 -2 61 -11 q -39 36 -4 7 l -25 111 l 90 111 q 89 93 89 106 q 92 53 89 65 q 111 42 96 42 q 134 51 125 42 q 149 74 143 60 q 158 103 156 88 q 161 132 161 119 q 155 167 161 151 q 128 182 149 182 q 109 176 117 182 q 90 158 101 171 l -4 158 l 36 343 l 304 343 l 289 276 z "},"⁵":{"ha":364,"x_min":74,"x_max":417,"o":"m 401 815 l 226 815 l 215 758 q 243 774 228 768 q 286 781 258 781 q 346 770 322 781 q 384 744 369 760 q 405 708 399 728 q 411 669 411 689 q 358 567 411 607 q 210 528 304 528 q 141 537 174 528 q 74 575 108 546 l 88 650 l 203 650 q 201 632 201 644 q 205 592 201 604 q 224 581 208 581 q 247 590 238 581 q 262 613 256 599 q 271 642 268 626 q 274 671 274 658 q 267 706 274 690 q 240 721 261 721 q 222 715 229 721 q 203 697 214 710 l 108 697 l 149 882 l 417 882 l 401 815 z "},"ƒ":{"ha":704,"x_min":-136,"x_max":806,"o":"m 118 597 l 224 597 l 238 654 q 292 795 257 738 q 374 889 326 853 q 483 941 422 925 q 614 957 543 957 q 704 951 656 957 q 806 933 753 946 l 783 822 q 718 828 753 826 q 661 831 683 831 q 615 826 635 831 q 579 810 594 822 q 553 778 564 799 q 535 722 543 757 l 507 597 l 654 597 l 636 504 l 490 504 l 393 51 q 319 -102 372 -46 q 192 -187 265 -158 q 34 -225 119 -217 q -136 -233 -51 -233 l -118 -137 q -34 -133 -71 -137 q 28 -115 3 -129 q 72 -74 54 -101 q 99 0 89 -47 l 206 504 l 97 504 l 118 597 z "},"₄":{"ha":375,"x_min":-42,"x_max":311,"o":"m 228 0 l 85 0 l 104 89 l -42 89 l -22 172 l 139 354 l 304 354 l 261 153 l 311 153 l 299 89 l 247 89 l 228 0 m 118 153 l 144 279 l 36 153 l 118 153 z "},"⁴":{"ha":375,"x_min":71,"x_max":424,"o":"m 340 528 l 197 528 l 217 617 l 71 617 l 90 700 l 251 882 l 417 882 l 374 681 l 424 681 l 411 617 l 360 617 l 340 528 m 231 681 l 257 807 l 149 681 l 231 681 z "},"⁄":{"ha":139,"x_min":-268,"x_max":442,"o":"m -268 0 l 304 882 l 442 882 l -115 0 l -268 0 z "},"g":{"ha":803,"x_min":13,"x_max":792,"o":"m 567 597 l 792 597 l 678 57 q 636 -58 665 -6 q 555 -150 607 -111 q 424 -211 503 -189 q 233 -233 346 -233 q 183 -233 213 -233 q 124 -231 154 -232 q 65 -229 93 -231 q 21 -226 38 -228 l 47 -126 q 138 -134 92 -133 q 218 -135 185 -135 q 288 -127 260 -135 q 335 -103 317 -119 q 366 -58 354 -86 q 385 10 378 -31 l 401 100 l 392 100 q 367 70 383 88 q 326 37 351 53 q 267 10 301 21 q 190 0 233 0 q 108 15 142 0 q 53 55 74 29 q 22 116 32 81 q 13 193 13 151 q 15 249 13 211 q 28 333 18 286 q 59 430 39 381 q 113 519 79 479 q 198 586 147 560 q 321 613 249 613 q 369 608 343 613 q 421 593 396 604 q 465 561 446 582 q 496 507 485 540 l 504 507 l 567 597 m 411 476 q 356 441 378 476 q 319 358 333 406 q 299 265 306 311 q 293 196 293 218 q 302 149 293 168 q 335 131 311 131 q 362 138 349 131 q 387 153 375 144 q 408 172 399 163 q 421 188 417 182 l 472 431 q 447 461 461 446 q 411 476 432 476 z "},"ğ":{"ha":803,"x_min":13,"x_max":792,"o":"m 567 597 l 792 597 l 678 57 q 636 -58 665 -6 q 555 -150 607 -111 q 424 -211 503 -189 q 233 -233 346 -233 q 183 -233 213 -233 q 124 -231 154 -232 q 65 -229 93 -231 q 21 -226 38 -228 l 47 -126 q 138 -134 92 -133 q 218 -135 185 -135 q 288 -127 260 -135 q 335 -103 317 -119 q 366 -58 354 -86 q 385 10 378 -31 l 401 100 l 392 100 q 367 70 383 88 q 326 37 351 53 q 267 10 301 21 q 190 0 233 0 q 108 15 142 0 q 53 55 74 29 q 22 116 32 81 q 13 193 13 151 q 15 249 13 211 q 28 333 18 286 q 59 430 39 381 q 113 519 79 479 q 198 586 147 560 q 321 613 249 613 q 369 608 343 613 q 421 593 396 604 q 465 561 446 582 q 496 507 485 540 l 504 507 l 567 597 m 411 476 q 356 441 378 476 q 319 358 333 406 q 299 265 306 311 q 293 196 293 218 q 302 149 293 168 q 335 131 311 131 q 362 138 349 131 q 387 153 375 144 q 408 172 399 163 q 421 188 417 182 l 472 431 q 447 461 461 446 q 411 476 432 476 m 508 679 q 378 720 426 679 q 315 853 329 761 l 386 882 q 410 837 394 854 q 444 810 425 819 q 483 797 463 800 q 519 793 503 793 q 631 824 578 793 q 721 903 685 854 l 774 856 q 654 719 721 760 q 508 679 588 679 z "},"ĝ":{"ha":803,"x_min":13,"x_max":792,"o":"m 567 597 l 792 597 l 678 57 q 636 -58 665 -6 q 555 -150 607 -111 q 424 -211 503 -189 q 233 -233 346 -233 q 183 -233 213 -233 q 124 -231 154 -232 q 65 -229 93 -231 q 21 -226 38 -228 l 47 -126 q 138 -134 92 -133 q 218 -135 185 -135 q 288 -127 260 -135 q 335 -103 317 -119 q 366 -58 354 -86 q 385 10 378 -31 l 401 100 l 392 100 q 367 70 383 88 q 326 37 351 53 q 267 10 301 21 q 190 0 233 0 q 108 15 142 0 q 53 55 74 29 q 22 116 32 81 q 13 193 13 151 q 15 249 13 211 q 28 333 18 286 q 59 430 39 381 q 113 519 79 479 q 198 586 147 560 q 321 613 249 613 q 369 608 343 613 q 421 593 396 604 q 465 561 446 582 q 496 507 485 540 l 504 507 l 567 597 m 411 476 q 356 441 378 476 q 319 358 333 406 q 299 265 306 311 q 293 196 293 218 q 302 149 293 168 q 335 131 311 131 q 362 138 349 131 q 387 153 375 144 q 408 172 399 163 q 421 188 417 182 l 472 431 q 447 461 461 446 q 411 476 432 476 m 257 679 l 460 882 l 667 882 l 782 679 l 676 679 l 561 808 l 376 679 l 257 679 z "},"ģ":{"ha":803,"x_min":13,"x_max":792,"o":"m 567 597 l 792 597 l 678 57 q 636 -58 665 -6 q 555 -150 607 -111 q 424 -211 503 -189 q 233 -233 346 -233 q 183 -233 213 -233 q 124 -231 154 -232 q 65 -229 93 -231 q 21 -226 38 -228 l 47 -126 q 138 -134 92 -133 q 218 -135 185 -135 q 288 -127 260 -135 q 335 -103 317 -119 q 366 -58 354 -86 q 385 10 378 -31 l 401 100 l 392 100 q 367 70 383 88 q 326 37 351 53 q 267 10 301 21 q 190 0 233 0 q 108 15 142 0 q 53 55 74 29 q 22 116 32 81 q 13 193 13 151 q 15 249 13 211 q 28 333 18 286 q 59 430 39 381 q 113 519 79 479 q 198 586 147 560 q 321 613 249 613 q 369 608 343 613 q 421 593 396 604 q 465 561 446 582 q 496 507 485 540 l 504 507 l 567 597 m 411 476 q 356 441 378 476 q 319 358 333 406 q 299 265 306 311 q 293 196 293 218 q 302 149 293 168 q 335 131 311 131 q 362 138 349 131 q 387 153 375 144 q 408 172 399 163 q 421 188 417 182 l 472 431 q 447 461 461 446 q 411 476 432 476 m 396 754 q 413 824 396 790 q 458 885 431 857 q 519 936 486 914 q 586 972 553 958 l 615 931 q 562 882 581 904 q 543 838 543 860 q 599 765 543 803 q 565 690 599 717 q 488 664 532 664 q 422 686 447 664 q 396 754 396 708 z "},"ġ":{"ha":803,"x_min":13,"x_max":792,"o":"m 567 597 l 792 597 l 678 57 q 636 -58 665 -6 q 555 -150 607 -111 q 424 -211 503 -189 q 233 -233 346 -233 q 183 -233 213 -233 q 124 -231 154 -232 q 65 -229 93 -231 q 21 -226 38 -228 l 47 -126 q 138 -134 92 -133 q 218 -135 185 -135 q 288 -127 260 -135 q 335 -103 317 -119 q 366 -58 354 -86 q 385 10 378 -31 l 401 100 l 392 100 q 367 70 383 88 q 326 37 351 53 q 267 10 301 21 q 190 0 233 0 q 108 15 142 0 q 53 55 74 29 q 22 116 32 81 q 13 193 13 151 q 15 249 13 211 q 28 333 18 286 q 59 430 39 381 q 113 519 79 479 q 198 586 147 560 q 321 613 249 613 q 369 608 343 613 q 421 593 396 604 q 465 561 446 582 q 496 507 485 540 l 504 507 l 567 597 m 411 476 q 356 441 378 476 q 319 358 333 406 q 299 265 306 311 q 293 196 293 218 q 302 149 293 168 q 335 131 311 131 q 362 138 349 131 q 387 153 375 144 q 408 172 399 163 q 421 188 417 182 l 472 431 q 447 461 461 446 q 411 476 432 476 m 683 779 q 670 724 683 747 q 635 683 657 700 q 586 658 614 667 q 529 650 558 650 q 436 676 474 650 q 399 760 399 703 q 411 815 399 790 q 445 855 424 839 q 495 879 467 871 q 554 888 524 888 q 646 861 608 888 q 683 779 683 835 z "},"ß":{"ha":917,"x_min":-14,"x_max":888,"o":"m 869 211 q 844 114 869 156 q 777 44 819 72 q 678 3 735 17 q 558 -11 622 -11 q 481 -5 513 -11 q 426 12 449 1 q 385 35 403 22 q 353 60 368 47 l 414 135 q 458 99 429 117 q 522 81 486 81 q 585 100 557 81 q 614 151 614 119 q 602 188 614 172 q 572 220 590 204 q 531 251 553 236 q 489 286 508 267 q 435 363 449 325 q 422 436 422 400 q 437 512 422 482 q 474 564 451 542 q 521 603 496 586 q 568 640 546 621 q 605 684 590 660 q 619 746 619 708 q 616 776 619 761 q 603 803 613 792 q 576 823 593 815 q 532 831 558 831 q 459 805 485 831 q 422 722 433 779 l 268 0 l -14 0 l 124 654 q 177 796 142 739 q 264 888 213 853 q 381 936 315 922 q 526 950 447 950 q 651 942 586 950 q 767 913 715 933 q 853 860 819 893 q 888 778 888 828 q 853 688 888 725 q 776 623 818 651 q 699 569 733 594 q 664 513 664 543 q 696 456 664 482 q 767 399 728 431 q 838 323 806 367 q 869 211 869 279 z "},"`":{"ha":422,"x_min":36,"x_max":422,"o":"m 36 882 l 276 882 l 422 679 l 293 679 l 36 882 z "},">":{"ha":550,"x_min":29,"x_max":535,"o":"m 136 726 l 300 726 l 535 439 l 193 151 l 29 151 l 357 439 l 136 726 z "},"«":{"ha":819,"x_min":15,"x_max":824,"o":"m 346 0 l 179 0 l 15 299 l 288 597 l 454 597 l 211 299 l 346 0 m 715 0 l 549 0 l 385 299 l 657 597 l 824 597 l 581 299 l 715 0 z "},"»":{"ha":817,"x_min":-31,"x_max":776,"o":"m 78 597 l 244 597 l 408 299 l 136 0 l -31 0 l 213 299 l 78 597 m 446 597 l 613 597 l 776 299 l 504 0 l 338 0 l 581 299 l 446 597 z "},"‹":{"ha":450,"x_min":15,"x_max":454,"o":"m 346 0 l 179 0 l 15 299 l 288 597 l 454 597 l 211 299 l 346 0 z "},"›":{"ha":447,"x_min":-31,"x_max":408,"o":"m 76 597 l 244 597 l 408 299 l 135 0 l -31 0 l 213 299 l 76 597 z "},"h":{"ha":814,"x_min":-14,"x_max":775,"o":"m 378 508 l 388 508 q 449 557 414 535 q 518 592 478 576 q 608 607 558 607 q 728 570 681 607 q 775 469 775 533 q 771 426 775 450 q 761 374 767 401 q 749 320 756 347 q 739 271 743 293 l 681 0 l 399 0 l 475 363 q 482 399 478 381 q 486 433 486 418 q 476 467 486 454 q 444 481 465 481 q 397 463 419 481 q 361 431 374 444 l 269 0 l -14 0 l 183 933 l 468 933 l 378 508 z "},"ħ":{"ha":814,"x_min":-14,"x_max":775,"o":"m 439 797 l 540 797 l 515 692 l 417 692 l 378 508 l 388 508 q 449 557 414 535 q 518 592 478 576 q 608 607 558 607 q 728 570 681 607 q 775 469 775 533 q 771 426 775 450 q 761 374 767 401 q 749 320 756 347 q 739 271 743 293 l 681 0 l 399 0 l 475 363 q 482 399 478 381 q 486 433 486 418 q 476 467 486 454 q 444 481 465 481 q 397 463 419 481 q 361 431 374 444 l 269 0 l -14 0 l 132 692 l 1 692 l 28 797 l 154 797 l 183 933 l 468 933 l 439 797 z "},"ĥ":{"ha":814,"x_min":-14,"x_max":960,"o":"m 378 508 l 388 508 q 449 557 414 535 q 518 592 478 576 q 608 607 558 607 q 728 570 681 607 q 775 469 775 533 q 771 426 775 450 q 761 374 767 401 q 749 320 756 347 q 739 271 743 293 l 681 0 l 399 0 l 475 363 q 482 399 478 381 q 486 433 486 418 q 476 467 486 454 q 444 481 465 481 q 397 463 419 481 q 361 431 374 444 l 269 0 l -14 0 l 183 933 l 468 933 l 378 508 m 435 679 l 638 882 l 844 882 l 960 679 l 854 679 l 739 808 l 554 679 l 435 679 z "},"ḥ":{"ha":814,"x_min":-14,"x_max":775,"o":"m 378 508 l 388 508 q 449 557 414 535 q 518 592 478 576 q 608 607 558 607 q 728 570 681 607 q 775 469 775 533 q 771 426 775 450 q 761 374 767 401 q 749 320 756 347 q 739 271 743 293 l 681 0 l 399 0 l 475 363 q 482 399 478 381 q 486 433 486 418 q 476 467 486 454 q 444 481 465 481 q 397 463 419 481 q 361 431 374 444 l 269 0 l -14 0 l 183 933 l 468 933 l 378 508 m 414 -200 q 403 -244 414 -225 q 376 -276 393 -264 q 335 -296 358 -289 q 289 -303 313 -303 q 213 -282 244 -303 q 182 -214 182 -261 q 220 -138 182 -164 q 308 -112 258 -112 q 383 -133 353 -112 q 414 -200 414 -154 z "},"˝":{"ha":822,"x_min":51,"x_max":771,"o":"m 51 679 l 208 882 l 447 882 l 171 679 l 51 679 m 375 679 l 532 882 l 771 882 l 494 679 l 375 679 z "},"-":{"ha":576,"x_min":40,"x_max":507,"o":"m 69 356 l 507 356 l 479 229 l 40 229 l 69 356 z "},"i":{"ha":407,"x_min":-14,"x_max":433,"o":"m 268 0 l -14 0 l 113 597 l 397 597 l 268 0 m 433 779 q 420 724 433 747 q 385 683 407 700 q 336 658 364 667 q 279 650 308 650 q 186 676 224 650 q 149 760 149 703 q 161 815 149 790 q 195 855 174 839 q 245 879 217 871 q 304 888 274 888 q 396 861 358 888 q 433 779 433 835 z "},"í":{"ha":407,"x_min":-14,"x_max":547,"o":"m 268 0 l -14 0 l 113 597 l 397 597 l 268 0 m 179 679 l 308 882 l 547 882 l 299 679 l 179 679 z "},"ĭ":{"ha":407,"x_min":-14,"x_max":539,"o":"m 268 0 l -14 0 l 113 597 l 397 597 l 268 0 m 274 679 q 143 720 192 679 q 81 853 94 761 l 151 882 q 175 837 160 854 q 209 810 190 819 q 248 797 228 800 q 285 793 268 793 q 397 824 343 793 q 486 903 450 854 l 539 856 q 419 719 486 760 q 274 679 353 679 z "},"î":{"ha":407,"x_min":-14,"x_max":544,"o":"m 268 0 l -14 0 l 113 597 l 397 597 l 268 0 m 19 679 l 222 882 l 429 882 l 544 679 l 439 679 l 324 808 l 139 679 l 19 679 z "},"ï":{"ha":407,"x_min":-14,"x_max":544,"o":"m 268 0 l -14 0 l 113 597 l 397 597 l 268 0 m 151 876 q 225 848 201 876 q 249 779 249 819 q 220 699 249 735 q 136 664 192 664 q 61 692 85 664 q 38 761 38 721 q 67 841 38 806 q 151 876 96 876 m 446 876 q 521 848 497 876 q 544 779 544 819 q 515 699 544 735 q 431 664 486 664 q 356 692 379 664 q 332 761 332 721 q 361 841 332 806 q 446 876 390 876 z "},"ị":{"ha":407,"x_min":-28,"x_max":433,"o":"m 204 -200 q 194 -244 204 -225 q 166 -276 183 -264 q 126 -296 149 -289 q 79 -303 103 -303 q 3 -282 35 -303 q -28 -214 -28 -261 q 10 -138 -28 -164 q 99 -112 49 -112 q 174 -133 143 -112 q 204 -200 204 -154 m 433 779 q 420 724 433 747 q 385 683 407 700 q 336 658 364 667 q 279 650 308 650 q 186 676 224 650 q 149 760 149 703 q 161 815 149 790 q 195 855 174 839 q 245 879 217 871 q 304 888 274 888 q 396 861 358 888 q 433 779 433 835 m 268 0 l -14 0 l 113 597 l 397 597 l 268 0 z "},"ì":{"ha":407,"x_min":-58,"x_max":397,"o":"m 268 0 l -14 0 l 113 597 l 397 597 l 268 0 m -58 882 l 182 882 l 328 679 l 199 679 l -58 882 z "},"ĳ":{"ha":806,"x_min":-14,"x_max":828,"o":"m 268 0 l -14 0 l 113 597 l 397 597 l 268 0 m 433 779 q 420 724 433 747 q 385 683 407 700 q 336 658 364 667 q 279 650 308 650 q 186 676 224 650 q 149 760 149 703 q 161 815 149 790 q 195 855 174 839 q 245 879 217 871 q 304 888 274 888 q 396 861 358 888 q 433 779 433 835 m 678 51 q 613 -102 657 -46 q 511 -187 569 -158 q 385 -225 453 -217 q 250 -233 318 -233 l 267 -137 q 305 -133 288 -137 q 336 -115 322 -129 q 362 -74 350 -101 q 383 0 374 -47 l 510 597 l 794 597 l 678 51 m 828 779 q 815 724 828 747 q 780 683 801 700 q 731 658 758 667 q 674 650 703 650 q 581 676 618 650 q 543 760 543 703 q 556 815 543 790 q 590 855 568 839 q 640 879 611 871 q 699 888 668 888 q 790 861 753 888 q 828 779 828 835 z "},"ī":{"ha":407,"x_min":-14,"x_max":551,"o":"m 268 0 l -14 0 l 113 597 l 397 597 l 268 0 m 58 838 l 551 838 l 526 731 l 32 731 l 58 838 z "},"į":{"ha":407,"x_min":-87,"x_max":433,"o":"m 268 0 l 199 0 q 160 -27 179 -12 q 126 -59 142 -42 q 100 -97 110 -76 q 90 -139 90 -117 q 103 -179 90 -167 q 133 -192 115 -192 q 163 -184 146 -192 q 206 -156 181 -176 l 238 -214 q 140 -266 196 -249 q 32 -283 85 -283 q -87 -181 -87 -283 q -74 -117 -87 -146 q -37 -67 -60 -89 q 12 -28 -15 -44 q 67 0 39 -11 l -14 0 l 113 597 l 397 597 l 268 0 m 433 779 q 420 724 433 747 q 385 683 407 700 q 336 658 364 667 q 279 650 308 650 q 186 676 224 650 q 149 760 149 703 q 161 815 149 790 q 195 855 174 839 q 245 879 217 871 q 304 888 274 888 q 396 861 358 888 q 433 779 433 835 z "},"ĩ":{"ha":407,"x_min":-14,"x_max":594,"o":"m 268 0 l -14 0 l 113 597 l 397 597 l 268 0 m 594 854 q 511 740 553 778 q 407 703 469 703 q 348 711 382 703 q 278 728 314 719 q 212 746 243 738 q 161 754 181 754 q 110 738 136 754 q 71 706 83 721 l 25 746 q 112 853 68 817 q 215 889 156 889 q 270 882 238 889 q 337 866 303 875 q 403 850 371 857 q 456 843 435 843 q 502 856 475 843 q 546 889 529 869 l 594 854 z "},"j":{"ha":408,"x_min":-147,"x_max":431,"o":"m 281 51 q 216 -102 260 -46 q 114 -187 172 -158 q -12 -225 56 -217 q -147 -233 -79 -233 l -131 -137 q -92 -133 -110 -137 q -61 -115 -75 -129 q -35 -74 -47 -101 q -14 0 -24 -47 l 113 597 l 397 597 l 281 51 m 431 779 q 417 724 431 747 q 383 683 404 700 q 333 658 361 667 q 276 650 306 650 q 183 676 221 650 q 146 760 146 703 q 158 815 146 790 q 192 855 171 839 q 242 879 214 871 q 301 888 271 888 q 393 861 356 888 q 431 779 431 835 z "},"ĵ":{"ha":408,"x_min":-147,"x_max":539,"o":"m 281 51 q 216 -102 260 -46 q 114 -187 172 -158 q -12 -225 56 -217 q -147 -233 -79 -233 l -131 -137 q -92 -133 -110 -137 q -61 -115 -75 -129 q -35 -74 -47 -101 q -14 0 -24 -47 l 113 597 l 397 597 l 281 51 m 14 679 l 217 882 l 424 882 l 539 679 l 433 679 l 318 808 l 133 679 l 14 679 z "},"k":{"ha":832,"x_min":-14,"x_max":850,"o":"m 343 344 l 667 597 l 850 597 l 574 371 l 781 0 l 469 0 l 328 279 l 269 0 l -14 0 l 183 933 l 468 933 l 343 344 z "},"ķ":{"ha":832,"x_min":-14,"x_max":850,"o":"m 343 344 l 667 597 l 850 597 l 574 371 l 781 0 l 469 0 l 328 279 l 269 0 l -14 0 l 183 933 l 468 933 l 343 344 m 433 -176 q 416 -246 433 -212 q 371 -308 399 -279 q 310 -358 343 -336 q 243 -394 276 -381 l 214 -353 q 267 -304 249 -326 q 286 -260 286 -282 q 231 -187 286 -225 q 264 -112 231 -139 q 342 -86 297 -86 q 408 -108 382 -86 q 433 -176 433 -131 z "},"ĸ":{"ha":810,"x_min":-14,"x_max":850,"o":"m 343 344 l 667 597 l 850 597 l 574 371 l 781 0 l 469 0 l 328 279 l 269 0 l -14 0 l 113 597 l 397 597 l 343 344 z "},"l":{"ha":407,"x_min":-14,"x_max":468,"o":"m 269 0 l -14 0 l 183 933 l 468 933 l 269 0 z "},"ĺ":{"ha":407,"x_min":-14,"x_max":608,"o":"m 269 0 l -14 0 l 183 933 l 468 933 l 269 0 m 240 999 l 369 1201 l 608 1201 l 360 999 l 240 999 z "},"ľ":{"ha":546,"x_min":-14,"x_max":726,"o":"m 269 0 l -14 0 l 183 933 l 468 933 l 269 0 m 469 588 q 518 628 492 604 q 565 693 544 653 q 511 726 532 701 q 490 786 490 750 q 501 835 490 814 q 529 872 511 857 q 569 896 547 888 q 617 904 592 904 q 694 878 663 904 q 726 800 726 853 q 706 713 726 754 q 654 639 686 672 q 582 581 622 606 q 501 539 542 556 q 485 563 492 551 q 473 580 478 572 q 469 588 468 588 z "},"ļ":{"ha":407,"x_min":-21,"x_max":468,"o":"m 269 0 l -14 0 l 183 933 l 468 933 l 269 0 m 199 -176 q 181 -246 199 -212 q 136 -308 164 -279 q 75 -358 108 -336 q 8 -394 42 -381 l -21 -353 q 33 -304 14 -326 q 51 -260 51 -282 q -4 -187 51 -225 q 29 -112 -4 -139 q 107 -86 63 -86 q 173 -108 147 -86 q 199 -176 199 -131 z "},"ŀ":{"ha":656,"x_min":-14,"x_max":688,"o":"m 269 0 l -14 0 l 183 933 l 468 933 l 269 0 m 688 432 q 674 376 688 400 q 640 336 661 353 q 590 311 618 319 q 533 303 563 303 q 440 329 478 303 q 403 413 403 356 q 415 467 403 443 q 449 508 428 492 q 499 532 471 524 q 558 540 528 540 q 650 514 613 540 q 688 432 688 488 z "},"<":{"ha":551,"x_min":49,"x_max":554,"o":"m 449 151 l 283 151 l 49 439 l 392 726 l 554 726 l 226 439 l 449 151 z "},"¬":{"ha":824,"x_min":32,"x_max":756,"o":"m 61 356 l 756 356 l 679 38 l 533 38 l 578 229 l 32 229 l 61 356 z "},"ł":{"ha":554,"x_min":8,"x_max":636,"o":"m 488 631 l 636 679 l 607 546 l 458 497 l 353 0 l 69 0 l 154 400 l 8 353 l 32 486 l 182 533 l 267 933 l 551 933 l 488 631 z "},"m":{"ha":1196,"x_min":-14,"x_max":1157,"o":"m 372 508 q 438 560 401 536 q 514 596 469 579 q 614 613 558 613 q 713 582 681 613 q 750 507 746 551 l 758 507 q 828 560 790 536 q 903 596 860 579 q 994 613 946 613 q 1112 573 1067 613 q 1157 471 1157 533 q 1146 386 1157 439 q 1121 271 1135 333 l 1063 0 l 789 0 l 864 363 q 872 403 868 383 q 876 435 876 422 q 865 467 876 454 q 833 481 854 481 q 784 462 807 481 q 749 431 761 443 l 658 0 l 399 0 l 475 363 q 482 399 478 381 q 486 433 486 418 q 476 467 486 454 q 444 481 465 481 q 397 463 419 481 q 361 432 374 444 l 269 0 l -14 0 l 113 597 l 339 597 l 364 508 l 372 508 z "},"¯":{"ha":592,"x_min":36,"x_max":556,"o":"m 63 838 l 556 838 l 531 731 l 36 731 l 63 838 z "},"−":{"ha":696,"x_min":71,"x_max":658,"o":"m 100 506 l 658 506 l 631 379 l 71 379 l 100 506 z "},"µ":{"ha":817,"x_min":-58,"x_max":814,"o":"m 531 597 l 814 597 l 686 0 l 461 0 l 436 89 l 428 89 q 407 56 418 74 q 381 24 396 39 q 347 -1 367 10 q 301 -11 328 -11 q 242 8 265 -11 q 210 47 219 26 l 210 -233 l -58 -233 l 119 597 l 401 597 l 332 272 q 320 216 326 249 q 314 164 314 183 q 322 131 314 146 q 354 117 331 117 q 403 133 381 117 q 438 165 425 150 l 531 597 z "},"×":{"ha":710,"x_min":17,"x_max":721,"o":"m 454 438 l 624 151 l 458 151 l 354 331 l 188 151 l 17 151 l 288 443 l 124 725 l 285 725 l 388 550 l 551 725 l 721 725 l 454 438 z "},"n":{"ha":814,"x_min":-14,"x_max":775,"o":"m 372 508 q 438 560 401 536 q 513 596 469 579 q 608 613 556 613 q 728 576 681 613 q 775 475 775 539 q 771 431 775 457 q 761 378 767 406 q 749 322 756 350 q 739 271 743 293 l 681 0 l 399 0 l 475 363 q 482 399 478 381 q 486 433 486 418 q 476 467 486 454 q 444 481 465 481 q 397 463 419 481 q 361 432 374 444 l 269 0 l -14 0 l 113 597 l 339 597 l 364 508 l 372 508 z "},"ń":{"ha":814,"x_min":-14,"x_max":775,"o":"m 372 508 q 438 560 401 536 q 513 596 469 579 q 608 613 556 613 q 728 576 681 613 q 775 475 775 539 q 771 431 775 457 q 761 378 767 406 q 749 322 756 350 q 739 271 743 293 l 681 0 l 399 0 l 475 363 q 482 399 478 381 q 486 433 486 418 q 476 467 486 454 q 444 481 465 481 q 397 463 419 481 q 361 432 374 444 l 269 0 l -14 0 l 113 597 l 339 597 l 364 508 l 372 508 m 363 679 l 492 882 l 731 882 l 482 679 l 363 679 z "},"ŉ":{"ha":814,"x_min":-14,"x_max":775,"o":"m 372 508 q 438 560 401 536 q 513 596 469 579 q 608 613 556 613 q 728 576 681 613 q 775 475 775 539 q 771 431 775 457 q 761 378 767 406 q 749 322 756 350 q 739 271 743 293 l 681 0 l 399 0 l 475 363 q 482 399 478 381 q 486 433 486 418 q 476 467 486 454 q 444 481 465 481 q 397 463 419 481 q 361 432 374 444 l 269 0 l -14 0 l 113 597 l 339 597 l 364 508 l 372 508 m 119 757 q 168 798 142 774 q 215 863 194 822 q 161 895 182 871 q 140 956 140 919 q 151 1005 140 983 q 179 1042 161 1026 q 219 1065 197 1057 q 267 1074 242 1074 q 344 1048 313 1074 q 376 969 376 1022 q 356 883 376 924 q 304 808 336 842 q 232 750 272 775 q 151 708 192 725 q 135 732 142 721 q 123 749 128 742 q 119 757 118 757 z "},"ň":{"ha":814,"x_min":-14,"x_max":775,"o":"m 372 508 q 438 560 401 536 q 513 596 469 579 q 608 613 556 613 q 728 576 681 613 q 775 475 775 539 q 771 431 775 457 q 761 378 767 406 q 749 322 756 350 q 739 271 743 293 l 681 0 l 399 0 l 475 363 q 482 399 478 381 q 486 433 486 418 q 476 467 486 454 q 444 481 465 481 q 397 463 419 481 q 361 432 374 444 l 269 0 l -14 0 l 113 597 l 339 597 l 364 508 l 372 508 m 756 882 l 553 679 l 346 679 l 231 882 l 338 882 l 453 754 l 636 882 l 756 882 z "},"ņ":{"ha":814,"x_min":-14,"x_max":775,"o":"m 372 508 q 438 560 401 536 q 513 596 469 579 q 608 613 556 613 q 728 576 681 613 q 775 475 775 539 q 771 431 775 457 q 761 378 767 406 q 749 322 756 350 q 739 271 743 293 l 681 0 l 399 0 l 475 363 q 482 399 478 381 q 486 433 486 418 q 476 467 486 454 q 444 481 465 481 q 397 463 419 481 q 361 432 374 444 l 269 0 l -14 0 l 113 597 l 339 597 l 364 508 l 372 508 m 411 -176 q 394 -246 411 -212 q 349 -308 376 -279 q 288 -358 321 -336 q 221 -394 254 -381 l 192 -353 q 245 -304 226 -326 q 264 -260 264 -282 q 208 -187 264 -225 q 242 -112 208 -139 q 319 -86 275 -86 q 385 -108 360 -86 q 411 -176 411 -131 z "},"ṅ":{"ha":814,"x_min":-14,"x_max":775,"o":"m 372 508 q 438 560 401 536 q 513 596 469 579 q 608 613 556 613 q 728 576 681 613 q 775 475 775 539 q 771 431 775 457 q 761 378 767 406 q 749 322 756 350 q 739 271 743 293 l 681 0 l 399 0 l 475 363 q 482 399 478 381 q 486 433 486 418 q 476 467 486 454 q 444 481 465 481 q 397 463 419 481 q 361 432 374 444 l 269 0 l -14 0 l 113 597 l 339 597 l 364 508 l 372 508 m 626 779 q 613 724 626 747 q 578 683 600 700 q 529 658 557 667 q 472 650 501 650 q 379 676 417 650 q 342 760 342 703 q 354 815 342 790 q 388 855 367 839 q 438 879 410 871 q 497 888 467 888 q 589 861 551 888 q 626 779 626 835 z "},"₉":{"ha":390,"x_min":-19,"x_max":333,"o":"m 107 -11 q 44 -7 81 -11 q -19 13 7 -3 l -1 90 l 107 90 q 106 81 106 88 q 108 54 106 65 q 122 43 111 43 q 156 68 135 43 q 189 151 178 93 l 183 151 q 143 129 167 136 q 94 122 119 122 q 16 148 38 122 q -6 218 -6 174 q 40 321 -6 285 q 99 347 64 336 q 182 357 133 357 q 244 351 217 357 q 292 328 272 344 q 322 285 311 313 q 333 215 333 257 q 320 130 333 171 q 280 58 307 89 q 210 8 253 26 q 107 -11 167 -11 m 185 304 q 160 294 171 304 q 144 271 150 285 q 135 242 138 257 q 132 215 132 226 q 135 194 132 201 q 150 186 139 186 q 175 196 164 186 q 193 219 186 206 q 203 246 200 232 q 207 269 207 260 q 185 304 207 304 z "},"⁹":{"ha":390,"x_min":93,"x_max":446,"o":"m 219 528 q 156 532 193 528 q 93 551 119 536 l 111 631 l 219 631 q 218 619 218 626 q 221 594 218 606 q 235 582 224 582 q 269 607 247 582 q 301 690 290 632 l 296 690 q 256 668 279 675 q 207 661 232 661 q 128 687 150 661 q 107 757 107 713 q 153 860 107 824 q 211 885 176 875 q 294 896 246 896 q 357 890 329 896 q 404 867 385 883 q 435 824 424 851 q 446 754 446 796 q 433 669 446 710 q 392 597 419 628 q 322 547 365 565 q 219 528 279 528 m 297 843 q 273 833 283 843 q 256 810 263 824 q 247 781 250 796 q 244 754 244 765 q 248 733 244 740 q 263 725 251 725 q 288 735 276 725 q 306 758 299 744 q 316 785 313 771 q 319 808 319 799 q 297 843 319 843 z "},"ñ":{"ha":814,"x_min":-14,"x_max":775,"o":"m 372 508 q 438 560 401 536 q 513 596 469 579 q 608 613 556 613 q 728 576 681 613 q 775 475 775 539 q 771 431 775 457 q 761 378 767 406 q 749 322 756 350 q 739 271 743 293 l 681 0 l 399 0 l 475 363 q 482 399 478 381 q 486 433 486 418 q 476 467 486 454 q 444 481 465 481 q 397 463 419 481 q 361 432 374 444 l 269 0 l -14 0 l 113 597 l 339 597 l 364 508 l 372 508 m 764 854 q 681 740 722 778 q 576 703 639 703 q 517 711 551 703 q 448 728 483 719 q 381 746 413 738 q 331 754 350 754 q 279 738 306 754 q 240 706 253 721 l 194 746 q 281 853 238 817 q 385 889 325 889 q 440 882 407 889 q 506 866 472 875 q 572 850 540 857 q 625 843 604 843 q 672 856 644 843 q 715 889 699 869 l 764 854 z "},"#":{"ha":933,"x_min":21,"x_max":951,"o":"m 122 685 l 294 685 l 335 860 l 456 860 l 417 685 l 646 685 l 686 860 l 807 860 l 768 685 l 951 685 l 924 558 l 742 558 l 696 346 l 878 346 l 850 218 l 668 218 l 626 24 l 493 24 l 538 218 l 317 218 l 275 24 l 142 24 l 186 218 l 21 218 l 50 346 l 215 346 l 265 558 l 93 558 l 122 685 m 344 346 l 567 346 l 617 558 l 390 558 l 344 346 z "},"o":{"ha":799,"x_min":17,"x_max":757,"o":"m 438 613 q 678 554 603 613 q 757 351 757 493 q 728 194 757 264 q 646 78 699 124 q 340 -11 540 -11 q 96 54 169 -11 q 17 258 17 122 q 53 422 17 349 q 160 544 90 496 q 438 613 261 613 m 343 83 q 403 122 378 83 q 444 217 429 161 q 467 334 460 274 q 475 439 475 394 q 467 498 475 478 q 435 518 460 518 q 370 478 397 518 q 326 382 343 438 q 302 268 310 326 q 294 174 294 210 q 343 83 294 83 z "},"ó":{"ha":799,"x_min":17,"x_max":757,"o":"m 438 613 q 678 554 603 613 q 757 351 757 493 q 728 194 757 264 q 646 78 699 124 q 340 -11 540 -11 q 96 54 169 -11 q 17 258 17 122 q 53 422 17 349 q 160 544 90 496 q 438 613 261 613 m 343 83 q 403 122 378 83 q 444 217 429 161 q 467 334 460 274 q 475 439 475 394 q 467 498 475 478 q 435 518 460 518 q 370 478 397 518 q 326 382 343 438 q 302 268 310 326 q 294 174 294 210 q 343 83 294 83 m 376 679 l 506 882 l 744 882 l 496 679 l 376 679 z "},"ŏ":{"ha":799,"x_min":17,"x_max":757,"o":"m 438 613 q 678 554 603 613 q 757 351 757 493 q 728 194 757 264 q 646 78 699 124 q 340 -11 540 -11 q 96 54 169 -11 q 17 258 17 122 q 53 422 17 349 q 160 544 90 496 q 438 613 261 613 m 343 83 q 403 122 378 83 q 444 217 429 161 q 467 334 460 274 q 475 439 475 394 q 467 498 475 478 q 435 518 460 518 q 370 478 397 518 q 326 382 343 438 q 302 268 310 326 q 294 174 294 210 q 343 83 294 83 m 471 679 q 340 720 389 679 q 278 853 292 761 l 349 882 q 372 837 357 854 q 406 810 388 819 q 445 797 425 800 q 482 793 465 793 q 594 824 540 793 q 683 903 647 854 l 736 856 q 617 719 683 760 q 471 679 550 679 z "},"ô":{"ha":799,"x_min":17,"x_max":757,"o":"m 438 613 q 678 554 603 613 q 757 351 757 493 q 728 194 757 264 q 646 78 699 124 q 340 -11 540 -11 q 96 54 169 -11 q 17 258 17 122 q 53 422 17 349 q 160 544 90 496 q 438 613 261 613 m 343 83 q 403 122 378 83 q 444 217 429 161 q 467 334 460 274 q 475 439 475 394 q 467 498 475 478 q 435 518 460 518 q 370 478 397 518 q 326 382 343 438 q 302 268 310 326 q 294 174 294 210 q 343 83 294 83 m 199 679 l 401 882 l 608 882 l 724 679 l 618 679 l 503 808 l 318 679 l 199 679 z "},"ö":{"ha":799,"x_min":17,"x_max":757,"o":"m 438 613 q 678 554 603 613 q 757 351 757 493 q 728 194 757 264 q 646 78 699 124 q 340 -11 540 -11 q 96 54 169 -11 q 17 258 17 122 q 53 422 17 349 q 160 544 90 496 q 438 613 261 613 m 343 83 q 403 122 378 83 q 444 217 429 161 q 467 334 460 274 q 475 439 475 394 q 467 498 475 478 q 435 518 460 518 q 370 478 397 518 q 326 382 343 438 q 302 268 310 326 q 294 174 294 210 q 343 83 294 83 m 338 876 q 411 848 388 876 q 435 779 435 819 q 406 699 435 735 q 322 664 378 664 q 247 692 271 664 q 224 761 224 721 q 253 841 224 806 q 338 876 282 876 m 632 876 q 707 848 683 876 q 731 779 731 819 q 701 699 731 735 q 617 664 672 664 q 542 692 565 664 q 518 761 518 721 q 547 841 518 806 q 632 876 576 876 z "},"ọ":{"ha":799,"x_min":17,"x_max":757,"o":"m 438 613 q 678 554 603 613 q 757 351 757 493 q 728 194 757 264 q 646 78 699 124 q 340 -11 540 -11 q 96 54 169 -11 q 17 258 17 122 q 53 422 17 349 q 160 544 90 496 q 438 613 261 613 m 343 83 q 403 122 378 83 q 444 217 429 161 q 467 334 460 274 q 475 439 475 394 q 467 498 475 478 q 435 518 460 518 q 370 478 397 518 q 326 382 343 438 q 302 268 310 326 q 294 174 294 210 q 343 83 294 83 m 396 -200 q 385 -244 396 -225 q 358 -276 375 -264 q 317 -296 340 -289 q 271 -303 294 -303 q 195 -282 226 -303 q 164 -214 164 -261 q 202 -138 164 -164 q 290 -112 240 -112 q 365 -133 335 -112 q 396 -200 396 -154 z "},"œ":{"ha":1275,"x_min":15,"x_max":1253,"o":"m 435 613 q 676 554 601 613 q 685 547 682 549 q 807 595 736 578 q 974 613 878 613 q 1183 569 1113 613 q 1253 435 1253 526 q 1242 353 1253 397 q 1208 279 1231 310 l 818 279 q 810 221 813 249 q 808 171 808 193 q 810 143 808 158 q 816 115 811 128 q 830 92 821 101 q 856 83 839 83 q 884 92 868 83 q 916 115 900 100 q 947 153 932 131 q 969 203 961 175 l 1197 203 l 1161 54 q 1097 24 1133 36 q 1021 3 1061 11 q 939 -8 981 -4 q 860 -11 897 -11 q 721 3 785 -11 q 613 54 657 18 q 339 -11 513 -11 q 94 54 165 -11 q 15 258 15 122 q 52 422 15 349 q 158 544 89 496 q 277 596 210 579 q 435 613 344 613 m 342 83 q 401 122 376 83 q 442 217 426 161 q 466 334 458 274 q 474 439 474 394 q 465 498 474 478 q 432 518 457 518 q 368 478 394 518 q 324 382 342 438 q 299 268 307 326 q 292 174 292 210 q 342 83 292 83 m 1003 444 q 989 503 1003 488 q 956 518 975 518 q 915 503 933 518 q 881 465 896 489 q 853 409 865 440 q 832 343 840 378 l 990 343 q 996 378 993 360 q 1001 411 999 393 q 1003 444 1003 429 z "},"˛":{"ha":349,"x_min":21,"x_max":346,"o":"m 340 19 q 296 -8 321 8 q 249 -44 271 -24 q 213 -88 228 -64 q 199 -139 199 -112 q 211 -179 199 -167 q 242 -192 224 -192 q 272 -184 254 -192 q 314 -156 289 -176 l 346 -214 q 249 -266 304 -249 q 140 -283 193 -283 q 21 -181 21 -283 q 42 -103 21 -136 q 95 -47 64 -71 q 163 -6 126 -22 q 228 19 199 10 l 340 19 z "},"ò":{"ha":799,"x_min":17,"x_max":757,"o":"m 438 613 q 678 554 603 613 q 757 351 757 493 q 728 194 757 264 q 646 78 699 124 q 340 -11 540 -11 q 96 54 169 -11 q 17 258 17 122 q 53 422 17 349 q 160 544 90 496 q 438 613 261 613 m 343 83 q 403 122 378 83 q 444 217 429 161 q 467 334 460 274 q 475 439 475 394 q 467 498 475 478 q 435 518 460 518 q 370 478 397 518 q 326 382 343 438 q 302 268 310 326 q 294 174 294 210 q 343 83 294 83 m 139 882 l 379 882 l 525 679 l 396 679 l 139 882 z "},"ő":{"ha":799,"x_min":17,"x_max":947,"o":"m 438 613 q 678 554 603 613 q 757 351 757 493 q 728 194 757 264 q 646 78 699 124 q 340 -11 540 -11 q 96 54 169 -11 q 17 258 17 122 q 53 422 17 349 q 160 544 90 496 q 438 613 261 613 m 343 83 q 403 122 378 83 q 444 217 429 161 q 467 334 460 274 q 475 439 475 394 q 467 498 475 478 q 435 518 460 518 q 370 478 397 518 q 326 382 343 438 q 302 268 310 326 q 294 174 294 210 q 343 83 294 83 m 228 679 l 385 882 l 624 882 l 347 679 l 228 679 m 551 679 l 708 882 l 947 882 l 671 679 l 551 679 z "},"ō":{"ha":799,"x_min":17,"x_max":757,"o":"m 438 613 q 678 554 603 613 q 757 351 757 493 q 728 194 757 264 q 646 78 699 124 q 340 -11 540 -11 q 96 54 169 -11 q 17 258 17 122 q 53 422 17 349 q 160 544 90 496 q 438 613 261 613 m 343 83 q 403 122 378 83 q 444 217 429 161 q 467 334 460 274 q 475 439 475 394 q 467 498 475 478 q 435 518 460 518 q 370 478 397 518 q 326 382 343 438 q 302 268 310 326 q 294 174 294 210 q 343 83 294 83 m 242 838 l 735 838 l 710 731 l 215 731 l 242 838 z "},"⅛":{"ha":918,"x_min":78,"x_max":833,"o":"m 78 0 l 650 882 l 788 882 l 231 0 l 78 0 m 135 825 q 197 844 169 829 q 243 882 225 860 l 350 882 l 274 528 l 131 528 l 181 761 l 121 761 l 135 825 m 639 -11 q 526 15 564 -11 q 488 89 488 40 q 506 147 488 121 q 567 188 524 172 q 535 209 549 193 q 521 251 521 225 q 535 297 521 278 q 574 330 550 317 q 630 349 599 343 q 694 356 661 356 q 763 347 736 356 q 806 325 790 339 q 828 295 822 311 q 833 264 833 279 q 826 228 833 243 q 808 205 818 214 q 785 190 797 196 q 767 183 774 185 q 810 156 793 176 q 826 104 826 135 q 776 22 826 56 q 639 -11 726 -11 m 668 215 q 701 233 692 215 q 711 265 711 250 q 708 291 711 279 q 689 303 704 303 q 655 286 665 303 q 644 253 644 269 q 649 228 644 240 q 668 215 653 215 m 646 42 q 680 64 671 42 q 689 107 689 86 q 685 136 689 125 q 667 147 682 147 q 633 126 643 147 q 622 86 622 106 q 627 56 622 69 q 646 42 632 42 z "},"½":{"ha":938,"x_min":76,"x_max":865,"o":"m 76 0 l 649 882 l 786 882 l 229 0 l 76 0 m 133 825 q 196 844 168 829 q 242 882 224 860 l 349 882 l 272 528 l 129 528 l 179 761 l 119 761 l 133 825 m 494 69 q 577 97 538 81 q 647 138 617 114 q 695 193 678 161 q 713 265 713 225 q 708 301 713 288 q 692 314 703 314 q 657 284 671 314 q 633 225 643 254 l 519 225 l 539 311 q 610 353 575 339 q 696 368 646 368 q 758 362 728 368 q 813 342 789 356 q 851 308 836 328 q 865 260 865 288 q 858 222 865 240 q 833 183 851 203 q 785 140 815 163 q 708 93 754 118 l 835 93 l 824 0 l 483 0 l 494 69 z "},"₁":{"ha":256,"x_min":-14,"x_max":215,"o":"m 0 297 q 63 317 35 301 q 108 354 90 332 l 215 354 l 139 0 l -4 0 l 46 233 l -14 233 l 0 297 z "},"¼":{"ha":900,"x_min":76,"x_max":817,"o":"m 76 0 l 649 882 l 786 882 l 229 0 l 76 0 m 133 825 q 196 844 168 829 q 242 882 224 860 l 349 882 l 272 528 l 129 528 l 179 761 l 119 761 l 133 825 m 733 0 l 590 0 l 610 89 l 464 89 l 483 172 l 644 354 l 810 354 l 767 153 l 817 153 l 804 89 l 753 89 l 733 0 m 624 153 l 650 279 l 542 153 l 624 153 z "},"¹":{"ha":256,"x_min":99,"x_max":328,"o":"m 113 825 q 175 844 147 829 q 221 882 203 860 l 328 882 l 251 528 l 108 528 l 158 761 l 99 761 l 113 825 z "},"⅓":{"ha":915,"x_min":76,"x_max":838,"o":"m 76 0 l 649 882 l 786 882 l 229 0 l 76 0 m 618 -11 q 535 -1 571 -11 q 468 36 500 8 l 486 119 l 603 119 q 600 110 603 122 q 597 85 597 97 q 603 52 597 61 q 619 43 610 43 q 659 65 643 43 q 675 110 675 88 q 663 143 675 132 q 631 154 650 154 q 635 181 632 169 q 638 198 636 190 q 639 207 639 206 q 691 223 676 207 q 706 263 706 239 q 702 290 706 278 q 683 303 699 303 q 653 288 668 303 q 628 239 639 274 l 510 239 l 526 317 q 571 336 546 328 q 624 350 593 343 q 693 357 654 357 q 744 353 718 357 q 790 340 769 349 q 824 314 811 331 q 838 272 838 297 q 812 213 838 233 q 743 175 786 192 q 800 155 776 172 q 824 103 824 138 q 768 22 824 54 q 618 -11 713 -11 m 133 825 q 196 844 168 829 q 242 882 224 860 l 349 882 l 272 528 l 129 528 l 179 761 l 119 761 l 133 825 z "},"ǫ":{"ha":799,"x_min":17,"x_max":757,"o":"m 438 613 q 678 554 603 613 q 757 351 757 493 q 728 194 757 264 q 646 78 699 124 q 375 -10 547 -4 q 311 -66 340 -33 q 282 -139 282 -99 q 294 -179 282 -167 q 325 -192 307 -192 q 355 -184 338 -192 q 397 -156 372 -176 l 429 -214 q 332 -266 388 -249 q 224 -283 276 -283 q 104 -181 104 -283 q 117 -120 104 -147 q 149 -72 129 -93 q 194 -34 169 -50 q 246 -6 219 -18 q 96 54 147 7 q 17 258 17 122 q 53 422 17 349 q 160 544 90 496 q 438 613 261 613 m 343 83 q 403 122 378 83 q 444 217 429 161 q 467 334 460 274 q 475 439 475 394 q 467 498 475 478 q 435 518 460 518 q 370 478 397 518 q 326 382 343 438 q 302 268 310 326 q 294 174 294 210 q 343 83 294 83 z "},"ª":{"ha":546,"x_min":86,"x_max":554,"o":"m 101 451 l 488 451 l 474 383 l 86 383 l 101 451 m 193 869 q 266 897 228 889 q 356 904 304 904 q 451 896 413 904 q 512 872 489 888 q 544 835 535 857 q 554 785 554 813 q 551 753 554 769 q 546 721 549 738 l 507 536 l 372 536 l 358 590 l 353 590 q 299 548 336 567 q 222 529 261 529 q 151 556 179 529 q 124 632 124 582 q 146 701 124 675 q 205 740 168 726 q 289 757 242 753 q 385 761 336 761 q 389 778 388 769 q 390 797 390 788 q 383 826 390 814 q 351 839 375 839 q 297 790 310 839 l 179 790 l 193 869 m 374 708 l 360 708 q 282 665 282 708 q 292 636 282 649 q 319 624 301 624 q 351 638 338 624 q 367 668 364 651 l 374 708 z "},"º":{"ha":556,"x_min":93,"x_max":567,"o":"m 381 904 q 524 867 481 904 q 567 747 567 831 q 506 586 567 644 q 322 528 444 528 q 177 572 219 528 q 135 692 135 615 q 196 844 135 783 q 381 904 257 904 m 324 600 q 360 620 344 600 q 385 669 375 640 q 399 730 394 699 q 404 785 404 761 q 399 821 404 808 q 379 833 394 833 q 340 813 356 833 q 314 763 324 792 q 299 703 304 733 q 294 654 294 672 q 324 600 294 600 m 108 451 l 494 451 l 481 383 l 93 383 l 108 451 z "},"ø":{"ha":799,"x_min":17,"x_max":757,"o":"m 438 613 q 589 596 526 613 l 635 650 l 697 610 l 660 565 q 703 534 685 556 q 733 484 721 513 q 751 422 744 456 q 757 351 757 388 q 651 83 757 176 q 340 -11 546 -11 q 260 -7 296 -11 q 193 4 224 -3 l 140 -58 l 88 -12 l 125 32 q 44 122 72 64 q 17 258 17 179 q 43 401 17 336 q 122 513 69 467 q 253 586 174 560 q 438 613 332 613 m 435 518 q 381 491 404 518 q 340 423 357 464 q 313 333 324 382 q 299 243 303 285 l 475 456 q 465 502 474 486 q 435 518 457 518 m 343 83 q 390 106 369 83 q 426 165 411 129 q 451 244 442 200 q 467 333 461 289 l 297 131 q 343 83 307 83 z "},"ǿ":{"ha":799,"x_min":17,"x_max":757,"o":"m 367 679 l 496 882 l 735 882 l 486 679 l 367 679 m 438 613 q 589 596 526 613 l 635 650 l 697 610 l 660 565 q 703 534 685 556 q 733 484 721 513 q 751 422 744 456 q 757 351 757 388 q 651 83 757 176 q 340 -11 546 -11 q 260 -7 296 -11 q 193 4 224 -3 l 140 -58 l 88 -12 l 125 32 q 44 122 72 64 q 17 258 17 179 q 43 401 17 336 q 122 513 69 467 q 253 586 174 560 q 438 613 332 613 m 435 518 q 381 491 404 518 q 340 423 357 464 q 313 333 324 382 q 299 243 303 285 l 475 456 q 465 502 474 486 q 435 518 457 518 m 343 83 q 390 106 369 83 q 426 165 411 129 q 451 244 442 200 q 467 333 461 289 l 297 131 q 343 83 307 83 z "},"õ":{"ha":799,"x_min":17,"x_max":778,"o":"m 438 613 q 678 554 603 613 q 757 351 757 493 q 728 194 757 264 q 646 78 699 124 q 340 -11 540 -11 q 96 54 169 -11 q 17 258 17 122 q 53 422 17 349 q 160 544 90 496 q 438 613 261 613 m 343 83 q 403 122 378 83 q 444 217 429 161 q 467 334 460 274 q 475 439 475 394 q 467 498 475 478 q 435 518 460 518 q 370 478 397 518 q 326 382 343 438 q 302 268 310 326 q 294 174 294 210 q 343 83 294 83 m 778 854 q 694 740 736 778 q 590 703 653 703 q 531 711 565 703 q 462 728 497 719 q 395 746 426 738 q 344 754 364 754 q 293 738 319 754 q 254 706 267 721 l 208 746 q 295 853 251 817 q 399 889 339 889 q 453 882 421 889 q 520 866 486 875 q 586 850 554 857 q 639 843 618 843 q 685 856 658 843 q 729 889 713 869 l 778 854 z "},"p":{"ha":811,"x_min":-64,"x_max":774,"o":"m 219 -233 l -64 -233 l 111 597 l 338 597 l 363 508 l 371 508 q 483 584 421 561 q 604 607 544 607 q 685 592 653 607 q 738 553 718 578 q 765 493 757 528 q 774 419 774 458 q 771 361 774 400 q 758 274 768 322 q 731 176 749 226 q 683 83 713 125 q 608 15 653 42 q 500 -11 563 -11 q 433 -3 465 -11 q 374 19 400 6 q 327 52 347 33 q 297 90 307 71 l 289 90 l 219 -233 m 367 124 q 422 159 400 124 q 458 242 444 194 q 478 338 472 290 q 485 410 485 386 q 476 456 485 438 q 443 474 467 474 q 393 455 417 474 q 358 422 369 436 l 304 168 q 331 138 315 153 q 367 124 346 124 z "},"¶":{"ha":854,"x_min":86,"x_max":922,"o":"m 210 -233 l 338 326 q 157 386 214 335 q 86 574 86 449 q 119 723 86 656 q 217 833 153 790 q 468 896 306 896 l 922 896 l 900 790 l 808 790 l 589 -233 l 454 -233 l 688 790 l 564 790 l 343 -233 l 210 -233 z "},"(":{"ha":428,"x_min":43,"x_max":521,"o":"m 521 943 q 421 806 471 885 q 331 635 371 726 q 267 446 292 544 q 243 251 243 347 q 270 72 243 144 q 331 -54 297 -1 l 279 -97 q 183 -30 226 -71 q 109 64 140 11 q 60 179 78 117 q 43 313 43 242 q 78 516 43 414 q 173 709 114 618 q 310 875 232 800 q 472 997 388 950 l 521 943 z "},")":{"ha":428,"x_min":-56,"x_max":422,"o":"m -56 -44 q 44 94 -6 14 q 134 265 94 174 q 199 453 174 356 q 224 649 224 551 q 196 828 224 756 q 136 954 168 901 l 186 997 q 282 930 239 971 q 356 836 325 889 q 405 721 388 783 q 422 588 422 658 q 388 384 422 486 q 294 191 353 282 q 157 25 235 100 q -6 -97 79 -50 l -56 -44 z "},"%":{"ha":1006,"x_min":110,"x_max":928,"o":"m 161 0 l 733 882 l 871 882 l 314 0 l 161 0 m 336 896 q 453 862 411 896 q 496 739 496 828 q 440 585 496 642 q 265 528 383 528 q 147 560 183 528 q 110 674 110 593 q 167 837 110 778 q 336 896 225 896 m 276 589 q 307 610 293 589 q 331 663 321 632 q 348 728 342 693 q 354 789 354 763 q 333 835 354 835 q 301 814 317 835 q 276 763 286 793 q 259 699 265 733 q 253 639 253 665 q 276 589 253 589 m 768 357 q 885 323 843 357 q 928 200 928 289 q 872 46 928 103 q 697 -11 815 -11 q 578 22 615 -11 q 542 135 542 54 q 599 298 542 239 q 768 357 657 357 m 708 50 q 739 72 725 50 q 763 124 753 93 q 780 189 774 154 q 786 250 786 224 q 765 296 786 296 q 733 275 749 296 q 708 224 718 254 q 691 160 697 194 q 685 100 685 126 q 708 50 685 50 z "},".":{"ha":381,"x_min":0,"x_max":282,"o":"m 282 122 q 269 65 282 90 q 234 24 256 40 q 185 -2 213 7 q 126 -11 157 -11 q 37 17 74 -11 q 0 107 0 46 q 13 164 0 139 q 46 206 25 189 q 94 231 67 222 q 150 240 121 240 q 244 212 207 240 q 282 122 282 183 z "},"·":{"ha":379,"x_min":64,"x_max":346,"o":"m 346 444 q 333 388 346 413 q 298 346 319 363 q 249 320 276 329 q 190 311 221 311 q 101 340 138 311 q 64 429 64 368 q 76 486 64 461 q 110 528 89 511 q 158 553 131 544 q 214 563 185 563 q 308 534 271 563 q 346 444 346 506 z "},"‰":{"ha":1464,"x_min":108,"x_max":1388,"o":"m 160 0 l 732 882 l 869 882 l 313 0 l 160 0 m 335 896 q 452 862 410 896 q 494 739 494 828 q 438 585 494 642 q 264 528 382 528 q 145 560 182 528 q 108 674 108 593 q 166 837 108 778 q 335 896 224 896 m 275 589 q 306 610 292 589 q 330 663 319 632 q 347 728 340 693 q 353 789 353 763 q 332 835 353 835 q 300 814 315 835 q 274 763 285 793 q 258 699 264 733 q 251 639 251 665 q 275 589 251 589 m 767 357 q 884 323 842 357 q 926 200 926 289 q 870 46 926 103 q 696 -11 814 -11 q 577 22 614 -11 q 540 135 540 54 q 598 298 540 239 q 767 357 656 357 m 707 50 q 738 72 724 50 q 762 124 751 93 q 778 189 772 154 q 785 250 785 224 q 764 296 785 296 q 732 275 747 296 q 706 224 717 254 q 690 160 696 194 q 683 100 683 126 q 707 50 683 50 m 1228 357 q 1345 323 1303 357 q 1388 200 1388 289 q 1331 46 1388 103 q 1157 -11 1275 -11 q 1038 22 1075 -11 q 1001 135 1001 54 q 1059 298 1001 239 q 1228 357 1117 357 m 1168 50 q 1199 72 1185 50 q 1223 124 1213 93 q 1240 189 1233 154 q 1246 250 1246 224 q 1225 296 1246 296 q 1193 275 1208 296 q 1167 224 1178 254 q 1151 160 1157 194 q 1144 100 1144 126 q 1168 50 1144 50 z "},"+":{"ha":638,"x_min":42,"x_max":629,"o":"m 463 725 l 417 506 l 629 506 l 601 379 l 390 379 l 343 151 l 196 151 l 246 379 l 42 379 l 71 506 l 275 506 l 324 725 l 463 725 z "},"±":{"ha":683,"x_min":-1,"x_max":668,"o":"m 501 838 l 456 618 l 668 618 l 640 492 l 429 492 l 382 264 l 235 264 l 285 492 l 81 492 l 110 618 l 313 618 l 361 838 l 501 838 m 28 165 l 586 165 l 558 38 l -1 38 l 28 165 z "},"q":{"ha":801,"x_min":10,"x_max":790,"o":"m 565 597 l 790 597 l 614 -233 l 329 -233 l 399 89 l 389 89 q 365 59 381 76 q 325 26 350 42 q 266 -1 300 10 q 189 -11 232 -11 q 106 3 140 -11 q 51 43 72 18 q 19 103 29 68 q 10 181 10 139 q 13 238 10 199 q 26 326 15 278 q 56 424 36 374 q 110 517 76 475 q 194 585 144 558 q 315 613 244 613 q 367 608 340 613 q 418 593 393 604 q 463 561 443 582 q 493 507 482 540 l 501 507 l 565 597 m 408 476 q 353 440 375 476 q 317 354 331 403 q 297 257 303 306 q 290 185 290 208 q 299 138 290 157 q 331 119 307 119 q 382 140 358 119 q 417 175 406 160 l 471 429 q 445 460 461 444 q 408 476 429 476 z "},"?":{"ha":729,"x_min":101,"x_max":763,"o":"m 454 279 l 246 279 l 281 485 q 373 526 332 497 q 443 594 414 556 q 488 678 472 633 q 503 768 503 724 q 493 825 503 804 q 456 846 483 846 q 407 828 429 846 q 366 782 385 811 q 332 715 347 753 q 306 639 317 678 l 101 639 l 144 847 q 292 925 215 907 q 444 943 369 943 q 763 717 763 943 q 735 602 763 651 q 665 517 707 553 q 573 458 622 481 q 481 422 524 435 l 454 279 m 190 90 q 203 144 190 121 q 238 182 217 167 q 285 204 258 197 q 342 211 313 211 q 425 186 392 211 q 458 110 458 161 q 446 58 458 81 q 413 21 433 36 q 365 -3 392 6 q 310 -11 338 -11 q 224 14 257 -11 q 190 90 190 39 z "},"¿":{"ha":724,"x_min":-37,"x_max":624,"o":"m 271 431 l 479 431 l 444 225 q 352 183 393 213 q 282 115 311 154 q 238 31 253 76 q 222 -58 222 -14 q 232 -115 222 -94 q 269 -136 242 -136 q 318 -119 296 -136 q 359 -72 340 -101 q 393 -6 378 -43 q 419 71 408 32 l 624 71 l 581 -137 q 433 -215 510 -197 q 281 -233 356 -233 q -37 -7 -37 -233 q -10 107 -37 57 q 60 193 18 157 q 152 252 103 229 q 244 288 201 275 l 271 431 m 535 619 q 522 565 535 588 q 488 528 508 543 q 440 506 467 513 q 383 499 413 499 q 300 524 333 499 q 267 600 267 549 q 279 651 267 629 q 313 689 292 674 q 360 713 333 704 q 415 721 388 721 q 501 696 468 721 q 535 619 535 671 z "},"\"":{"ha":619,"x_min":117,"x_max":699,"o":"m 254 546 l 117 546 l 178 933 l 390 933 l 254 546 m 564 546 l 426 546 l 488 933 l 699 933 l 564 546 z "},"„":{"ha":749,"x_min":-29,"x_max":646,"o":"m 646 118 q 621 17 646 65 q 558 -73 596 -32 q 472 -145 519 -114 q 378 -194 424 -176 l 339 -136 q 415 -67 389 -97 q 440 -6 440 -36 q 363 100 440 43 q 375 160 363 133 q 409 204 388 186 q 458 232 431 222 q 515 242 486 242 q 608 211 571 242 q 646 118 646 181 m 279 118 q 254 17 279 65 q 190 -73 229 -32 q 103 -145 151 -114 q 10 -194 56 -176 l -29 -136 q 47 -67 21 -97 q 72 -6 72 -36 q -4 100 72 43 q 8 160 -4 133 q 42 204 21 186 q 90 232 63 222 q 147 242 118 242 q 242 211 204 242 q 279 118 279 181 z "},"“":{"ha":739,"x_min":108,"x_max":783,"o":"m 108 644 q 133 745 108 696 q 197 835 158 794 q 283 908 235 876 q 376 957 331 939 l 417 899 q 340 829 365 860 q 314 768 314 799 q 392 663 314 719 q 379 603 392 629 q 345 558 367 576 q 297 531 324 540 q 240 521 269 521 q 146 551 183 521 q 108 644 108 582 m 476 644 q 501 745 476 696 q 565 835 526 794 q 651 908 603 876 q 744 957 699 939 l 783 899 q 708 829 733 860 q 682 768 682 799 q 760 663 682 719 q 747 603 760 629 q 713 558 735 576 q 664 531 692 540 q 607 521 636 521 q 514 551 551 521 q 476 644 476 582 z "},"”":{"ha":733,"x_min":114,"x_max":789,"o":"m 789 833 q 764 732 789 781 q 701 642 739 683 q 615 569 663 601 q 521 521 567 538 l 482 579 q 558 649 532 618 q 583 708 583 679 q 506 815 583 758 q 518 875 506 849 q 552 919 531 901 q 601 947 574 938 q 658 957 629 957 q 751 926 714 957 q 789 833 789 896 m 422 833 q 397 732 422 781 q 333 642 372 683 q 247 569 294 601 q 153 521 199 538 l 114 579 q 190 649 164 618 q 215 708 215 679 q 139 815 215 758 q 151 875 139 849 q 185 919 164 901 q 233 947 206 938 q 290 957 261 957 q 385 926 347 957 q 422 833 422 896 z "},"‘":{"ha":371,"x_min":108,"x_max":417,"o":"m 108 644 q 133 745 108 696 q 197 835 158 794 q 283 908 235 876 q 376 957 331 939 l 417 899 q 340 829 365 860 q 314 768 314 799 q 392 663 314 719 q 379 603 392 629 q 345 558 367 576 q 297 531 324 540 q 240 521 269 521 q 146 551 183 521 q 108 644 108 582 z "},"’":{"ha":367,"x_min":114,"x_max":422,"o":"m 422 833 q 397 732 422 781 q 333 642 372 683 q 247 569 294 601 q 153 521 199 538 l 114 579 q 190 649 164 618 q 215 708 215 679 q 139 815 215 758 q 151 875 139 849 q 185 919 164 901 q 233 947 206 938 q 290 957 261 957 q 385 926 347 957 q 422 833 422 896 z "},"‚":{"ha":382,"x_min":-28,"x_max":279,"o":"m 279 118 q 254 17 279 65 q 191 -73 229 -32 q 105 -145 153 -114 q 11 -194 57 -176 l -28 -136 q 48 -67 22 -97 q 74 -6 74 -36 q -4 100 74 43 q 8 160 -4 133 q 42 204 21 186 q 92 232 64 222 q 149 242 119 242 q 242 211 204 242 q 279 118 279 181 z "},"'":{"ha":297,"x_min":117,"x_max":390,"o":"m 225 546 l 117 546 l 178 933 l 390 933 l 225 546 z "},"r":{"ha":671,"x_min":-14,"x_max":689,"o":"m 113 597 l 339 597 l 360 493 l 369 493 q 451 578 401 543 q 583 613 501 613 q 601 612 589 613 q 627 608 613 611 q 658 598 642 604 q 689 581 674 592 l 628 294 l 476 294 q 461 415 474 381 q 421 449 449 449 q 391 442 407 449 q 358 415 375 436 l 269 0 l -14 0 l 113 597 z "},"ŕ":{"ha":671,"x_min":-14,"x_max":711,"o":"m 113 597 l 339 597 l 360 493 l 369 493 q 451 578 401 543 q 583 613 501 613 q 601 612 589 613 q 627 608 613 611 q 658 598 642 604 q 689 581 674 592 l 628 294 l 476 294 q 461 415 474 381 q 421 449 449 449 q 391 442 407 449 q 358 415 375 436 l 269 0 l -14 0 l 113 597 m 343 679 l 472 882 l 711 882 l 463 679 l 343 679 z "},"ř":{"ha":671,"x_min":-14,"x_max":722,"o":"m 113 597 l 339 597 l 360 493 l 369 493 q 451 578 401 543 q 583 613 501 613 q 601 612 589 613 q 627 608 613 611 q 658 598 642 604 q 689 581 674 592 l 628 294 l 476 294 q 461 415 474 381 q 421 449 449 449 q 391 442 407 449 q 358 415 375 436 l 269 0 l -14 0 l 113 597 m 722 882 l 519 679 l 313 679 l 197 882 l 304 882 l 419 754 l 603 882 l 722 882 z "},"ŗ":{"ha":671,"x_min":-15,"x_max":689,"o":"m 113 597 l 339 597 l 360 493 l 369 493 q 451 578 401 543 q 583 613 501 613 q 601 612 589 613 q 627 608 613 611 q 658 598 642 604 q 689 581 674 592 l 628 294 l 476 294 q 461 415 474 381 q 421 449 449 449 q 391 442 407 449 q 358 415 375 436 l 269 0 l -14 0 l 113 597 m 204 -176 q 187 -246 204 -212 q 142 -308 169 -279 q 81 -358 114 -336 q 14 -394 47 -381 l -15 -353 q 38 -304 19 -326 q 57 -260 57 -282 q 1 -187 57 -225 q 35 -112 1 -139 q 113 -86 68 -86 q 178 -108 153 -86 q 204 -176 204 -131 z "},"ṛ":{"ha":671,"x_min":-14,"x_max":689,"o":"m 113 597 l 339 597 l 360 493 l 369 493 q 451 578 401 543 q 583 613 501 613 q 601 612 589 613 q 627 608 613 611 q 658 598 642 604 q 689 581 674 592 l 628 294 l 476 294 q 461 415 474 381 q 421 449 449 449 q 391 442 407 449 q 358 415 375 436 l 269 0 l -14 0 l 113 597 m 218 -200 q 208 -244 218 -225 q 180 -276 197 -264 q 140 -296 163 -289 q 93 -303 117 -303 q 17 -282 49 -303 q -14 -214 -14 -261 q 24 -138 -14 -164 q 113 -112 63 -112 q 188 -133 157 -112 q 218 -200 218 -154 z "},"®":{"ha":1049,"x_min":63,"x_max":1018,"o":"m 1018 468 q 974 272 1018 361 q 858 117 931 182 q 693 17 786 53 q 500 -19 600 -19 q 328 11 408 -19 q 190 97 249 42 q 97 231 131 153 q 63 403 63 308 q 105 594 63 507 q 219 746 147 682 q 385 846 292 810 q 581 882 478 882 q 753 851 674 882 q 892 767 833 821 q 985 636 951 713 q 1018 468 1018 560 m 925 463 q 898 597 925 536 q 824 702 871 658 q 713 770 776 746 q 574 794 649 794 q 415 765 490 794 q 283 685 340 736 q 191 563 225 633 q 157 408 157 492 q 184 269 157 332 q 258 162 211 207 q 369 92 306 117 q 508 68 433 68 q 663 97 588 68 q 796 179 738 126 q 890 304 854 232 q 925 463 925 376 m 776 565 q 753 485 776 522 q 676 429 731 449 l 758 222 l 579 222 l 518 411 l 508 411 l 468 222 l 293 222 l 389 672 l 596 672 q 668 668 635 672 q 726 653 701 664 q 763 620 750 642 q 776 565 776 599 m 551 471 q 583 481 569 471 q 604 505 596 490 q 616 535 613 519 q 619 564 619 551 q 613 596 619 583 q 586 608 607 608 l 554 608 l 519 471 l 551 471 z "},"˚":{"ha":357,"x_min":51,"x_max":306,"o":"m 306 793 q 294 742 306 765 q 263 701 282 718 q 219 674 244 683 q 168 664 194 664 q 85 694 118 664 q 51 776 51 725 q 63 828 51 804 q 93 868 74 851 q 137 894 113 885 q 189 904 161 904 q 272 873 239 904 q 306 793 306 842 m 225 788 q 213 816 225 806 q 182 826 200 826 q 147 814 163 826 q 131 781 131 801 q 143 751 131 763 q 174 739 156 739 q 209 753 193 739 q 225 788 225 767 z "},"s":{"ha":676,"x_min":-24,"x_max":639,"o":"m 426 422 q 429 436 428 429 q 431 451 431 443 q 422 498 431 476 q 386 519 413 519 q 339 499 363 519 q 315 446 315 479 q 327 410 315 424 q 358 389 339 397 q 402 375 378 381 q 450 364 426 369 q 513 344 483 356 q 567 313 543 332 q 604 265 590 293 q 618 194 618 236 q 591 97 618 136 q 516 33 564 57 q 403 -1 468 8 q 265 -11 339 -11 q 79 6 153 -11 q -24 38 6 22 l 6 176 l 193 176 q 192 163 192 169 q 192 150 192 157 q 206 99 192 118 q 257 81 221 81 q 315 103 297 81 q 332 146 332 126 q 317 180 332 165 q 281 205 303 194 q 231 223 258 215 q 179 238 204 231 q 138 251 161 242 q 94 279 115 261 q 60 326 74 297 q 46 397 46 354 q 76 499 46 458 q 153 565 106 540 q 262 601 201 590 q 383 613 322 613 q 528 599 460 613 q 639 563 596 585 l 607 422 l 426 422 z "},"ﬆ":{"ha":1197,"x_min":-24,"x_max":1218,"o":"m 717 597 q 826 626 782 607 q 897 666 871 644 q 935 711 924 688 q 946 754 946 735 q 910 812 946 789 q 799 835 875 835 q 714 827 760 835 q 629 802 668 819 q 564 757 590 785 q 538 689 538 729 q 565 616 538 642 q 639 563 592 590 l 607 422 l 426 422 q 429 436 428 429 q 431 451 431 443 q 422 498 431 476 q 386 519 413 519 q 339 499 363 519 q 315 446 315 479 q 327 410 315 424 q 358 389 339 397 q 402 375 378 381 q 450 364 426 369 q 513 344 483 356 q 567 313 543 332 q 604 265 590 293 q 618 194 618 236 q 591 97 618 136 q 516 33 564 57 q 403 -1 468 8 q 265 -11 339 -11 q 79 6 153 -11 q -24 38 6 22 l 6 176 l 193 176 q 192 163 192 169 q 192 150 192 157 q 206 99 192 118 q 257 81 221 81 q 315 103 297 81 q 332 146 332 126 q 317 180 332 165 q 281 205 303 194 q 231 223 258 215 q 179 238 204 231 q 138 251 161 242 q 94 279 115 261 q 60 326 74 297 q 46 397 46 354 q 76 499 46 458 q 153 565 106 540 q 262 601 201 590 q 383 613 322 613 q 430 611 407 613 q 475 607 453 610 q 435 642 449 621 q 422 704 422 664 q 456 806 422 761 q 548 883 489 851 q 687 933 607 915 q 858 950 767 950 q 963 940 913 950 q 1053 907 1014 929 q 1117 851 1093 885 q 1140 771 1140 818 q 1136 726 1140 749 l 1108 597 l 1218 597 l 1199 504 l 1089 504 l 1032 233 q 1021 176 1025 201 q 1017 138 1017 151 q 1037 103 1017 110 q 1113 96 1057 96 l 1092 0 q 1062 -4 1082 -3 q 1017 -8 1042 -6 q 967 -10 993 -10 q 922 -11 942 -11 q 854 -6 888 -11 q 794 13 821 -1 q 752 56 768 28 q 736 131 736 83 q 738 172 736 147 q 747 228 740 197 l 806 504 l 697 504 l 717 597 z "},"ś":{"ha":676,"x_min":-24,"x_max":693,"o":"m 426 422 q 429 436 428 429 q 431 451 431 443 q 422 498 431 476 q 386 519 413 519 q 339 499 363 519 q 315 446 315 479 q 327 410 315 424 q 358 389 339 397 q 402 375 378 381 q 450 364 426 369 q 513 344 483 356 q 567 313 543 332 q 604 265 590 293 q 618 194 618 236 q 591 97 618 136 q 516 33 564 57 q 403 -1 468 8 q 265 -11 339 -11 q 79 6 153 -11 q -24 38 6 22 l 6 176 l 193 176 q 192 163 192 169 q 192 150 192 157 q 206 99 192 118 q 257 81 221 81 q 315 103 297 81 q 332 146 332 126 q 317 180 332 165 q 281 205 303 194 q 231 223 258 215 q 179 238 204 231 q 138 251 161 242 q 94 279 115 261 q 60 326 74 297 q 46 397 46 354 q 76 499 46 458 q 153 565 106 540 q 262 601 201 590 q 383 613 322 613 q 528 599 460 613 q 639 563 596 585 l 607 422 l 426 422 m 325 679 l 454 882 l 693 882 l 444 679 l 325 679 z "},"š":{"ha":676,"x_min":-24,"x_max":707,"o":"m 426 422 q 429 436 428 429 q 431 451 431 443 q 422 498 431 476 q 386 519 413 519 q 339 499 363 519 q 315 446 315 479 q 327 410 315 424 q 358 389 339 397 q 402 375 378 381 q 450 364 426 369 q 513 344 483 356 q 567 313 543 332 q 604 265 590 293 q 618 194 618 236 q 591 97 618 136 q 516 33 564 57 q 403 -1 468 8 q 265 -11 339 -11 q 79 6 153 -11 q -24 38 6 22 l 6 176 l 193 176 q 192 163 192 169 q 192 150 192 157 q 206 99 192 118 q 257 81 221 81 q 315 103 297 81 q 332 146 332 126 q 317 180 332 165 q 281 205 303 194 q 231 223 258 215 q 179 238 204 231 q 138 251 161 242 q 94 279 115 261 q 60 326 74 297 q 46 397 46 354 q 76 499 46 458 q 153 565 106 540 q 262 601 201 590 q 383 613 322 613 q 528 599 460 613 q 639 563 596 585 l 607 422 l 426 422 m 707 882 l 504 679 l 297 679 l 182 882 l 289 882 l 404 754 l 588 882 l 707 882 z "},"ə":{"ha":760,"x_min":-3,"x_max":719,"o":"m -3 167 q 8 248 -3 204 q 42 322 19 292 l 432 322 q 440 379 438 351 q 442 431 442 407 q 440 458 442 443 q 434 487 439 474 q 420 509 429 500 q 394 518 411 518 q 366 510 382 518 q 334 486 350 501 q 303 449 318 471 q 281 399 289 426 l 53 399 l 89 547 q 152 578 115 565 q 229 598 189 590 q 311 609 269 606 q 390 613 353 613 q 519 600 460 613 q 624 557 579 588 q 694 476 668 526 q 719 350 719 425 q 698 216 719 281 q 626 101 676 151 q 490 19 575 50 q 276 -11 404 -11 q 67 32 138 -11 q -3 167 -3 75 m 247 157 q 261 99 247 114 q 294 83 275 83 q 335 98 317 83 q 369 137 354 113 q 397 192 385 161 q 418 258 410 224 l 260 258 q 253 224 256 240 q 249 190 250 208 q 247 157 247 172 z "},"ŝ":{"ha":676,"x_min":-24,"x_max":653,"o":"m 426 422 q 429 436 428 429 q 431 451 431 443 q 422 498 431 476 q 386 519 413 519 q 339 499 363 519 q 315 446 315 479 q 327 410 315 424 q 358 389 339 397 q 402 375 378 381 q 450 364 426 369 q 513 344 483 356 q 567 313 543 332 q 604 265 590 293 q 618 194 618 236 q 591 97 618 136 q 516 33 564 57 q 403 -1 468 8 q 265 -11 339 -11 q 79 6 153 -11 q -24 38 6 22 l 6 176 l 193 176 q 192 163 192 169 q 192 150 192 157 q 206 99 192 118 q 257 81 221 81 q 315 103 297 81 q 332 146 332 126 q 317 180 332 165 q 281 205 303 194 q 231 223 258 215 q 179 238 204 231 q 138 251 161 242 q 94 279 115 261 q 60 326 74 297 q 46 397 46 354 q 76 499 46 458 q 153 565 106 540 q 262 601 201 590 q 383 613 322 613 q 528 599 460 613 q 639 563 596 585 l 607 422 l 426 422 m 128 679 l 331 882 l 538 882 l 653 679 l 547 679 l 432 808 l 247 679 l 128 679 z "},"ṣ":{"ha":676,"x_min":-24,"x_max":639,"o":"m 426 422 q 429 436 428 429 q 431 451 431 443 q 422 498 431 476 q 386 519 413 519 q 339 499 363 519 q 315 446 315 479 q 327 410 315 424 q 358 389 339 397 q 402 375 378 381 q 450 364 426 369 q 513 344 483 356 q 567 313 543 332 q 604 265 590 293 q 618 194 618 236 q 591 97 618 136 q 516 33 564 57 q 403 -1 468 8 q 265 -11 339 -11 q 79 6 153 -11 q -24 38 6 22 l 6 176 l 193 176 q 192 163 192 169 q 192 150 192 157 q 206 99 192 118 q 257 81 221 81 q 315 103 297 81 q 332 146 332 126 q 317 180 332 165 q 281 205 303 194 q 231 223 258 215 q 179 238 204 231 q 138 251 161 242 q 94 279 115 261 q 60 326 74 297 q 46 397 46 354 q 76 499 46 458 q 153 565 106 540 q 262 601 201 590 q 383 613 322 613 q 528 599 460 613 q 639 563 596 585 l 607 422 l 426 422 m 325 -200 q 315 -244 325 -225 q 287 -276 304 -264 q 247 -296 269 -289 q 200 -303 224 -303 q 124 -282 156 -303 q 93 -214 93 -261 q 131 -138 93 -164 q 219 -112 169 -112 q 294 -133 264 -112 q 325 -200 325 -154 z "},"§":{"ha":756,"x_min":-25,"x_max":749,"o":"m 701 749 q 628 781 672 764 q 536 797 583 797 q 485 789 504 797 q 455 768 465 781 q 441 742 444 756 q 438 718 438 728 q 448 681 438 696 q 477 654 458 665 q 520 634 496 643 q 574 617 544 625 q 623 598 596 610 q 673 565 650 586 q 711 511 696 544 q 726 426 726 478 q 674 279 726 332 q 536 204 622 226 q 575 149 560 182 q 590 64 590 117 q 564 -47 590 -1 q 491 -120 538 -92 q 381 -162 444 -149 q 244 -175 318 -175 q 140 -168 185 -175 q 64 -150 96 -161 q 10 -126 32 -139 q -25 -100 -11 -112 l -3 -12 q 34 -34 11 -24 q 85 -53 57 -44 q 142 -66 113 -61 q 200 -71 172 -71 q 253 -63 232 -71 q 285 -45 274 -56 q 301 -22 297 -35 q 306 0 306 -10 q 292 39 306 21 q 258 72 279 57 q 213 98 238 86 q 167 119 189 110 q 121 142 144 129 q 78 174 97 154 q 46 222 58 193 q 33 293 33 250 q 50 378 33 342 q 94 442 67 415 q 159 488 122 469 q 238 517 196 506 q 190 565 210 533 q 169 654 169 597 q 201 769 169 722 q 282 843 232 815 q 394 883 332 871 q 517 896 456 896 q 650 878 596 896 q 749 824 704 860 l 701 749 m 424 263 q 481 271 458 263 q 515 292 503 279 q 532 317 528 304 q 536 340 536 331 q 486 403 536 376 q 351 457 436 429 q 294 449 317 457 q 260 428 272 440 q 242 402 247 415 q 238 379 238 389 q 288 316 238 343 q 424 263 339 289 z "},";":{"ha":396,"x_min":-24,"x_max":340,"o":"m 340 442 q 328 389 340 413 q 297 350 317 365 q 251 326 276 335 q 197 318 225 318 q 115 344 149 318 q 81 428 81 371 q 123 519 81 486 q 219 551 165 551 q 306 525 271 551 q 340 442 340 499 m 274 104 q 250 8 274 54 q 189 -78 226 -39 q 104 -147 151 -117 q 11 -194 57 -176 l -24 -139 q 57 -69 26 -103 q 88 -4 88 -36 q 68 48 88 19 q 8 100 49 76 q 50 191 8 160 q 150 222 92 222 q 238 194 203 222 q 274 104 274 165 z "},"⅞":{"ha":949,"x_min":108,"x_max":864,"o":"m 108 0 l 681 882 l 818 882 l 261 0 l 108 0 m 669 -11 q 556 15 594 -11 q 518 89 518 40 q 536 147 518 121 q 597 188 554 172 q 565 209 579 193 q 551 251 551 225 q 566 297 551 278 q 605 330 581 317 q 660 349 629 343 q 725 356 692 356 q 794 347 767 356 q 837 325 821 339 q 858 295 853 311 q 864 264 864 279 q 856 228 864 243 q 838 205 849 214 q 816 190 828 196 q 797 183 804 185 q 840 156 824 176 q 857 104 857 135 q 807 22 857 56 q 669 -11 757 -11 m 699 215 q 732 233 722 215 q 742 265 742 250 q 738 291 742 279 q 719 303 735 303 q 685 286 696 303 q 675 253 675 269 q 679 228 675 240 q 699 215 683 215 m 676 42 q 710 64 701 42 q 719 107 719 86 q 716 136 719 125 q 697 147 713 147 q 663 126 674 147 q 653 86 653 106 q 658 56 653 69 q 676 42 663 42 m 435 821 q 369 774 397 804 q 324 703 342 743 q 297 619 306 664 q 289 528 289 574 l 146 528 q 153 583 146 547 q 178 658 161 618 q 225 735 196 697 q 297 797 254 772 l 126 797 l 144 882 l 446 882 l 435 821 z "},"₇":{"ha":322,"x_min":-8,"x_max":311,"o":"m 300 293 q 235 245 263 276 q 189 174 207 214 q 163 90 171 135 q 154 0 154 46 l 11 0 q 19 55 11 19 q 44 130 26 90 q 90 207 61 169 q 163 269 119 244 l -8 269 l 10 354 l 311 354 l 300 293 z "},"⁷":{"ha":321,"x_min":103,"x_max":422,"o":"m 411 821 q 346 774 374 804 q 300 703 318 743 q 274 619 282 664 q 265 528 265 574 l 122 528 q 130 583 122 547 q 155 658 138 618 q 201 735 172 697 q 274 797 231 772 l 103 797 l 121 882 l 422 882 l 411 821 z "},"₆":{"ha":390,"x_min":-18,"x_max":335,"o":"m 208 357 q 272 352 235 357 q 335 333 308 347 l 317 254 l 208 254 q 210 264 210 257 q 207 291 210 279 q 193 303 204 303 q 159 278 181 303 q 126 194 138 253 l 132 194 q 172 217 149 210 q 221 224 196 224 q 299 198 278 224 q 321 128 321 172 q 275 24 321 61 q 217 -1 251 8 q 133 -11 182 -11 q 71 -5 99 -11 q 23 17 43 1 q -8 61 3 33 q -18 131 -18 89 q -5 216 -18 175 q 35 288 8 257 q 106 338 63 319 q 208 357 149 357 m 131 42 q 155 51 144 42 q 172 75 165 61 q 181 104 178 89 q 183 131 183 119 q 180 151 183 143 q 165 160 176 160 q 140 150 150 160 q 122 127 129 140 q 112 100 115 114 q 108 76 108 86 q 131 42 108 42 z "},"⁶":{"ha":390,"x_min":94,"x_max":447,"o":"m 321 896 q 384 892 347 896 q 447 872 421 888 l 429 793 l 321 793 q 322 804 322 796 q 319 830 322 818 q 306 842 317 842 q 272 817 293 842 q 239 733 250 792 l 244 733 q 285 756 261 749 q 333 763 308 763 q 412 737 390 763 q 433 667 433 711 q 388 563 433 600 q 329 538 364 547 q 246 528 294 528 q 183 534 211 528 q 135 556 156 540 q 105 600 115 572 q 94 669 94 628 q 108 755 94 714 q 148 827 121 796 q 218 877 175 858 q 321 896 261 896 m 243 581 q 267 590 257 581 q 284 614 278 600 q 293 643 290 628 q 296 669 296 658 q 292 691 296 683 q 278 699 289 699 q 252 689 263 699 q 235 666 242 679 q 224 639 228 653 q 221 615 221 625 q 243 581 221 581 z "},"/":{"ha":497,"x_min":-40,"x_max":571,"o":"m -40 0 l 444 882 l 571 882 l 101 0 l -40 0 z "},"Ǽ":{"ha":1131,"x_min":-85,"x_max":1204,"o":"m 1182 776 l 899 776 l 839 501 l 1078 501 l 1056 397 l 817 397 l 754 107 l 1038 107 l 1017 0 l 431 0 l 489 276 l 247 276 l 46 0 l -85 0 l 576 882 l 1204 882 l 1182 776 m 511 378 l 589 744 l 322 378 l 511 378 m 797 963 l 926 1165 l 1165 1165 l 917 963 l 797 963 z "},"£":{"ha":863,"x_min":44,"x_max":833,"o":"m 53 93 q 165 209 131 153 q 199 331 199 265 q 198 360 199 343 q 196 396 197 378 l 44 396 l 68 501 l 176 501 q 165 574 165 531 q 188 690 165 632 q 258 793 210 747 q 383 867 307 839 q 565 896 458 896 q 695 883 632 896 q 833 843 758 871 l 789 721 q 709 749 753 736 q 614 763 665 763 q 478 715 522 763 q 435 596 435 668 q 442 541 435 561 q 449 501 449 521 l 594 501 l 572 396 l 440 396 q 392 294 425 340 q 296 196 358 247 l 299 192 q 305 192 297 190 q 326 198 313 194 q 357 204 339 201 q 396 207 375 207 q 447 201 425 207 q 490 189 469 196 q 532 176 511 182 q 576 171 553 171 q 648 189 615 171 q 692 247 681 207 l 796 247 q 728 51 786 113 q 564 -11 669 -11 q 483 -2 519 -11 q 414 18 447 7 q 345 38 381 29 q 267 47 310 47 q 197 38 233 47 q 114 4 160 29 l 53 93 z "},"t":{"ha":544,"x_min":44,"x_max":564,"o":"m 64 597 q 154 622 115 608 q 226 657 193 636 q 288 708 258 678 q 353 783 318 739 l 496 783 l 456 597 l 564 597 l 546 504 l 436 504 l 379 233 q 368 176 372 201 q 364 138 364 151 q 384 103 364 110 q 460 96 404 96 l 439 0 q 409 -4 429 -3 q 365 -8 389 -6 q 315 -10 340 -10 q 269 -11 289 -11 q 201 -6 235 -11 q 142 13 168 -1 q 99 56 115 28 q 83 131 83 83 q 85 172 83 147 q 94 228 88 197 l 153 504 l 44 504 l 64 597 z "},"ŧ":{"ha":547,"x_min":4,"x_max":565,"o":"m 65 597 q 156 622 117 608 q 227 657 194 636 q 290 708 260 678 q 354 783 319 739 l 497 783 l 457 597 l 565 597 l 547 504 l 438 504 l 414 397 l 522 397 l 497 290 l 392 290 l 381 233 q 369 176 374 201 q 365 138 365 151 q 385 103 365 110 q 461 96 406 96 l 440 0 q 410 -4 431 -3 q 366 -8 390 -6 q 316 -10 342 -10 q 271 -11 290 -11 q 203 -6 236 -11 q 143 13 169 -1 q 101 56 117 28 q 85 131 85 83 q 87 172 85 147 q 96 228 89 197 l 108 290 l 4 290 l 29 397 l 131 397 l 154 504 l 46 504 l 65 597 z "},"ť":{"ha":657,"x_min":44,"x_max":839,"o":"m 64 597 q 154 622 115 608 q 226 657 193 636 q 288 708 258 678 q 353 783 318 739 l 496 783 l 456 597 l 564 597 l 546 504 l 436 504 l 379 233 q 368 176 372 201 q 364 138 364 151 q 384 103 364 110 q 460 96 404 96 l 439 0 q 409 -4 429 -3 q 365 -8 389 -6 q 315 -10 340 -10 q 269 -11 289 -11 q 201 -6 235 -11 q 142 13 168 -1 q 99 56 115 28 q 83 131 83 83 q 85 172 83 147 q 94 228 88 197 l 153 504 l 44 504 l 64 597 m 582 588 q 631 628 604 604 q 678 693 657 653 q 624 726 644 701 q 603 786 603 750 q 613 835 603 814 q 642 872 624 857 q 682 896 660 888 q 729 904 704 904 q 807 878 775 904 q 839 800 839 853 q 819 713 839 754 q 767 639 799 672 q 694 581 735 606 q 614 539 654 556 q 597 563 604 551 q 585 580 590 572 q 582 588 581 588 z "},"ṭ":{"ha":544,"x_min":44,"x_max":564,"o":"m 64 597 q 154 622 115 608 q 226 657 193 636 q 288 708 258 678 q 353 783 318 739 l 496 783 l 456 597 l 564 597 l 546 504 l 436 504 l 379 233 q 368 176 372 201 q 364 138 364 151 q 384 103 364 110 q 460 96 404 96 l 439 0 q 409 -4 429 -3 q 365 -8 389 -6 q 315 -10 340 -10 q 269 -11 289 -11 q 201 -6 235 -11 q 142 13 168 -1 q 99 56 115 28 q 83 131 83 83 q 85 172 83 147 q 94 228 88 197 l 153 504 l 44 504 l 64 597 m 339 -200 q 328 -244 339 -225 q 301 -276 318 -264 q 260 -296 283 -289 q 214 -303 238 -303 q 138 -282 169 -303 q 107 -214 107 -261 q 145 -138 107 -164 q 233 -112 183 -112 q 308 -133 278 -112 q 339 -200 339 -154 z "},"þ":{"ha":811,"x_min":-64,"x_max":774,"o":"m 219 -233 l -64 -233 l 182 933 l 467 933 l 376 508 l 386 508 q 490 584 432 561 q 604 607 547 607 q 685 592 653 607 q 738 553 718 578 q 765 493 757 528 q 774 419 774 458 q 771 361 774 400 q 758 274 768 322 q 731 176 749 226 q 683 83 713 125 q 608 15 653 42 q 500 -11 563 -11 q 371 19 424 -11 q 297 90 318 50 l 289 90 l 219 -233 m 367 124 q 422 159 400 124 q 458 242 444 194 q 478 338 472 290 q 485 410 485 386 q 476 456 485 438 q 443 474 467 474 q 392 453 415 474 q 357 419 368 433 l 303 171 q 328 139 313 154 q 367 124 344 124 z "},"⅜":{"ha":1004,"x_min":92,"x_max":919,"o":"m 164 0 l 736 882 l 874 882 l 317 0 l 164 0 m 725 -11 q 612 15 650 -11 q 574 89 574 40 q 592 147 574 121 q 653 188 610 172 q 621 209 635 193 q 607 251 607 225 q 622 297 607 278 q 660 330 636 317 q 716 349 685 343 q 781 356 747 356 q 849 347 822 356 q 892 325 876 339 q 914 295 908 311 q 919 264 919 279 q 912 228 919 243 q 894 205 904 214 q 872 190 883 196 q 853 183 860 185 q 896 156 879 176 q 913 104 913 135 q 863 22 913 56 q 725 -11 813 -11 m 242 528 q 159 538 194 528 q 92 575 124 547 l 110 660 l 226 660 q 224 649 226 661 q 221 624 221 636 q 227 591 221 600 q 243 582 233 582 q 283 604 267 582 q 299 649 299 626 q 286 682 299 671 q 254 693 274 693 q 258 719 256 707 q 261 738 260 731 q 263 747 263 746 q 315 763 300 747 q 329 801 329 778 q 326 829 329 817 q 307 842 322 842 q 277 827 292 842 q 251 778 263 813 l 133 778 l 150 856 q 194 875 169 867 q 247 889 217 882 q 317 896 278 896 q 367 892 342 896 q 414 878 393 888 q 448 853 435 869 q 461 811 461 836 q 435 751 461 772 q 367 714 410 731 q 424 694 400 711 q 447 642 447 678 q 392 560 447 593 q 242 528 336 528 m 732 42 q 766 64 757 42 q 775 107 775 86 q 772 136 775 125 q 753 147 768 147 q 719 126 729 147 q 708 86 708 106 q 713 56 708 69 q 732 42 718 42 m 754 215 q 788 233 778 215 q 797 265 797 250 q 794 291 797 279 q 775 303 790 303 q 741 286 751 303 q 731 253 731 269 q 735 228 731 240 q 754 215 739 215 z "},"₃":{"ha":392,"x_min":-37,"x_max":332,"o":"m 113 -11 q 30 -1 65 -11 q -37 36 -6 8 l -19 119 l 97 119 q 94 110 97 122 q 92 85 92 97 q 98 52 92 61 q 114 43 104 43 q 153 65 138 43 q 169 110 169 88 q 157 143 169 132 q 125 154 144 154 q 129 181 126 169 q 132 198 131 190 q 133 207 133 206 q 185 223 171 207 q 200 263 200 239 q 197 290 200 278 q 178 303 193 303 q 148 288 163 303 q 122 239 133 274 l 4 239 l 21 317 q 65 336 40 328 q 118 350 88 343 q 188 357 149 357 q 238 353 213 357 q 285 340 264 349 q 319 314 306 331 q 332 272 332 297 q 306 213 332 233 q 238 175 281 192 q 294 155 271 172 q 318 103 318 138 q 263 22 318 54 q 113 -11 207 -11 z "},"¾":{"ha":1003,"x_min":92,"x_max":922,"o":"m 179 0 l 751 882 l 889 882 l 332 0 l 179 0 m 839 0 l 696 0 l 715 89 l 569 89 l 589 172 l 750 354 l 915 354 l 872 153 l 922 153 l 910 89 l 858 89 l 839 0 m 242 528 q 159 538 194 528 q 92 575 124 547 l 110 660 l 226 660 q 224 649 226 661 q 221 624 221 636 q 227 591 221 600 q 243 582 233 582 q 283 604 267 582 q 299 649 299 626 q 286 682 299 671 q 254 693 274 693 q 258 719 256 707 q 261 738 260 731 q 263 747 263 746 q 315 763 300 747 q 329 801 329 778 q 326 829 329 817 q 307 842 322 842 q 277 827 292 842 q 251 778 263 813 l 133 778 l 150 856 q 194 875 169 867 q 247 889 217 882 q 317 896 278 896 q 367 892 342 896 q 414 878 393 888 q 448 853 435 869 q 461 811 461 836 q 435 751 461 772 q 367 714 410 731 q 424 694 400 711 q 447 642 447 678 q 392 560 447 593 q 242 528 336 528 m 729 153 l 756 279 l 647 153 l 729 153 z "},"³":{"ha":392,"x_min":75,"x_max":444,"o":"m 225 528 q 142 538 178 528 q 75 575 107 547 l 93 660 l 210 660 q 207 649 210 661 q 204 624 204 636 q 210 591 204 600 q 226 582 217 582 q 266 604 250 582 q 282 649 282 626 q 269 682 282 671 q 238 693 257 693 q 242 719 239 707 q 244 738 243 731 q 246 747 246 746 q 298 763 283 747 q 313 801 313 778 q 309 829 313 817 q 290 842 306 842 q 260 827 275 842 q 235 778 246 813 l 117 778 l 133 856 q 178 875 153 867 q 231 889 200 882 q 300 896 261 896 q 351 892 325 896 q 397 878 376 888 q 431 853 418 869 q 444 811 444 836 q 419 751 444 772 q 350 714 393 731 q 407 694 383 711 q 431 642 431 678 q 375 560 431 593 q 225 528 319 528 z "},"˜":{"ha":642,"x_min":36,"x_max":606,"o":"m 606 854 q 522 740 564 778 q 418 703 481 703 q 359 711 393 703 q 290 728 325 719 q 223 746 254 738 q 172 754 192 754 q 121 738 147 754 q 82 706 94 721 l 36 746 q 123 853 79 817 q 226 889 167 889 q 281 882 249 889 q 348 866 314 875 q 414 850 382 857 q 467 843 446 843 q 513 856 486 843 q 557 889 540 869 l 606 854 z "},"™":{"ha":978,"x_min":165,"x_max":1014,"o":"m 942 546 l 803 546 l 850 772 l 725 546 l 601 546 l 578 781 l 526 546 l 450 546 l 521 882 l 708 882 l 725 692 l 826 882 l 1014 882 l 942 546 m 479 822 l 393 822 l 333 546 l 189 546 l 249 822 l 165 822 l 176 882 l 490 882 l 479 822 z "},"₂":{"ha":397,"x_min":-40,"x_max":342,"o":"m -29 69 q 53 97 14 81 q 124 138 93 114 q 172 193 154 161 q 189 265 189 225 q 184 301 189 288 q 168 314 179 314 q 133 284 147 314 q 110 225 119 254 l -4 225 l 15 311 q 87 353 51 339 q 172 368 122 368 q 235 362 204 368 q 289 342 265 356 q 327 308 313 328 q 342 260 342 288 q 335 222 342 240 q 310 183 328 203 q 261 140 292 163 q 185 93 231 118 l 311 93 l 300 0 l -40 0 l -29 69 z "},"²":{"ha":399,"x_min":72,"x_max":454,"o":"m 83 597 q 166 625 126 608 q 236 665 206 642 q 284 721 267 689 q 301 793 301 753 q 297 828 301 815 q 281 842 292 842 q 246 812 260 842 q 222 753 232 782 l 108 753 l 128 839 q 199 881 164 867 q 285 896 235 896 q 347 890 317 896 q 401 870 378 883 q 440 836 425 857 q 454 788 454 815 q 447 749 454 768 q 422 710 440 731 q 374 668 404 690 q 297 621 343 646 l 424 621 l 413 528 l 72 528 l 83 597 z "},"⅔":{"ha":1032,"x_min":90,"x_max":954,"o":"m 193 0 l 765 882 l 903 882 l 346 0 l 193 0 m 101 597 q 184 625 144 608 q 254 665 224 642 q 302 721 285 689 q 319 793 319 753 q 315 828 319 815 q 299 842 310 842 q 264 812 278 842 q 240 753 250 782 l 126 753 l 146 839 q 217 881 182 867 q 303 896 253 896 q 365 890 335 896 q 419 870 396 883 q 458 836 443 857 q 472 788 472 815 q 465 749 472 768 q 440 710 458 731 q 392 668 422 690 q 315 621 361 646 l 442 621 l 431 528 l 90 528 l 101 597 m 735 -11 q 652 -1 688 -11 q 585 36 617 8 l 603 119 l 719 119 q 717 110 719 122 q 714 85 714 97 q 720 52 714 61 q 736 43 726 43 q 776 65 760 43 q 792 110 792 88 q 779 143 792 132 q 747 154 767 154 q 751 181 749 169 q 754 198 753 190 q 756 207 756 206 q 808 223 793 207 q 822 263 822 239 q 819 290 822 278 q 800 303 815 303 q 770 288 785 303 q 744 239 756 274 l 626 239 l 643 317 q 688 336 663 328 q 740 350 710 343 q 810 357 771 357 q 860 353 835 357 q 907 340 886 349 q 941 314 928 331 q 954 272 954 297 q 928 213 954 233 q 860 175 903 192 q 917 155 893 172 q 940 103 940 138 q 885 22 940 54 q 735 -11 829 -11 z "},"u":{"ha":813,"x_min":15,"x_max":801,"o":"m 518 597 l 801 597 l 674 0 l 449 0 l 424 89 l 415 89 q 317 17 379 46 q 193 -11 256 -11 q 63 31 110 -11 q 15 142 15 74 q 27 228 15 176 q 49 326 39 281 l 107 597 l 389 597 l 319 272 q 314 246 317 261 q 308 216 311 231 q 303 188 306 201 q 301 167 301 175 q 310 131 301 146 q 343 117 319 117 q 390 133 368 117 q 425 165 413 150 l 518 597 z "},"ú":{"ha":813,"x_min":15,"x_max":801,"o":"m 518 597 l 801 597 l 674 0 l 449 0 l 424 89 l 415 89 q 317 17 379 46 q 193 -11 256 -11 q 63 31 110 -11 q 15 142 15 74 q 27 228 15 176 q 49 326 39 281 l 107 597 l 389 597 l 319 272 q 314 246 317 261 q 308 216 311 231 q 303 188 306 201 q 301 167 301 175 q 310 131 301 146 q 343 117 319 117 q 390 133 368 117 q 425 165 413 150 l 518 597 m 385 679 l 514 882 l 753 882 l 504 679 l 385 679 z "},"ŭ":{"ha":813,"x_min":15,"x_max":801,"o":"m 518 597 l 801 597 l 674 0 l 449 0 l 424 89 l 415 89 q 317 17 379 46 q 193 -11 256 -11 q 63 31 110 -11 q 15 142 15 74 q 27 228 15 176 q 49 326 39 281 l 107 597 l 389 597 l 319 272 q 314 246 317 261 q 308 216 311 231 q 303 188 306 201 q 301 167 301 175 q 310 131 301 146 q 343 117 319 117 q 390 133 368 117 q 425 165 413 150 l 518 597 m 478 679 q 347 720 396 679 q 285 853 299 761 l 356 882 q 379 837 364 854 q 413 810 394 819 q 452 797 432 800 q 489 793 472 793 q 601 824 547 793 q 690 903 654 854 l 743 856 q 624 719 690 760 q 478 679 557 679 z "},"û":{"ha":813,"x_min":15,"x_max":801,"o":"m 518 597 l 801 597 l 674 0 l 449 0 l 424 89 l 415 89 q 317 17 379 46 q 193 -11 256 -11 q 63 31 110 -11 q 15 142 15 74 q 27 228 15 176 q 49 326 39 281 l 107 597 l 389 597 l 319 272 q 314 246 317 261 q 308 216 311 231 q 303 188 306 201 q 301 167 301 175 q 310 131 301 146 q 343 117 319 117 q 390 133 368 117 q 425 165 413 150 l 518 597 m 221 679 l 424 882 l 631 882 l 746 679 l 640 679 l 525 808 l 340 679 l 221 679 z "},"ü":{"ha":813,"x_min":15,"x_max":801,"o":"m 518 597 l 801 597 l 674 0 l 449 0 l 424 89 l 415 89 q 317 17 379 46 q 193 -11 256 -11 q 63 31 110 -11 q 15 142 15 74 q 27 228 15 176 q 49 326 39 281 l 107 597 l 389 597 l 319 272 q 314 246 317 261 q 308 216 311 231 q 303 188 306 201 q 301 167 301 175 q 310 131 301 146 q 343 117 319 117 q 390 133 368 117 q 425 165 413 150 l 518 597 m 349 876 q 422 848 399 876 q 446 779 446 819 q 417 699 446 735 q 333 664 389 664 q 258 692 282 664 q 235 761 235 721 q 264 841 235 806 q 349 876 293 876 m 643 876 q 718 848 694 876 q 742 779 742 819 q 713 699 742 735 q 628 664 683 664 q 553 692 576 664 q 529 761 529 721 q 558 841 529 806 q 643 876 588 876 z "},"ụ":{"ha":813,"x_min":15,"x_max":801,"o":"m 518 597 l 801 597 l 674 0 l 449 0 l 424 89 l 415 89 q 317 17 379 46 q 193 -11 256 -11 q 63 31 110 -11 q 15 142 15 74 q 27 228 15 176 q 49 326 39 281 l 107 597 l 389 597 l 319 272 q 314 246 317 261 q 308 216 311 231 q 303 188 306 201 q 301 167 301 175 q 310 131 301 146 q 343 117 319 117 q 390 133 368 117 q 425 165 413 150 l 518 597 m 429 -200 q 419 -244 429 -225 q 391 -276 408 -264 q 351 -296 374 -289 q 304 -303 328 -303 q 228 -282 260 -303 q 197 -214 197 -261 q 235 -138 197 -164 q 324 -112 274 -112 q 399 -133 368 -112 q 429 -200 429 -154 z "},"ù":{"ha":813,"x_min":15,"x_max":801,"o":"m 518 597 l 801 597 l 674 0 l 449 0 l 424 89 l 415 89 q 317 17 379 46 q 193 -11 256 -11 q 63 31 110 -11 q 15 142 15 74 q 27 228 15 176 q 49 326 39 281 l 107 597 l 389 597 l 319 272 q 314 246 317 261 q 308 216 311 231 q 303 188 306 201 q 301 167 301 175 q 310 131 301 146 q 343 117 319 117 q 390 133 368 117 q 425 165 413 150 l 518 597 m 146 882 l 386 882 l 532 679 l 403 679 l 146 882 z "}}}
